<?xml version="1.0" encoding="utf-8"?>
<!-- Generator: Adobe Illustrator 15.0.0, SVG Export Plug-In . SVG Version: 6.00 Build 0)  -->
<!DOCTYPE svg PUBLIC "-//W3C//DTD SVG 1.1//EN" "http://www.w3.org/Graphics/SVG/1.1/DTD/svg11.dtd">
<svg version="1.1" id="Calque_1" xmlns="http://www.w3.org/2000/svg" xmlns:xlink="http://www.w3.org/1999/xlink" x="0px" y="0px"
	 width="80px" height="28px" viewBox="0 0 80 28" enable-background="new 0 0 80 28" xml:space="preserve">
<g id="Effet_NoPatch">
	<g>
		<linearGradient id="SVGID_1_" gradientUnits="userSpaceOnUse" x1="20.1328" y1="8.4287" x2="75.0898" y2="8.4287">
			<stop  offset="0" style="stop-color:#0098C9"/>
			<stop  offset="0.0554" style="stop-color:#32ABD2"/>
			<stop  offset="0.1239" style="stop-color:#69C0DD"/>
			<stop  offset="0.1907" style="stop-color:#97D2E6"/>
			<stop  offset="0.2542" style="stop-color:#BBDFEC"/>
			<stop  offset="0.3136" style="stop-color:#D4E9F1"/>
			<stop  offset="0.3672" style="stop-color:#E4EFF4"/>
			<stop  offset="0.41" style="stop-color:#E9F1F5"/>
			<stop  offset="0.4693" style="stop-color:#E3EFF4"/>
			<stop  offset="0.547" style="stop-color:#D3E9F1"/>
			<stop  offset="0.6349" style="stop-color:#B8DEEC"/>
			<stop  offset="0.7303" style="stop-color:#92D0E5"/>
			<stop  offset="0.8318" style="stop-color:#61BEDC"/>
			<stop  offset="0.9367" style="stop-color:#27A8D1"/>
			<stop  offset="1" style="stop-color:#0099CA"/>
		</linearGradient>
		<path fill="url(#SVGID_1_)" d="M72.886,17.106c0.021-0.438,0.396-10.744-11.933-12.402c-1.341-0.134-2.79-0.203-4.292-0.203
			c-16.364,0-35.885,8.144-36.081,8.227l-0.448-0.892C20.343,11.712,41.33-0.5,58.777-0.5c0.771,0,1.537,0.024,2.274,0.071
			c6.363,0.409,10.634,2.444,12.691,6.049c2.629,4.608,0.705,10.521,0.088,11.738L72.886,17.106z"/>
		<path fill="#F4F4F4" d="M58.777,0c0.755,0,1.502,0.023,2.242,0.07c18.66,1.198,12.808,16.19,12.365,17.062
			c0,0,0.59-11.181-12.365-12.923c-1.418-0.142-2.878-0.208-4.358-0.208c-16.659,0-36.275,8.266-36.275,8.266S41.265,0,58.777,0
			 M58.777-1C41.194-1,20.742,10.898,19.88,11.405l0.895,1.784c0.194-0.082,19.627-8.187,35.887-8.187
			c1.485,0,2.918,0.068,4.259,0.203C72.791,6.801,72.408,16.66,72.386,17.079l1.891,0.505c0.032-0.063,3.037-6.716-0.1-12.211
			c-2.146-3.761-6.551-5.88-13.093-6.301C60.336-0.976,59.56-1,58.777-1L58.777-1z"/>
	</g>
</g>
<g id="Calque_1_1_">
	<g>
		<g>
			<path fill="#2D2D2D" d="M13.188,28.134l-2.209-6.666l-2.56,6.666H5.125L5.007,27.8c-0.034-0.098-3.455-9.795-3.863-10.848
				c-0.62-1.603-1.345-1.973-1.353-1.976L0,14.021h5.077l2.511,7.705l2.688-7.705h2.975l2.436,7.69l2.701-7.69h4.025l-5.957,14.112
				H13.188z"/>
			<path fill="#F4F4F4" d="M21.659,14.521l-5.534,13.112h-2.576l-2.536-7.651l-2.938,7.651H5.479c0,0-3.453-9.79-3.868-10.862
				C0.887,14.9,0,14.521,0,14.521h4.714l2.858,8.77l3.059-8.77h2.254l2.777,8.77l3.08-8.77H21.659 M23.167,13.521h-1.507h-2.917
				h-0.708l-0.235,0.668l-2.088,5.944l-1.873-5.914l-0.221-0.698h-0.732h-2.254H9.92l-0.234,0.67l-2.083,5.97l-1.939-5.951
				l-0.225-0.69H4.714H0l-0.393,1.92c0,0-0.018-0.006-0.048-0.022c0.006,0.003,0.589,0.345,1.119,1.713
				c0.405,1.047,3.823,10.737,3.858,10.835l0.235,0.667h0.708h2.596h0.687l0.247-0.642l1.935-5.04l1.656,4.996l0.227,0.686h0.722
				h2.576h0.664l0.258-0.611l5.534-13.112L23.167,13.521L23.167,13.521z"/>
		</g>
		<g>
			<path fill="#2D2D2D" d="M42.738,28.134V14.021h0.5c0.207,0,1.318-0.02,2.443-0.041c1.163-0.021,2.342-0.042,2.567-0.042
				c3.1,0,6.027,0,7.975,2.398c1.218,1.478,1.4,3.359,1.4,4.349c0,3.218-1.747,5.782-4.674,6.859
				c-1.326,0.488-3.031,0.589-5.185,0.589H42.738z M47.786,25.334c2.734,0,4.894,0,4.894-4.505c0-4.132-2.294-4.132-3.969-4.132
				c-0.237,0-1.128,0.016-1.29,0.018v8.619H47.786z"/>
			<path fill="#F4F4F4" d="M48.249,14.439c3.36,0,5.856,0.083,7.587,2.213c1.107,1.344,1.288,3.082,1.288,4.033
				c0,3.226-1.812,5.457-4.347,6.39c-1.289,0.476-3.021,0.559-5.012,0.559h-4.527V14.521C43.66,14.521,47.805,14.439,48.249,14.439
				 M46.921,25.834h0.865c2.758,0,5.394,0,5.394-5.005c0-4.632-2.838-4.632-4.469-4.632c-0.502,0-1.188,0.021-1.79,0.021V25.834
				 M48.249,13.439c-0.227,0-1.409,0.021-2.576,0.042c-1.121,0.02-2.228,0.04-2.435,0.04h-1v1v13.112v1h1h4.527
				c2.207,0,3.962-0.105,5.357-0.62c3.131-1.152,5.001-3.892,5.001-7.328c0-1.057-0.197-3.068-1.517-4.669
				C54.515,13.439,51.471,13.439,48.249,13.439L48.249,13.439z M47.921,17.207c0.285-0.005,0.558-0.01,0.79-0.01
				c1.705,0,3.469,0,3.469,3.632c0,3.94-1.511,4.004-4.259,4.005V17.207L47.921,17.207z"/>
		</g>
		<g>
			<polygon fill="#2D2D2D" points="58.15,28.134 58.15,15.988 67.637,15.988 67.637,18.659 62.279,18.659 62.279,20.473 
				67.055,20.473 67.055,23.105 62.279,23.105 62.279,25.357 67.857,25.357 67.857,28.134 			"/>
			<path fill="#F4F4F4" d="M67.137,16.488v1.671h-5.357v2.813h4.775v1.633h-4.775v3.252h5.578v1.776H58.65V16.488H67.137
				 M68.137,15.488h-1H58.65h-1v1v11.146v1h1h8.707h1v-1v-1.776v-1h-1h-4.578v-1.252h3.775h1v-1v-1.633v-1h-1h-3.775v-0.813h4.357h1
				v-1v-1.671V15.488L68.137,15.488z"/>
		</g>
		<g>
			<polygon fill="#2D2D2D" points="71.665,28.134 66.912,15.988 71.558,15.988 73.938,22.85 76.697,15.988 80.357,15.988 
				74.581,28.134 			"/>
			<path fill="#F4F4F4" d="M79.566,16.488l-5.301,11.146h-2.26l-4.361-11.146h3.558l2.702,7.787l3.131-7.787H79.566 M81.149,15.488
				h-1.583h-2.531h-0.676l-0.252,0.627l-2.135,5.309l-1.826-5.264l-0.232-0.672h-0.712h-3.558H66.18l0.533,1.364l4.361,11.146
				l0.249,0.636h0.683h2.26h0.632l0.271-0.57l5.301-11.146L81.149,15.488L81.149,15.488z"/>
		</g>
		<g>
			<path fill="#2D2D2D" d="M78.305,28.5c-1.236,0-2.205-0.865-2.205-1.971c0-1.1,0.969-1.961,2.205-1.961
				c1.231,0,2.195,0.861,2.195,1.961c0,0.47-0.175,0.896-0.47,1.232l0.087,0.117h-0.199C79.52,28.263,78.948,28.5,78.305,28.5z"/>
			<path fill="#F4F4F4" d="M78.305,25.068c0.913,0,1.695,0.621,1.695,1.461C80,27.379,79.218,28,78.305,28
				c-0.925,0-1.705-0.621-1.705-1.471C76.6,25.689,77.38,25.068,78.305,25.068 M78.305,27.756c0.758,0,1.357-0.52,1.357-1.227
				c0-0.694-0.6-1.217-1.357-1.217c-0.768,0-1.369,0.523-1.369,1.217C76.936,27.234,77.536,27.755,78.305,27.756 M78.393,25.689
				c0.457,0,0.684,0.146,0.684,0.48c0,0.303-0.219,0.434-0.502,0.465l0.551,0.744h-0.328l-0.511-0.732h-0.338v0.732h-0.292v-1.689
				H78.393 M77.948,26.43h0.35c0.248,0,0.472-0.016,0.472-0.275c0-0.209-0.218-0.248-0.422-0.248h-0.399V26.43 M78.305,24.068
				c-1.517,0-2.705,1.081-2.705,2.461c0,1.386,1.188,2.471,2.705,2.471c0.7,0,1.33-0.233,1.805-0.621h1l-0.457-0.617
				C80.874,27.4,81,26.98,81,26.529C81,25.149,79.816,24.068,78.305,24.068L78.305,24.068z"/>
		</g>
		<g>
			<path fill="#2D2D2D" d="M32.381,28.094V15.988h5.81c1.158,0,2.109,0.255,2.829,0.759c0.813,0.574,1.224,1.426,1.224,2.532
				c0,1.128-0.477,1.987-1.381,2.49c0.089,0.048,0.173,0.098,0.254,0.15c0.891,0.6,1.341,1.465,1.341,2.573
				c0,1.334-0.56,2.339-1.662,2.986c-0.692,0.407-1.515,0.614-2.446,0.614H32.381z M37.065,25.891c0.841,0,1.184-0.376,1.184-1.299
				c0-1.082-0.44-1.544-1.473-1.544H36.56v2.843H37.065z M36.702,20.873c0.657,0,0.931-0.131,1.036-0.209
				c0.1-0.078,0.196-0.229,0.277-0.443c0.094-0.246,0.142-0.516,0.142-0.804c0-0.872-0.362-1.228-1.249-1.228H36.56v2.684H36.702z"
				/>
			<path fill="#F4F4F4" d="M38.191,16.488c1.059,0,1.905,0.223,2.542,0.668c0.674,0.477,1.011,1.186,1.011,2.123
				c0,0.988-0.403,1.688-1.208,2.099c-0.264,0.142-0.656,0.278-1.181,0.416c0.614,0.114,1.109,0.295,1.487,0.544
				c0.743,0.5,1.116,1.219,1.116,2.155c0,1.151-0.473,2.002-1.415,2.556c-0.619,0.364-1.352,0.545-2.193,0.545h-5.468V16.488H38.191
				 M36.06,21.373h0.642c0.614,0,1.06-0.104,1.335-0.309c0.182-0.141,0.33-0.361,0.446-0.666c0.115-0.301,0.174-0.629,0.174-0.981
				c0-1.151-0.584-1.728-1.749-1.728H36.06V21.373 M36.06,26.391h1.005c1.123,0,1.684-0.599,1.684-1.799
				c0-1.363-0.656-2.044-1.973-2.044H36.06V26.391 M38.191,15.488h-5.31h-1v1v11.105v1h1h5.468c1.021,0,1.93-0.229,2.7-0.683
				c1.248-0.733,1.908-1.916,1.908-3.418c0-1.12-0.421-2.056-1.222-2.731c0.66-0.6,1.008-1.444,1.008-2.482
				c0-1.26-0.496-2.276-1.434-2.939C40.501,15.773,39.453,15.488,38.191,15.488L38.191,15.488z M37.06,20.355v-1.662
				c0.515,0.026,0.597,0.207,0.597,0.724c0,0.227-0.036,0.437-0.108,0.624c-0.065,0.171-0.117,0.226-0.124,0.232l0,0
				C37.423,20.273,37.328,20.327,37.06,20.355L37.06,20.355z M37.06,25.391V23.56c0.482,0.05,0.689,0.27,0.689,1.032
				c0,0.765-0.222,0.799-0.684,0.799H37.06L37.06,25.391z"/>
		</g>
		<g>
			<polygon fill="#2D2D2D" points="22.017,28.134 22.017,15.988 31.501,15.988 31.501,18.659 26.147,18.659 26.147,20.473 
				30.921,20.473 30.921,23.105 26.147,23.105 26.147,25.357 31.724,25.357 31.724,28.134 			"/>
			<path fill="#F4F4F4" d="M31.001,16.488v1.671h-5.354v2.813h4.774v1.633h-4.774v3.252h5.577v1.776h-8.707V16.488H31.001
				 M32.001,15.488h-1h-8.484h-1v1v11.146v1h1h8.707h1v-1v-1.776v-1h-1h-4.577v-1.252h3.774h1v-1v-1.633v-1h-1h-3.774v-0.813h4.354
				h1v-1v-1.671V15.488L32.001,15.488z"/>
		</g>
	</g>
	<g>
		<g>
			<path fill="#2D2D2D" d="M1.187,13.065V4.64l0.482-0.017c1.098-0.039,1.74-0.057,1.926-0.057c1.548,0,2.667,0.197,3.421,0.602
				c0.832,0.447,1.271,1.184,1.271,2.13c0,1.397-0.733,3.063-4.228,3.063c-0.072,0-0.152-0.002-0.24-0.006v2.709H1.187z
				 M3.972,8.186c0.811,0,1.197-0.127,1.379-0.233C5.482,7.875,5.618,7.748,5.618,7.4c0-0.543-0.977-0.658-1.799-0.659v1.441
				C3.875,8.185,3.926,8.186,3.972,8.186z"/>
			<path fill="#F4F4F4" d="M3.595,5.067c1.452,0,2.513,0.181,3.185,0.542c0.671,0.361,1.007,0.924,1.007,1.69
				c0,1.708-1.243,2.563-3.728,2.563c-0.184-0.001-0.431-0.013-0.74-0.037v2.74H1.687V5.123C2.775,5.085,3.411,5.067,3.595,5.067
				 M3.972,8.686c0.745,0,1.289-0.101,1.632-0.302C5.946,8.182,6.118,7.854,6.118,7.4c0-0.773-0.768-1.159-2.304-1.159
				c-0.171,0-0.336,0.009-0.495,0.026V8.65C3.595,8.674,3.813,8.686,3.972,8.686 M3.595,4.067c-0.266,0-1.204,0.031-1.943,0.057
				L0.687,4.157v0.966v7.442v1h1h1.632h1v-1v-1.707c3.881-0.094,4.468-2.258,4.468-3.56c0-1.125-0.544-2.038-1.533-2.57
				C6.425,4.283,5.229,4.067,3.595,4.067L3.595,4.067z M4.319,7.677V7.259c0.502,0.04,0.72,0.133,0.798,0.178
				C5.114,7.49,5.106,7.516,5.103,7.523C5.043,7.554,4.841,7.647,4.319,7.677L4.319,7.677z"/>
		</g>
		<g>
			<path fill="#2D2D2D" d="M11.698,13.167c-1.146,0-2.061-0.305-2.719-0.905c-0.672-0.615-1.013-1.433-1.013-2.432
				c0-0.976,0.356-1.785,1.058-2.403c0.683-0.603,1.583-0.908,2.675-0.908c1.142,0,2.054,0.295,2.71,0.878
				c0.674,0.6,1.015,1.418,1.015,2.433c0,1.014-0.347,1.835-1.031,2.443C13.727,12.866,12.82,13.167,11.698,13.167z M11.699,8.556
				c-0.352,0-0.606,0.098-0.8,0.307c-0.203,0.218-0.301,0.534-0.301,0.967c0,1.143,0.529,1.3,1.101,1.3
				c0.351,0,0.604-0.097,0.796-0.306c0.198-0.215,0.298-0.549,0.298-0.994C12.793,8.71,12.267,8.556,11.699,8.556z"/>
			<path fill="#F4F4F4" d="M11.698,7.019c1.021,0,1.814,0.251,2.379,0.752c0.564,0.502,0.847,1.188,0.847,2.059
				c0,0.868-0.288,1.558-0.863,2.069c-0.575,0.512-1.363,0.768-2.363,0.768c-1.021,0-1.815-0.258-2.382-0.775
				c-0.566-0.517-0.85-1.204-0.85-2.062c0-0.83,0.296-1.506,0.888-2.028C9.946,7.28,10.728,7.019,11.698,7.019 M11.699,11.63
				c0.49,0,0.877-0.156,1.164-0.467c0.287-0.312,0.43-0.756,0.43-1.333c0-1.183-0.531-1.774-1.594-1.774
				c-0.49,0-0.878,0.156-1.167,0.468c-0.29,0.312-0.434,0.747-0.434,1.306C10.098,11.03,10.632,11.63,11.699,11.63 M11.698,6.019
				c-1.218,0-2.229,0.348-3.006,1.034C7.89,7.759,7.466,8.72,7.466,9.83c0,1.146,0.396,2.087,1.176,2.8
				c0.754,0.688,1.782,1.037,3.057,1.037c1.248,0,2.267-0.344,3.028-1.021c0.783-0.695,1.198-1.669,1.198-2.815
				c0-1.164-0.397-2.108-1.182-2.806C13.99,6.357,12.966,6.019,11.698,6.019L11.698,6.019z M11.699,10.63
				c-0.362,0-0.601,0-0.601-0.8c0-0.296,0.056-0.506,0.167-0.625c0.046-0.049,0.138-0.148,0.435-0.148c0.37,0,0.594,0,0.594,0.774
				c0,0.217-0.029,0.507-0.166,0.656C12.084,10.532,11.994,10.63,11.699,10.63L11.699,10.63z"/>
		</g>
		<g>
			<polygon fill="#2D2D2D" points="21.838,13.167 20.29,10.358 18.746,13.167 17.552,13.167 14.558,6.62 17.321,6.62 18.381,9.173 
				19.674,6.62 20.85,6.62 22.212,9.239 23.378,6.62 26.026,6.62 23.026,13.167 			"/>
			<path fill="#F4F4F4" d="M25.247,7.12l-2.542,5.547h-0.571l-1.845-3.345l-1.839,3.345h-0.577L15.336,7.12h1.651l1.349,3.249
				l1.645-3.249h0.565l1.701,3.27l1.456-3.27H25.247 M26.805,6.12h-1.558h-1.544h-0.649L22.79,6.713l-0.612,1.375l-0.744-1.43
				l-0.28-0.539h-0.607h-0.565h-0.615l-0.277,0.548l-0.663,1.31L17.91,6.737L17.654,6.12h-0.667h-1.651h-1.557l0.648,1.416
				l2.537,5.547l0.267,0.584h0.642h0.577h0.591l0.285-0.518l0.964-1.754l0.968,1.755l0.285,0.517h0.59h0.571h0.642l0.268-0.583
				l2.542-5.547L26.805,6.12L26.805,6.12z"/>
		</g>
		<g>
			<path fill="#2D2D2D" d="M29.011,13.167c-1.139,0-2.063-0.283-2.748-0.841c-0.716-0.583-1.079-1.399-1.079-2.424
				c0-1.01,0.393-1.842,1.167-2.472c0.744-0.604,1.643-0.91,2.672-0.91c1.086,0,1.98,0.274,2.659,0.816
				c0.712,0.568,1.073,1.305,1.073,2.19c0.001,0.202-0.046,0.47-0.149,0.839l-0.102,0.366h-1.302l0.966,1.54l-0.409,0.269
				C31.118,12.962,30.219,13.167,29.011,13.167z M28.042,10.732c0.036,0.038,0.077,0.072,0.123,0.105
				c0.25,0.178,0.613,0.268,1.078,0.268c0.595,0,1.038-0.115,1.316-0.341l0.04-0.032H28.042z M29.888,8.776
				c-0.167-0.119-0.428-0.195-0.839-0.195c-0.335,0-0.591,0.062-0.784,0.195H29.888z"/>
			<path fill="#F4F4F4" d="M29.023,7.02c0.975,0,1.757,0.236,2.347,0.707c0.59,0.471,0.885,1.071,0.885,1.8
				c0.001,0.154-0.043,0.39-0.131,0.705h-4.801c0.029,0.434,0.213,0.771,0.552,1.012c0.339,0.241,0.795,0.361,1.368,0.361
				c0.716,0,1.26-0.151,1.632-0.453l0.609,0.971c-0.552,0.363-1.376,0.544-2.473,0.544c-1.025,0-1.836-0.243-2.432-0.729
				c-0.596-0.486-0.895-1.165-0.895-2.036c0-0.857,0.328-1.552,0.982-2.084C27.321,7.286,28.106,7.02,29.023,7.02 M27.379,9.276
				h3.301c-0.109-0.796-0.653-1.195-1.632-1.195C28.153,8.082,27.597,8.48,27.379,9.276 M29.023,6.02
				c-1.147,0-2.153,0.344-2.987,1.021c-0.884,0.72-1.352,1.709-1.352,2.86c0,1.166,0.437,2.138,1.263,2.812
				c0.776,0.633,1.807,0.954,3.064,0.954c1.309,0,2.297-0.232,3.022-0.708l0.818-0.538l-0.52-0.829l-0.226-0.36h0.019h0.759
				l0.204-0.731c0.116-0.416,0.169-0.728,0.167-0.98c0-1.024-0.436-1.917-1.261-2.575C31.225,6.332,30.225,6.02,29.023,6.02
				L29.023,6.02z"/>
		</g>
		<g>
			<path fill="#2D2D2D" d="M33.011,13.064V6.62h2.568v0.114c0.371-0.143,0.789-0.215,1.251-0.215c0.617,0,1.089,0.081,1.442,0.247
				l0.505,0.237l-1.201,1.966l-0.416-0.222c-0.208-0.111-0.433-0.165-0.688-0.165c-0.237,0-0.436,0.084-0.626,0.264
				c-0.182,0.173-0.268,0.37-0.268,0.618v3.601H33.011z"/>
			<path fill="#F4F4F4" d="M36.83,7.019c0.536,0,0.946,0.066,1.23,0.199l-0.664,1.087c-0.28-0.149-0.588-0.224-0.923-0.224
				c-0.364,0-0.688,0.134-0.97,0.401c-0.282,0.268-0.424,0.595-0.424,0.981v3.101h-1.568V7.12h1.568v0.499
				C35.518,7.219,36.102,7.019,36.83,7.019 M36.83,6.019c-0.335,0-0.651,0.034-0.947,0.101h-0.804h-1.568h-1v1v5.444v1h1h1.568h1v-1
				V9.463c0-0.111,0.028-0.176,0.113-0.256c0.109-0.104,0.191-0.125,0.281-0.125c0.17,0,0.318,0.035,0.452,0.106l0.833,0.444
				l0.492-0.805l0.664-1.087l0.582-0.953l-1.011-0.474C38.063,6.115,37.522,6.019,36.83,6.019L36.83,6.019z"/>
		</g>
		<g>
			<path fill="#2D2D2D" d="M41.838,13.167c-1.139,0-2.063-0.283-2.748-0.841c-0.716-0.583-1.079-1.398-1.079-2.424
				c0-1.012,0.393-1.843,1.167-2.472c0.742-0.604,1.642-0.91,2.672-0.91c1.086,0,1.979,0.275,2.658,0.816
				c0.712,0.567,1.074,1.304,1.074,2.19c0.003,0.199-0.045,0.468-0.148,0.839l-0.102,0.366H44.03l0.963,1.541l-0.408,0.269
				C43.944,12.962,43.046,13.167,41.838,13.167z M40.869,10.732c0.037,0.037,0.078,0.072,0.124,0.104
				c0.25,0.178,0.613,0.269,1.077,0.269c0.595,0,1.038-0.115,1.318-0.342l0.038-0.031H40.869z M42.71,8.776
				c-0.168-0.118-0.428-0.195-0.834-0.195c-0.335,0-0.591,0.062-0.784,0.195H42.71z"/>
			<path fill="#F4F4F4" d="M41.85,7.02c0.975,0,1.756,0.236,2.346,0.707c0.592,0.471,0.887,1.071,0.887,1.8
				c0.002,0.154-0.042,0.39-0.13,0.705H40.15c0.029,0.434,0.214,0.771,0.553,1.012c0.339,0.241,0.795,0.361,1.367,0.361
				c0.716,0,1.26-0.151,1.633-0.453l0.607,0.971c-0.552,0.363-1.377,0.544-2.473,0.544c-1.025,0-1.836-0.243-2.432-0.729
				c-0.597-0.486-0.895-1.165-0.895-2.036c0-0.857,0.327-1.552,0.982-2.084C40.147,7.286,40.932,7.02,41.85,7.02 M40.207,9.276
				h3.301C43.4,8.48,42.855,8.081,41.876,8.081C40.98,8.082,40.425,8.48,40.207,9.276 M41.85,6.02c-1.148,0-2.153,0.344-2.987,1.022
				c-0.884,0.718-1.351,1.707-1.351,2.86c0,1.167,0.437,2.139,1.264,2.812c0.775,0.632,1.806,0.953,3.063,0.953
				c1.309,0,2.297-0.232,3.022-0.708l0.816-0.537l-0.519-0.829l-0.226-0.361h0.02h0.759l0.204-0.731
				c0.117-0.419,0.17-0.732,0.167-0.987c0-1.019-0.438-1.912-1.265-2.57C44.051,6.332,43.052,6.02,41.85,6.02L41.85,6.02z"/>
		</g>
		<g>
			<path fill="#2D2D2D" d="M49.044,13.166c-1.059,0-1.916-0.286-2.546-0.85c-0.646-0.579-0.975-1.381-0.975-2.385
				c0-1.007,0.369-1.841,1.097-2.479c0.708-0.621,1.6-0.935,2.649-0.935c0.311,0,0.609,0.029,0.894,0.086V4.68l2.567-0.499v8.884
				h-2.567v-0.053c-0.008,0.002-0.017,0.005-0.025,0.007C49.787,13.117,49.419,13.166,49.044,13.166z M49.613,8.597
				c-0.495,0-0.869,0.112-1.11,0.333c-0.233,0.213-0.347,0.529-0.347,0.965c0,0.592,0.181,1.198,1.521,1.198
				c0.066,0,0.189-0.015,0.398-0.084c0.033-0.011,0.063-0.021,0.088-0.031V8.717C49.983,8.637,49.802,8.597,49.613,8.597z"/>
			<path fill="#F4F4F4" d="M52.23,4.787v7.778h-1.567v-0.33c-0.13,0.115-0.351,0.216-0.659,0.302s-0.63,0.129-0.96,0.129
				c-0.938,0-1.675-0.241-2.213-0.722c-0.537-0.481-0.808-1.153-0.808-2.013c0-0.861,0.31-1.562,0.927-2.103
				c0.616-0.54,1.391-0.811,2.319-0.811c0.51,0,0.975,0.085,1.394,0.254V5.092L52.23,4.787 M49.677,11.594
				c0.15,0,0.335-0.036,0.556-0.109c0.22-0.073,0.363-0.147,0.431-0.221V8.422c-0.335-0.217-0.685-0.325-1.05-0.325
				c-0.627,0-1.109,0.155-1.448,0.465s-0.509,0.754-0.509,1.334C47.656,11.028,48.33,11.594,49.677,11.594 M53.23,3.574l-1.19,0.231
				L50.473,4.11l-0.81,0.157v0.824v0.939c-0.129-0.009-0.261-0.014-0.394-0.014c-1.175,0-2.177,0.356-2.979,1.059
				c-0.829,0.727-1.268,1.714-1.268,2.855c0,1.136,0.395,2.089,1.141,2.758c0.726,0.648,1.694,0.977,2.88,0.977
				c0.328,0,0.652-0.034,0.966-0.101h0.653h1.567h1v-1V4.787V3.574L53.23,3.574z M49.663,10.594
				c-1.007-0.003-1.007-0.341-1.007-0.698c0-0.428,0.139-0.555,0.184-0.596c0.184-0.167,0.521-0.203,0.773-0.203
				c0.017,0,0.033,0,0.05,0.001V10.594L49.663,10.594z"/>
		</g>
		<g>
			<path fill="#2D2D2D" d="M59.095,13.131c-0.324-0.001-0.623-0.05-0.893-0.146l-0.128,0.146h-1.289V7.398l1.999-0.388v1.553
				c0.121-0.017,0.244-0.026,0.37-0.026c0.745,0,1.362,0.201,1.835,0.598c0.493,0.41,0.754,0.969,0.754,1.613
				c0,0.729-0.252,1.318-0.75,1.753C60.514,12.919,59.875,13.131,59.095,13.131L59.095,13.131z M58.879,11.444
				c0.489,0,0.647-0.111,0.684-0.145c0.093-0.084,0.143-0.27,0.143-0.523c0-0.247,0-0.554-0.744-0.555
				c-0.065,0-0.125,0.005-0.177,0.014v1.203C58.811,11.441,58.842,11.444,58.879,11.444z"/>
			<path fill="#F4F4F4" d="M58.284,7.616v1.618c0.266-0.131,0.557-0.197,0.87-0.197c0.625,0,1.131,0.16,1.514,0.481
				c0.384,0.32,0.575,0.73,0.575,1.23c0,0.581-0.192,1.039-0.579,1.377c-0.387,0.337-0.909,0.506-1.568,0.506
				c-0.397-0.001-0.738-0.086-1.023-0.256l-0.225,0.256h-0.563V7.81L58.284,7.616 M58.879,11.944c0.482,0,0.823-0.093,1.023-0.278
				c0.201-0.185,0.303-0.482,0.303-0.89c0-0.703-0.415-1.055-1.246-1.055c-0.296,0.001-0.521,0.069-0.675,0.204v1.809
				C58.43,11.875,58.629,11.944,58.879,11.944 M59.284,6.403l-1.19,0.231l-0.999,0.193l-0.81,0.157V7.81v4.821v1h1h0.563h0.453
				l0.068-0.078c0.229,0.051,0.471,0.078,0.725,0.078c0.906,0,1.654-0.253,2.228-0.752c0.604-0.527,0.922-1.264,0.922-2.131
				c0-0.797-0.323-1.488-0.935-1.998c-0.535-0.449-1.216-0.688-2.024-0.711V7.616V6.403L59.284,6.403z"/>
		</g>
		<g>
			<path fill="#2D2D2D" d="M61.531,14.424v-1.715h0.5c0.363,0,0.551-0.038,0.64-0.066c-0.023-0.104-0.087-0.299-0.252-0.63
				L60.72,8.601h2.155l0.83,1.704l0.748-1.704h2.144l-2.202,4.732c-0.157,0.343-0.475,0.62-0.94,0.822
				c-0.411,0.178-0.89,0.269-1.423,0.269H61.531z"/>
			<path fill="#F4F4F4" d="M65.813,9.101l-1.871,4.021c-0.106,0.231-0.336,0.422-0.687,0.574c-0.351,0.152-0.758,0.228-1.224,0.228
				v-0.715c0.77,0,1.154-0.156,1.154-0.469c0-0.207-0.106-0.524-0.319-0.951l-1.339-2.688h1.035l1.166,2.394l1.051-2.394H65.813
				 M67.381,8.101h-1.568h-1.033h-0.653l-0.263,0.598l-0.182,0.415l-0.22-0.451l-0.274-0.562h-0.625h-1.035h-1.615l0.72,1.446
				l1.326,2.662h-0.927v1v0.715v1h1c0.602,0,1.147-0.104,1.622-0.311c0.582-0.252,0.984-0.613,1.196-1.073l1.869-4.018L67.381,8.101
				L67.381,8.101z"/>
		</g>
	</g>
</g>
</svg>
