<?xml version="1.0" encoding="utf-8"?>
<!-- Generator: Adobe Illustrator 15.0.2, SVG Export Plug-In . SVG Version: 6.00 Build 0)  -->
<!DOCTYPE svg PUBLIC "-//W3C//DTD SVG 1.1//EN" "http://www.w3.org/Graphics/SVG/1.1/DTD/svg11.dtd">
<svg version="1.1" id="Calque_1" xmlns="http://www.w3.org/2000/svg" xmlns:xlink="http://www.w3.org/1999/xlink" x="0px" y="0px"
	 width="384px" height="384px" viewBox="0 0 384 384" enable-background="new 0 0 384 384" xml:space="preserve">
<rect x="0" fill="#FFF5F5" width="384" height="384"/>
<g>
	<g opacity="0.15">
		<path fill="#006E12" d="M-776.185,660.751l13.466-13.466l43.487,43.484l-13.466,13.467L-776.185,660.751z"/>
		<path fill="#006E12" d="M-753.225,637.791l17.672-17.672l33.273,19.646l-19.692-33.228l17.661-17.661l43.484,43.484
			l-11.005,11.009l-33.161-33.165l24.684,41.643l-9.963,9.963l-41.625-24.701l33.161,33.165l-11.005,11.005L-753.225,637.791z"/>
		<path fill="#006E12" d="M-632.696,589.877l-15.256,15.256l5.059,9.299l-13.722,13.721l-27.142-59.831l14.658-14.657l59.828,27.145
			l-14.071,14.071L-632.696,589.877z M-644.889,583.263l-20.43-10.833l10.883,20.38L-644.889,583.263z"/>
		<path fill="#006E12" d="M-599.986,540.023l-9.047-9.048l20.762-20.765l18.542,18.538c-1.266,6.684-2.937,12.043-5.013,16.077
			c-2.077,4.034-5.213,8.148-9.404,12.341c-5.163,5.163-10.25,8.491-15.263,9.983c-5.013,1.493-10.155,1.392-15.424-0.297
			c-5.271-1.692-10.158-4.793-14.668-9.299c-4.747-4.747-7.897-9.854-9.449-15.322c-1.553-5.468-1.35-11.001,0.608-16.599
			c1.541-4.349,4.807-9.016,9.788-14c4.807-4.804,8.837-7.964,12.089-9.478c3.254-1.51,6.579-2.14,9.98-1.881
			c3.401,0.255,6.904,1.392,10.501,3.408l-10.648,15.277c-2.174-1.108-4.334-1.458-6.48-1.053c-2.146,0.406-4.209,1.598-6.185,3.576
			c-2.947,2.943-4.271,6.317-3.975,10.113c0.297,3.797,2.66,7.911,7.09,12.341c4.705,4.705,8.952,7.184,12.738,7.429
			c3.786,0.248,7.265-1.21,10.428-4.373c1.504-1.504,2.72-3.153,3.646-4.954c0.93-1.8,1.751-4.104,2.465-6.911l-4.094-4.094
			L-599.986,540.023z"/>
		<path fill="#006E12" d="M-599.007,483.572l36.01-36.011l9.285,9.285l-22.544,22.545l6.911,6.911l20.912-20.912l8.868,8.869
			l-20.912,20.912l8.572,8.571l23.198-23.194l9.848,9.848l-36.664,36.664L-599.007,483.572z"/>
		<path fill="#006E12" d="M-534.313,418.879l13.466-13.466l43.488,43.484l-13.466,13.466L-534.313,418.879z"/>
		<path fill="#006E12" d="M-511.352,395.918l17.671-17.671l33.273,19.646l-19.692-33.229l17.661-17.66l43.484,43.487l-11.005,11.005
			l-33.161-33.164l24.685,41.642l-9.964,9.963l-41.624-24.701l33.161,33.165l-11.005,11.005L-511.352,395.918z"/>
		<path fill="#006E12" d="M-390.824,348.004l-15.255,15.256l5.058,9.299l-13.721,13.722l-27.142-59.831l14.658-14.658l59.827,27.146
			l-14.07,14.07L-390.824,348.004z M-403.017,341.391l-20.429-10.834l10.882,20.381L-403.017,341.391z"/>
		<path fill="#006E12" d="M-358.113,298.15l-9.047-9.047l20.762-20.766l18.541,18.538c-1.265,6.685-2.936,12.044-5.013,16.078
			c-2.076,4.034-5.212,8.148-9.403,12.34c-5.164,5.163-10.25,8.491-15.263,9.984c-5.014,1.492-10.155,1.391-15.424-0.298
			c-5.271-1.691-10.159-4.792-14.669-9.299c-4.747-4.747-7.896-9.854-9.449-15.322c-1.552-5.467-1.349-11.001,0.608-16.598
			c1.542-4.349,4.807-9.016,9.788-14.001c4.808-4.803,8.838-7.964,12.089-9.478c3.255-1.51,6.579-2.139,9.98-1.88
			c3.401,0.255,6.904,1.391,10.502,3.408l-10.648,15.276c-2.175-1.108-4.335-1.458-6.481-1.052
			c-2.146,0.405-4.209,1.598-6.184,3.576c-2.947,2.943-4.272,6.316-3.976,10.113c0.298,3.796,2.661,7.911,7.09,12.34
			c4.705,4.706,8.953,7.185,12.739,7.429c3.785,0.248,7.264-1.209,10.428-4.373c1.503-1.503,2.72-3.153,3.646-4.953
			c0.93-1.801,1.751-4.104,2.464-6.912l-4.094-4.093L-358.113,298.15z"/>
		<path fill="#006E12" d="M-357.135,241.7l36.011-36.011l9.285,9.285l-22.545,22.544l6.911,6.911l20.912-20.911l8.869,8.868
			l-20.912,20.912l8.571,8.572l23.199-23.195l9.848,9.848l-36.665,36.664L-357.135,241.7z"/>
		<path fill="#006E12" d="M-292.44,177.006l13.466-13.466l43.488,43.484l-13.467,13.466L-292.44,177.006z"/>
		<path fill="#006E12" d="M-269.48,154.046l17.672-17.672l33.273,19.646l-19.692-33.228l17.661-17.661l43.484,43.488l-11.005,11.005
			l-33.161-33.165l24.684,41.643l-9.963,9.963l-41.625-24.701l33.161,33.164l-11.005,11.005L-269.48,154.046z"/>
		<path fill="#006E12" d="M-148.951,106.132l-15.256,15.256l5.059,9.299l-13.721,13.722l-27.142-59.831l14.657-14.658l59.828,27.145
			l-14.071,14.071L-148.951,106.132z M-161.144,99.518l-20.43-10.833l10.883,20.381L-161.144,99.518z"/>
		<path fill="#006E12" d="M-116.24,56.278l-9.048-9.048l20.762-20.765l18.542,18.538c-1.266,6.685-2.937,12.043-5.013,16.077
			c-2.077,4.034-5.213,8.149-9.404,12.341c-5.163,5.163-10.249,8.491-15.263,9.983c-5.013,1.493-10.155,1.392-15.424-0.297
			c-5.271-1.691-10.158-4.793-14.668-9.299c-4.747-4.747-7.897-9.854-9.449-15.322s-1.35-11.001,0.608-16.595
			c1.541-4.353,4.807-9.02,9.788-14.004c4.807-4.804,8.838-7.964,12.089-9.478c3.254-1.51,6.579-2.14,9.98-1.881
			c3.401,0.256,6.904,1.392,10.501,3.408l-10.648,15.277c-2.174-1.104-4.334-1.458-6.48-1.053c-2.146,0.406-4.209,1.598-6.185,3.576
			c-2.947,2.944-4.271,6.317-3.975,10.114c0.297,3.796,2.66,7.911,7.09,12.34c4.705,4.705,8.952,7.184,12.738,7.429
			c3.786,0.248,7.265-1.21,10.428-4.373c1.504-1.504,2.721-3.153,3.646-4.954c0.93-1.8,1.752-4.104,2.465-6.911l-4.094-4.094
			L-116.24,56.278z"/>
		<path fill="#006E12" d="M-115.261-0.173l36.011-36.01l9.284,9.284L-92.51-4.354l6.911,6.911l20.912-20.912l8.868,8.869
			L-76.73,11.427l8.571,8.571l23.198-23.194l9.848,9.848l-36.664,36.664L-115.261-0.173z"/>
		<path fill="#006E12" d="M-50.568-64.866l13.466-13.466L6.386-34.848L-7.08-21.382L-50.568-64.866z"/>
		<path fill="#006E12" d="M-27.607-87.827l17.671-17.671l33.273,19.646L3.646-119.079l17.66-17.661l43.485,43.488L53.786-82.247
			l-33.162-33.165l24.685,41.642l-9.963,9.964L-6.279-88.509l33.161,33.165L15.877-44.339L-27.607-87.827z"/>
		<path fill="#006E12" d="M92.922-135.74l-15.256,15.256l5.059,9.299L69.003-97.465l-27.142-59.831l14.658-14.658l59.827,27.146
			l-14.07,14.07L92.922-135.74z M80.729-142.354l-20.43-10.834l10.882,20.385L80.729-142.354z"/>
		<path fill="#006E12" d="M125.632-185.595l-9.047-9.047l20.762-20.766l18.542,18.539c-1.266,6.684-2.937,12.046-5.014,16.08
			c-2.076,4.034-5.212,8.146-9.403,12.337c-5.163,5.163-10.25,8.491-15.263,9.984c-5.014,1.492-10.155,1.392-15.424-0.297
			c-5.271-1.692-10.159-4.793-14.669-9.3c-4.747-4.747-7.896-9.854-9.449-15.321c-1.552-5.468-1.349-11.002,0.608-16.595
			c1.542-4.353,4.807-9.02,9.789-14.005c4.807-4.803,8.837-7.963,12.088-9.477c3.255-1.511,6.579-2.14,9.98-1.881
			c3.401,0.255,6.904,1.391,10.502,3.408l-10.648,15.276c-2.175-1.104-4.335-1.457-6.481-1.052s-4.209,1.598-6.184,3.576
			c-2.947,2.943-4.272,6.316-3.975,10.113c0.297,3.797,2.66,7.911,7.089,12.34c4.706,4.706,8.953,7.185,12.739,7.433
			c3.786,0.245,7.264-1.213,10.428-4.377c1.503-1.503,2.72-3.153,3.646-4.953c0.93-1.801,1.751-4.104,2.464-6.911l-4.093-4.094
			L125.632-185.595z"/>
		<path fill="#006E12" d="M126.611-242.045l36.011-36.011l9.285,9.285l-22.545,22.544l6.911,6.912l20.913-20.912l8.868,8.868
			l-20.912,20.912l8.572,8.572l23.194-23.195l9.852,9.848l-36.664,36.665L126.611-242.045z"/>
		<path fill="#006E12" d="M191.305-306.739l13.466-13.466l43.484,43.484l-13.466,13.467L191.305-306.739z"/>
		<path fill="#006E12" d="M214.262-329.699l17.675-17.672l33.273,19.646l-19.695-33.228l17.661-17.661l43.487,43.488l-11.005,11.005
			l-33.161-33.165l24.681,41.643l-9.96,9.963l-41.624-24.701l33.161,33.165l-11.005,11.005L214.262-329.699z"/>
		<path fill="#006E12" d="M334.791-377.613l-15.256,15.256l5.062,9.299l-13.721,13.721l-27.142-59.831l14.658-14.657l59.827,27.145
			l-14.074,14.071L334.791-377.613z M322.601-384.228l-20.433-10.833l10.886,20.384L322.601-384.228z"/>
		<path fill="#006E12" d="M367.505-427.467l-9.047-9.048l20.762-20.765l18.538,18.538c-1.266,6.688-2.937,12.047-5.014,16.081
			c-2.076,4.034-5.208,8.145-9.403,12.337c-5.16,5.163-10.25,8.491-15.263,9.983c-5.013,1.493-10.152,1.396-15.424-0.297
			c-5.268-1.692-10.158-4.793-14.668-9.299c-4.744-4.747-7.894-9.854-9.446-15.322c-1.552-5.468-1.349-11.001,0.608-16.595
			c1.542-4.353,4.804-9.02,9.788-14.004c4.804-4.804,8.838-7.964,12.089-9.478c3.251-1.51,6.579-2.14,9.98-1.881
			c3.401,0.255,6.904,1.392,10.502,3.408l-10.652,15.277c-2.174-1.104-4.335-1.458-6.481-1.053
			c-2.143,0.405-4.205,1.598-6.181,3.576c-2.95,2.943-4.271,6.317-3.978,10.113c0.301,3.797,2.663,7.911,7.089,12.341
			c4.706,4.705,8.957,7.184,12.739,7.432c3.789,0.245,7.265-1.213,10.432-4.376c1.503-1.504,2.716-3.153,3.646-4.954
			c0.931-1.8,1.752-4.104,2.465-6.911l-4.097-4.094L367.505-427.467z"/>
		<path fill="#006E12" d="M368.484-483.918l36.007-36.011l9.285,9.285l-22.541,22.545l6.908,6.911l20.912-20.912l8.872,8.869
			l-20.912,20.912l8.571,8.571l23.198-23.194l9.845,9.848l-36.664,36.664L368.484-483.918z"/>
		<path fill="#006E12" d="M433.178-548.611l13.466-13.466l43.487,43.484l-13.469,13.466L433.178-548.611z"/>
		<path fill="#006E12" d="M456.138-571.572l17.668-17.671l33.277,19.646l-19.692-33.229l17.661-17.66l43.484,43.487l-11.005,11.005
			l-33.165-33.164l24.688,41.642l-9.963,9.963l-41.628-24.701l33.164,33.165l-11.008,11.005L456.138-571.572z"/>
		<path fill="#006E12" d="M576.667-619.486l-15.256,15.256l5.055,9.299l-13.718,13.722l-27.141-59.831l14.654-14.658l59.827,27.146
			l-14.07,14.07L576.667-619.486z M564.474-626.1l-20.43-10.834l10.879,20.384L564.474-626.1z"/>
		<path fill="#006E12" d="M609.374-669.34l-9.047-9.047l20.765-20.766l18.542,18.542c-1.266,6.684-2.937,12.043-5.013,16.077
			c-2.077,4.034-5.216,8.146-9.404,12.337c-5.163,5.163-10.25,8.491-15.263,9.984c-5.013,1.492-10.155,1.395-15.424-0.298
			c-5.271-1.691-10.162-4.792-14.668-9.299c-4.747-4.747-7.897-9.854-9.449-15.322c-1.553-5.467-1.35-11.001,0.608-16.595
			c1.541-4.352,4.807-9.019,9.788-14c4.807-4.807,8.834-7.968,12.085-9.481c3.258-1.51,6.583-2.139,9.984-1.88
			c3.401,0.255,6.9,1.391,10.501,3.408l-10.648,15.276c-2.174-1.104-4.334-1.458-6.48-1.052c-2.146,0.405-4.209,1.598-6.188,3.576
			c-2.943,2.943-4.271,6.316-3.971,10.113c0.294,3.796,2.656,7.911,7.09,12.34c4.705,4.706,8.949,7.185,12.738,7.433
			c3.786,0.244,7.265-1.213,10.425-4.377c1.503-1.503,2.72-3.153,3.649-4.953c0.93-1.801,1.748-4.104,2.461-6.912l-4.09-4.093
			L609.374-669.34z"/>
		<path fill="#006E12" d="M610.353-725.79l36.015-36.011l9.284,9.285l-22.548,22.544l6.915,6.911l20.912-20.912l8.868,8.869
			l-20.915,20.912l8.575,8.572l23.194-23.195l9.852,9.848l-36.664,36.664L610.353-725.79z"/>
	</g>
	<g opacity="0.15">
		<path fill="#006E12" d="M-814.154,850.596l13.466-13.47l43.488,43.488l-13.47,13.466L-814.154,850.596z"/>
		<path fill="#006E12" d="M-791.193,827.635l17.671-17.671l33.273,19.643l-19.691-33.224l17.66-17.661l43.485,43.484l-11.005,11.005
			l-33.162-33.161l24.681,41.642l-9.96,9.96l-41.624-24.698l33.161,33.162l-11.005,11.008L-791.193,827.635z"/>
		<path fill="#006E12" d="M-670.664,779.722l-15.256,15.255l5.058,9.3l-13.721,13.717l-27.142-59.827l14.658-14.658l59.827,27.146
			l-14.074,14.07L-670.664,779.722z M-682.858,773.107l-20.429-10.834l10.882,20.381L-682.858,773.107z"/>
		<path fill="#006E12" d="M-637.954,729.867l-9.047-9.047l20.762-20.766l18.542,18.539c-1.27,6.684-2.94,12.043-5.014,16.077
			c-2.076,4.034-5.212,8.148-9.403,12.34c-5.163,5.163-10.25,8.488-15.263,9.98c-5.014,1.493-10.155,1.396-15.424-0.294
			c-5.271-1.691-10.162-4.792-14.669-9.302c-4.747-4.744-7.896-9.852-9.449-15.319c-1.552-5.467-1.349-11.001,0.608-16.598
			c1.542-4.349,4.807-9.016,9.789-14.001c4.807-4.803,8.833-7.963,12.088-9.477s6.579-2.14,9.98-1.885
			c3.401,0.259,6.904,1.395,10.502,3.412l-10.648,15.276c-2.175-1.107-4.335-1.457-6.481-1.052s-4.209,1.598-6.184,3.572
			c-2.947,2.947-4.272,6.32-3.976,10.117c0.294,3.797,2.657,7.911,7.09,12.34c4.705,4.706,8.953,7.185,12.739,7.429
			c3.786,0.248,7.261-1.209,10.428-4.373c1.503-1.503,2.716-3.156,3.646-4.953c0.93-1.801,1.751-4.104,2.464-6.912l-4.094-4.093
			L-637.954,729.867z"/>
		<path fill="#006E12" d="M-636.975,673.417l36.011-36.011l9.285,9.285l-22.545,22.544l6.911,6.911l20.912-20.911l8.869,8.868
			l-20.912,20.912l8.572,8.572l23.198-23.195l9.848,9.848l-36.664,36.664L-636.975,673.417z"/>
		<path fill="#006E12" d="M-572.281,608.723l13.466-13.469l43.488,43.487l-13.47,13.467L-572.281,608.723z"/>
		<path fill="#006E12" d="M-549.321,585.763l17.672-17.672l33.273,19.644l-19.692-33.225l17.661-17.661l43.484,43.484
			l-11.005,11.005l-33.161-33.161l24.681,41.643l-9.96,9.959l-41.628-24.697l33.165,33.161l-11.005,11.008L-549.321,585.763z"/>
		<path fill="#006E12" d="M-428.792,537.849l-15.256,15.256l5.059,9.299l-13.721,13.718l-27.142-59.828l14.657-14.657l59.828,27.145
			l-14.074,14.071L-428.792,537.849z M-440.985,531.234l-20.43-10.833l10.883,20.38L-440.985,531.234z"/>
		<path fill="#006E12" d="M-396.081,487.995l-9.048-9.048l20.762-20.765l18.542,18.538c-1.269,6.684-2.939,12.043-5.013,16.077
			c-2.077,4.034-5.213,8.148-9.404,12.341c-5.163,5.163-10.249,8.487-15.263,9.98c-5.013,1.496-10.155,1.395-15.424-0.294
			c-5.271-1.692-10.162-4.793-14.668-9.303c-4.747-4.743-7.897-9.851-9.449-15.318s-1.35-11.001,0.608-16.599
			c1.542-4.349,4.807-9.016,9.788-14c4.807-4.804,8.834-7.964,12.089-9.478c3.254-1.514,6.579-2.14,9.98-1.884
			c3.401,0.258,6.9,1.395,10.501,3.411l-10.647,15.277c-2.175-1.108-4.335-1.458-6.481-1.053s-4.209,1.598-6.185,3.573
			c-2.947,2.946-4.271,6.32-3.975,10.116c0.294,3.797,2.657,7.911,7.09,12.341c4.705,4.705,8.952,7.184,12.738,7.429
			c3.786,0.248,7.261-1.21,10.429-4.373c1.499-1.504,2.716-3.157,3.646-4.954c0.93-1.801,1.752-4.104,2.465-6.911l-4.094-4.094
			L-396.081,487.995z"/>
		<path fill="#006E12" d="M-395.102,431.544l36.011-36.011l9.284,9.285l-22.544,22.545l6.911,6.911l20.912-20.912l8.869,8.869
			l-20.912,20.912l8.571,8.571l23.198-23.194l9.848,9.848l-36.664,36.664L-395.102,431.544z"/>
		<path fill="#006E12" d="M-330.409,366.851l13.466-13.47l43.488,43.488l-13.47,13.466L-330.409,366.851z"/>
		<path fill="#006E12" d="M-307.448,343.89l17.671-17.671l33.273,19.643l-19.691-33.225l17.66-17.66l43.485,43.484l-11.005,11.005
			l-33.162-33.161l24.681,41.642l-9.959,9.96l-41.629-24.698l33.165,33.165l-11.005,11.005L-307.448,343.89z"/>
		<path fill="#006E12" d="M-186.919,295.976l-15.256,15.256l5.059,9.299l-13.722,13.718l-27.142-59.827l14.658-14.658l59.827,27.146
			l-14.074,14.07L-186.919,295.976z M-199.112,289.362l-20.43-10.834l10.882,20.381L-199.112,289.362z"/>
		<path fill="#006E12" d="M-154.209,246.122l-9.047-9.047l20.762-20.766l18.538,18.538c-1.266,6.685-2.937,12.044-5.013,16.078
			c-2.073,4.034-5.209,8.148-9.4,12.34c-5.163,5.163-10.25,8.488-15.263,9.98c-5.014,1.496-10.155,1.395-15.424-0.294
			c-5.271-1.691-10.162-4.792-14.668-9.302c-4.748-4.744-7.897-9.852-9.449-15.319c-1.553-5.467-1.35-11.001,0.607-16.598
			c1.542-4.349,4.808-9.016,9.789-14.001c4.807-4.803,8.834-7.964,12.088-9.478c3.251-1.514,6.579-2.139,9.98-1.884
			c3.401,0.259,6.901,1.395,10.502,3.412l-10.648,15.276c-2.175-1.108-4.335-1.458-6.481-1.052
			c-2.146,0.405-4.209,1.598-6.184,3.572c-2.947,2.947-4.272,6.32-3.975,10.117c0.293,3.796,2.656,7.911,7.089,12.34
			c4.706,4.706,8.953,7.185,12.739,7.429c3.786,0.248,7.261-1.209,10.428-4.373c1.5-1.503,2.717-3.157,3.646-4.953
			c0.93-1.801,1.751-4.104,2.464-6.912l-4.093-4.093L-154.209,246.122z"/>
		<path fill="#006E12" d="M-153.23,189.672l36.011-36.011l9.285,9.285l-22.545,22.544l6.911,6.911l20.912-20.912l8.869,8.869
			l-20.912,20.912l8.572,8.572l23.198-23.195l9.848,9.848l-36.664,36.664L-153.23,189.672z"/>
		<path fill="#006E12" d="M-88.536,124.978l13.466-13.469l43.488,43.488l-13.47,13.465L-88.536,124.978z"/>
		<path fill="#006E12" d="M-65.576,102.018l17.672-17.672l33.273,19.644l-19.692-33.225l17.661-17.661l43.484,43.485l-11.005,11.005
			l-33.161-33.162l24.681,41.643l-9.96,9.96l-41.628-24.698l33.165,33.165l-11.005,11.005L-65.576,102.018z"/>
		<path fill="#006E12" d="M54.953,54.104L39.698,69.359l5.059,9.299L31.035,92.376L3.894,32.549l14.658-14.658l59.827,27.145
			L64.305,59.106L54.953,54.104z M42.76,47.489L22.33,36.656l10.883,20.381L42.76,47.489z"/>
		<path fill="#006E12" d="M87.66,4.25l-9.047-9.048l20.765-20.765l18.539,18.538c-1.266,6.685-2.937,12.043-5.014,16.077
			c-2.072,4.034-5.208,8.149-9.4,12.341c-5.163,5.163-10.249,8.487-15.263,9.98c-5.013,1.496-10.155,1.395-15.423-0.294
			c-5.272-1.692-10.163-4.793-14.669-9.303c-4.747-4.743-7.897-9.851-9.449-15.318s-1.35-11.001,0.608-16.598
			c1.542-4.35,4.807-9.017,9.788-14.001c4.807-4.804,8.834-7.964,12.089-9.478c3.251-1.514,6.579-2.14,9.98-1.884
			c3.401,0.259,6.9,1.395,10.501,3.411L81.019-16.813c-2.175-1.108-4.335-1.458-6.481-1.053c-2.146,0.406-4.209,1.598-6.185,3.573
			c-2.946,2.947-4.271,6.32-3.975,10.117c0.294,3.796,2.657,7.91,7.09,12.34c4.705,4.705,8.952,7.184,12.738,7.429
			c3.786,0.248,7.261-1.21,10.429-4.373c1.499-1.504,2.716-3.157,3.646-4.954c0.931-1.8,1.752-4.104,2.465-6.911l-4.094-4.094
			L87.66,4.25z"/>
		<path fill="#006E12" d="M88.643-52.201l36.011-36.01l9.284,9.284l-22.544,22.545l6.911,6.911l20.912-20.912l8.869,8.869
			l-20.912,20.912l8.571,8.571l23.198-23.194l9.849,9.848L132.127-8.713L88.643-52.201z"/>
		<path fill="#006E12" d="M153.336-116.895l13.467-13.47l43.488,43.488l-13.47,13.466L153.336-116.895z"/>
		<path fill="#006E12" d="M176.297-139.855l17.668-17.671l33.273,19.643l-19.688-33.224l17.661-17.661l43.484,43.484l-11.005,11.005
			l-33.165-33.161l24.685,41.642l-9.96,9.96l-41.628-24.698l33.161,33.165l-11.005,11.005L176.297-139.855z"/>
		<path fill="#006E12" d="M296.826-187.769l-15.256,15.255l5.055,9.3l-13.717,13.717l-27.142-59.827l14.654-14.658l59.827,27.146
			l-14.07,14.07L296.826-187.769z M284.633-194.383l-20.43-10.834l10.879,20.381L284.633-194.383z"/>
		<path fill="#006E12" d="M329.533-237.623l-9.047-9.047l20.765-20.766l18.538,18.539c-1.265,6.684-2.937,12.043-5.013,16.077
			s-5.212,8.148-9.4,12.34c-5.163,5.163-10.25,8.488-15.263,9.98c-5.013,1.496-10.155,1.396-15.424-0.293
			c-5.271-1.692-10.162-4.793-14.668-9.3c-4.747-4.747-7.897-9.854-9.453-15.321c-1.552-5.468-1.349-11.002,0.608-16.599
			c1.545-4.349,4.811-9.016,9.792-14.001c4.807-4.803,8.834-7.963,12.085-9.477c3.255-1.514,6.583-2.14,9.984-1.885
			c3.401,0.259,6.9,1.395,10.501,3.412l-10.648,15.276c-2.174-1.107-4.334-1.457-6.48-1.052s-4.209,1.598-6.188,3.572
			c-2.944,2.947-4.272,6.32-3.972,10.117c0.294,3.797,2.657,7.911,7.09,12.34c4.705,4.706,8.949,7.185,12.738,7.429
			c3.786,0.248,7.261-1.209,10.425-4.373c1.503-1.503,2.72-3.156,3.649-4.953c0.93-1.801,1.748-4.104,2.461-6.911l-4.09-4.094
			L329.533-237.623z"/>
		<path fill="#006E12" d="M330.512-294.073l36.015-36.011l9.284,9.285l-22.548,22.544l6.915,6.911l20.912-20.911l8.865,8.868
			l-20.912,20.912l8.571,8.572l23.198-23.195l9.852,9.848L374-250.585L330.512-294.073z"/>
		<path fill="#006E12" d="M395.206-358.768l13.469-13.469l43.485,43.487l-13.467,13.467L395.206-358.768z"/>
		<path fill="#006E12" d="M418.166-381.728l17.675-17.672l33.273,19.644l-19.695-33.225l17.661-17.661l43.488,43.484l-11.005,11.005
			l-33.162-33.161l24.681,41.643l-9.959,9.959l-41.629-24.697l33.165,33.164l-11.005,11.005L418.166-381.728z"/>
		<path fill="#006E12" d="M538.696-429.642l-15.256,15.256l5.063,9.299l-13.725,13.718l-27.142-59.828l14.661-14.657l59.827,27.145
			l-14.074,14.071L538.696-429.642z M526.506-436.256l-20.434-10.833l10.886,20.38L526.506-436.256z"/>
		<path fill="#006E12" d="M571.406-479.495l-9.047-9.048l20.766-20.765l18.538,18.538c-1.266,6.684-2.937,12.043-5.013,16.077
			c-2.077,4.034-5.209,8.148-9.404,12.341c-5.159,5.163-10.25,8.487-15.263,9.983c-5.013,1.493-10.151,1.392-15.424-0.297
			c-5.271-1.692-10.158-4.793-14.668-9.299c-4.747-4.747-7.894-9.854-9.446-15.322c-1.552-5.468-1.349-11.001,0.608-16.599
			c1.542-4.349,4.804-9.016,9.789-14c4.803-4.804,8.834-7.964,12.088-9.478c3.251-1.51,6.579-2.14,9.98-1.885
			c3.401,0.259,6.901,1.396,10.498,3.412l-10.648,15.277c-2.174-1.108-4.334-1.458-6.48-1.053s-4.206,1.598-6.181,3.573
			c-2.951,2.946-4.272,6.32-3.979,10.116c0.297,3.797,2.66,7.911,7.09,12.341c4.705,4.705,8.956,7.184,12.738,7.429
			c3.79,0.248,7.265-1.21,10.428-4.373c1.504-1.504,2.72-3.157,3.65-4.954c0.926-1.801,1.751-4.104,2.461-6.911l-4.094-4.094
			L571.406-479.495z"/>
		<path fill="#006E12" d="M572.385-535.946l36.011-36.011l9.284,9.285l-22.541,22.545l6.908,6.911l20.912-20.912l8.872,8.869
			l-20.912,20.912l8.572,8.571l23.198-23.194l9.844,9.848l-36.664,36.664L572.385-535.946z"/>
		<path fill="#006E12" d="M637.082-600.64l13.466-13.466l43.488,43.484l-13.47,13.466L637.082-600.64z"/>
		<path fill="#006E12" d="M660.039-623.601l17.671-17.671l33.273,19.643l-19.688-33.225l17.661-17.66l43.484,43.484l-11.005,11.005
			l-33.165-33.161l24.685,41.642l-9.96,9.96l-41.628-24.698l33.161,33.165l-11.005,11.005L660.039-623.601z"/>
		<path fill="#006E12" d="M780.572-671.515l-15.256,15.256l5.056,9.299l-13.718,13.722l-27.142-59.831l14.654-14.658l59.827,27.146
			l-14.07,14.07L780.572-671.515z M768.378-678.128l-20.43-10.834l10.879,20.381L768.378-678.128z"/>
		<path fill="#006E12" d="M813.279-721.368l-9.047-9.047l20.765-20.766l18.539,18.538c-1.266,6.685-2.937,12.044-5.014,16.078
			c-2.076,4.034-5.212,8.148-9.4,12.34c-5.163,5.163-10.249,8.488-15.263,9.984c-5.013,1.492-10.155,1.391-15.423-0.298
			c-5.272-1.691-10.163-4.792-14.669-9.299c-4.747-4.747-7.9-9.854-9.453-15.322c-1.552-5.467-1.349-11.001,0.608-16.598
			c1.546-4.349,4.811-9.016,9.792-14.001c4.807-4.804,8.834-7.964,12.085-9.478c3.255-1.51,6.583-2.139,9.984-1.884
			c3.401,0.259,6.9,1.395,10.501,3.412l-10.647,15.276c-2.179-1.108-4.339-1.458-6.481-1.052c-2.146,0.405-4.209,1.598-6.188,3.572
			c-2.944,2.947-4.272,6.32-3.976,10.117c0.298,3.796,2.661,7.911,7.09,12.34c4.709,4.706,8.953,7.185,12.742,7.429
			c3.786,0.248,7.261-1.209,10.425-4.373c1.503-1.503,2.72-3.153,3.649-4.954c0.93-1.8,1.748-4.104,2.461-6.911l-4.094-4.093
			L813.279-721.368z"/>
		<path fill="#006E12" d="M814.257-777.818l36.015-36.011l9.281,9.285L837.008-782l6.915,6.911l20.912-20.912l8.865,8.869
			l-20.912,20.912l8.572,8.572l23.198-23.195l9.851,9.848l-36.664,36.664L814.257-777.818z"/>
	</g>
	<g opacity="0.15">
		<path fill="#006E12" d="M-624.309,812.628l13.466-13.47l43.488,43.488l-13.47,13.466L-624.309,812.628z"/>
		<path fill="#006E12" d="M-601.352,789.667l17.671-17.672l33.277,19.644l-19.692-33.225l17.661-17.661l43.484,43.485
			l-11.005,11.005l-33.165-33.162l24.685,41.643l-9.96,9.96l-41.628-24.698l33.164,33.161l-11.004,11.005L-601.352,789.667z"/>
		<path fill="#006E12" d="M-480.82,741.753l-15.256,15.256l5.059,9.296l-13.721,13.721l-27.142-59.831l14.657-14.654l59.824,27.145
			l-14.07,14.071L-480.82,741.753z M-493.013,735.139l-20.43-10.833l10.883,20.381L-493.013,735.139z"/>
		<path fill="#006E12" d="M-448.113,691.896l-9.047-9.047l20.765-20.762l18.538,18.538c-1.265,6.685-2.936,12.043-5.013,16.077
			c-2.076,4.034-5.209,8.149-9.403,12.341c-5.16,5.159-10.246,8.487-15.26,9.98c-5.013,1.492-10.155,1.395-15.427-0.297
			c-5.269-1.688-10.159-4.79-14.669-9.299c-4.743-4.744-7.894-9.852-9.445-15.319c-1.552-5.471-1.35-11.001,0.608-16.598
			c1.541-4.35,4.803-9.017,9.788-14.001c4.807-4.807,8.834-7.964,12.089-9.478c3.251-1.514,6.579-2.14,9.98-1.884
			c3.401,0.259,6.9,1.395,10.501,3.412l-10.648,15.276c-2.178-1.108-4.338-1.458-6.48-1.053c-2.146,0.406-4.209,1.595-6.188,3.573
			c-2.944,2.947-4.269,6.32-3.976,10.117c0.298,3.796,2.661,7.907,7.09,12.34c4.709,4.705,8.956,7.181,12.742,7.429
			s7.261-1.21,10.425-4.377c1.503-1.5,2.72-3.153,3.649-4.953c0.93-1.797,1.752-4.101,2.461-6.911l-4.094-4.094L-448.113,691.896z"
			/>
		<path fill="#006E12" d="M-447.135,635.448l36.011-36.01l9.285,9.284l-22.541,22.545l6.911,6.911l20.912-20.915l8.869,8.872
			l-20.912,20.912l8.571,8.571l23.195-23.198l9.851,9.852l-36.664,36.661L-447.135,635.448z"/>
		<path fill="#006E12" d="M-382.437,570.755l13.466-13.47l43.485,43.488l-13.467,13.466L-382.437,570.755z"/>
		<path fill="#006E12" d="M-359.48,547.794l17.672-17.671l33.276,19.643l-19.691-33.224l17.66-17.661l43.485,43.484l-11.005,11.005
			l-33.165-33.161l24.684,41.642l-9.959,9.96l-41.629-24.698l33.165,33.162l-11.005,11.005L-359.48,547.794z"/>
		<path fill="#006E12" d="M-238.947,499.881l-15.256,15.256l5.059,9.295l-13.722,13.721l-27.142-59.831l14.658-14.654l59.824,27.146
			l-14.071,14.07L-238.947,499.881z M-251.14,493.267l-20.434-10.834l10.886,20.381L-251.14,493.267z"/>
		<path fill="#006E12" d="M-206.24,450.023l-9.048-9.048l20.766-20.762l18.538,18.539c-1.266,6.684-2.937,12.043-5.013,16.077
			c-2.077,4.034-5.209,8.148-9.404,12.34c-5.159,5.16-10.246,8.488-15.259,9.98c-5.014,1.493-10.155,1.396-15.428-0.297
			c-5.268-1.688-10.158-4.789-14.668-9.299c-4.744-4.744-7.894-9.852-9.446-15.318c-1.552-5.472-1.349-11.002,0.608-16.599
			c1.542-4.349,4.804-9.016,9.789-14.001c4.807-4.807,8.834-7.963,12.088-9.477c3.251-1.514,6.579-2.14,9.98-1.885
			c3.401,0.259,6.901,1.395,10.502,3.412l-10.648,15.276c-2.178-1.107-4.338-1.457-6.481-1.052
			c-2.146,0.405-4.209,1.594-6.188,3.572c-2.943,2.947-4.269,6.32-3.975,10.117c0.297,3.797,2.66,7.907,7.09,12.34
			c4.709,4.706,8.956,7.181,12.742,7.429c3.786,0.249,7.261-1.209,10.424-4.373c1.504-1.503,2.721-3.156,3.65-4.957
			c0.93-1.797,1.751-4.101,2.461-6.911l-4.094-4.094L-206.24,450.023z"/>
		<path fill="#006E12" d="M-205.261,393.576l36.011-36.011l9.284,9.285l-22.541,22.544l6.911,6.912l20.912-20.916l8.869,8.872
			l-20.912,20.912l8.572,8.572l23.194-23.198l9.852,9.851l-36.664,36.661L-205.261,393.576z"/>
		<path fill="#006E12" d="M-140.564,328.882l13.466-13.469l43.484,43.487l-13.466,13.467L-140.564,328.882z"/>
		<path fill="#006E12" d="M-117.607,305.922l17.671-17.672l33.277,19.644l-19.692-33.225l17.661-17.661l43.484,43.484
			l-11.005,11.005l-33.165-33.161l24.685,41.643l-9.96,9.959l-41.628-24.697l33.165,33.161l-11.005,11.005L-117.607,305.922z"/>
		<path fill="#006E12" d="M2.925,258.008l-15.256,15.256l5.059,9.295l-13.721,13.722l-27.142-59.831l14.657-14.654l59.824,27.145
			l-14.07,14.071L2.925,258.008z M-9.268,251.394l-20.433-10.833l10.886,20.38L-9.268,251.394z"/>
		<path fill="#006E12" d="M35.632,208.15l-9.047-9.047l20.765-20.762l18.539,18.538c-1.266,6.684-2.937,12.043-5.014,16.077
			c-2.076,4.034-5.209,8.148-9.403,12.341c-5.16,5.159-10.246,8.487-15.26,9.98c-5.013,1.492-10.155,1.395-15.427-0.298
			c-5.269-1.688-10.159-4.789-14.669-9.299c-4.743-4.743-7.894-9.851-9.445-15.318s-1.35-11.001,0.608-16.599
			c1.542-4.349,4.803-9.016,9.788-14c4.807-4.807,8.834-7.964,12.089-9.478c3.251-1.514,6.579-2.14,9.98-1.884
			c3.401,0.258,6.9,1.395,10.501,3.411L28.99,187.092c-2.179-1.108-4.339-1.458-6.481-1.053c-2.146,0.406-4.209,1.595-6.188,3.573
			c-2.943,2.946-4.269,6.32-3.975,10.116c0.297,3.797,2.66,7.908,7.089,12.341c4.709,4.705,8.953,7.181,12.742,7.429
			c3.786,0.248,7.261-1.21,10.425-4.373c1.503-1.504,2.72-3.157,3.649-4.957c0.93-1.797,1.752-4.101,2.461-6.912l-4.093-4.093
			L35.632,208.15z"/>
		<path fill="#006E12" d="M36.611,151.703l36.011-36.01l9.285,9.284l-22.541,22.545l6.911,6.911l20.912-20.912l8.869,8.869
			l-20.912,20.912l8.571,8.571l23.195-23.198l9.851,9.852l-36.664,36.66L36.611,151.703z"/>
		<path fill="#006E12" d="M101.308,87.01l13.466-13.47l43.485,43.488l-13.466,13.466L101.308,87.01z"/>
		<path fill="#006E12" d="M124.265,64.049l17.672-17.671l33.277,19.643l-19.692-33.224l17.661-17.661l43.484,43.484l-11.005,11.005
			l-33.165-33.161l24.685,41.643l-9.96,9.959l-41.629-24.698l33.165,33.162l-11.005,11.005L124.265,64.049z"/>
		<path fill="#006E12" d="M244.794,16.136l-15.256,15.256l5.063,9.299l-13.725,13.718L193.739-5.423l14.657-14.655L268.22,7.067
			l-14.07,14.07L244.794,16.136z M232.601,9.521l-20.43-10.834l10.887,20.381L232.601,9.521z"/>
		<path fill="#006E12" d="M277.505-33.719l-9.047-9.047l20.762-20.766l18.541,18.539c-1.265,6.684-2.937,12.043-5.013,16.077
			s-5.209,8.148-9.403,12.34c-5.16,5.16-10.25,8.488-15.263,9.98c-5.014,1.493-10.152,1.396-15.424-0.297
			c-5.271-1.688-10.159-4.789-14.669-9.299c-4.747-4.744-7.894-9.852-9.445-15.318c-1.553-5.468-1.35-11.002,0.608-16.599
			c1.538-4.349,4.803-9.016,9.788-14.001c4.803-4.807,8.834-7.963,12.089-9.477c3.251-1.514,6.579-2.14,9.977-1.885
			c3.405,0.259,6.904,1.396,10.502,3.412L270.86-54.781c-2.175-1.107-4.335-1.457-6.481-1.052s-4.209,1.598-6.185,3.572
			c-2.946,2.947-4.271,6.321-3.975,10.117c0.298,3.797,2.66,7.908,7.09,12.341c4.705,4.705,8.953,7.18,12.739,7.429
			c3.789,0.248,7.264-1.21,10.428-4.374c1.503-1.503,2.72-3.156,3.646-4.953c0.931-1.801,1.756-4.104,2.465-6.915l-4.094-4.094
			L277.505-33.719z"/>
		<path fill="#006E12" d="M278.484-90.169l36.011-36.011l9.285,9.285L301.239-94.35l6.907,6.911l20.912-20.912l8.872,8.869
			L317.018-78.57l8.572,8.572l23.194-23.195l9.849,9.849l-36.665,36.66L278.484-90.169z"/>
		<path fill="#006E12" d="M343.181-154.862l13.466-13.47l43.484,43.488l-13.466,13.466L343.181-154.862z"/>
		<path fill="#006E12" d="M366.138-177.823l17.672-17.672l33.273,19.644l-19.688-33.225l17.66-17.661l43.481,43.485l-11.005,11.005
			l-33.161-33.162l24.684,41.643l-9.96,9.96l-41.628-24.698l33.161,33.161l-11.005,11.005L366.138-177.823z"/>
		<path fill="#006E12" d="M486.667-225.737l-15.252,15.256l5.055,9.299l-13.718,13.718l-27.142-59.827l14.654-14.658l59.828,27.145
			l-14.071,14.071L486.667-225.737z M474.477-232.352l-20.433-10.833l10.883,20.381L474.477-232.352z"/>
		<path fill="#006E12" d="M519.377-275.591l-9.047-9.048l20.766-20.765l18.538,18.538c-1.266,6.685-2.937,12.043-5.013,16.077
			c-2.077,4.034-5.213,8.149-9.404,12.341c-5.163,5.159-10.246,8.487-15.259,9.98c-5.014,1.492-10.159,1.395-15.428-0.297
			c-5.268-1.688-10.158-4.79-14.668-9.3c-4.744-4.743-7.897-9.851-9.449-15.318c-1.553-5.468-1.35-11.001,0.608-16.598
			c1.545-4.35,4.807-9.017,9.788-14.001c4.811-4.804,8.837-7.964,12.089-9.478c3.254-1.514,6.579-2.14,9.983-1.884
			c3.398,0.259,6.901,1.395,10.502,3.411l-10.648,15.277c-2.178-1.108-4.338-1.458-6.481-1.053
			c-2.146,0.406-4.209,1.598-6.188,3.573c-2.947,2.947-4.271,6.32-3.975,10.117c0.297,3.796,2.66,7.907,7.09,12.34
			c4.708,4.705,8.952,7.181,12.742,7.429c3.782,0.248,7.261-1.21,10.424-4.373c1.504-1.504,2.72-3.157,3.65-4.954
			c0.93-1.8,1.748-4.104,2.461-6.914l-4.094-4.091L519.377-275.591z"/>
		<path fill="#006E12" d="M520.357-332.042l36.011-36.01l9.284,9.284l-22.544,22.545l6.914,6.911l20.912-20.912l8.865,8.869
			l-20.912,20.912l8.572,8.571l23.198-23.194l9.848,9.848l-36.66,36.661L520.357-332.042z"/>
		<path fill="#006E12" d="M585.05-396.735l13.466-13.47l43.488,43.488l-13.466,13.466L585.05-396.735z"/>
		<path fill="#006E12" d="M608.011-419.696l17.671-17.671l33.277,19.643l-19.695-33.224l17.66-17.661l43.488,43.484l-11.005,11.005
			l-33.165-33.161l24.685,41.642l-9.964,9.96l-41.624-24.698l33.165,33.162l-11.005,11.005L608.011-419.696z"/>
		<path fill="#006E12" d="M728.539-467.609l-15.255,15.256l5.062,9.299l-13.725,13.717l-27.142-59.827l14.661-14.658l59.824,27.146
			l-14.07,14.07L728.539-467.609z M716.346-474.224l-20.43-10.834l10.883,20.381L716.346-474.224z"/>
		<path fill="#006E12" d="M761.25-517.464l-9.047-9.047l20.762-20.766l18.541,18.539c-1.265,6.684-2.936,12.043-5.013,16.077
			c-2.076,4.034-5.209,8.148-9.403,12.34c-5.16,5.16-10.25,8.488-15.263,9.98c-5.014,1.493-10.152,1.396-15.424-0.297
			c-5.271-1.688-10.159-4.789-14.669-9.299c-4.747-4.744-7.894-9.852-9.445-15.318c-1.552-5.468-1.35-11.002,0.608-16.599
			c1.538-4.349,4.803-9.016,9.788-14.001c4.804-4.803,8.834-7.963,12.089-9.477c3.251-1.514,6.579-2.14,9.977-1.885
			c3.405,0.259,6.904,1.395,10.502,3.412l-10.648,15.276c-2.175-1.107-4.335-1.457-6.481-1.052s-4.209,1.598-6.184,3.572
			c-2.947,2.947-4.272,6.32-3.976,10.117c0.298,3.797,2.661,7.907,7.09,12.34c4.705,4.706,8.953,7.181,12.739,7.429
			c3.789,0.249,7.264-1.209,10.428-4.373c1.503-1.503,2.72-3.156,3.646-4.953c0.93-1.801,1.755-4.104,2.464-6.915l-4.094-4.09
			L761.25-517.464z"/>
		<path fill="#006E12" d="M762.229-573.914l36.011-36.011l9.285,9.285l-22.545,22.544l6.911,6.912l20.912-20.912l8.873,8.868
			l-20.912,20.912l8.571,8.572l23.195-23.195l9.848,9.848l-36.665,36.661L762.229-573.914z"/>
	</g>
	<g opacity="0.15">
		<path fill="#006E12" d="M-662.278,1002.469l13.466-13.467l43.485,43.485l-13.467,13.469L-662.278,1002.469z"/>
		<path fill="#006E12" d="M-639.321,979.511l17.672-17.671l33.276,19.643l-19.691-33.228l17.657-17.657l43.488,43.484
			l-11.005,11.005l-33.165-33.165l24.684,41.646l-9.959,9.959l-41.629-24.698l33.165,33.162l-11.005,11.005L-639.321,979.511z"/>
		<path fill="#006E12" d="M-518.792,931.598l-15.256,15.252l5.063,9.299l-13.722,13.722l-27.142-59.831l14.658-14.658l59.824,27.148
			l-14.071,14.07L-518.792,931.598z M-530.981,924.979l-20.434-10.833l10.883,20.384L-530.981,924.979z"/>
		<path fill="#006E12" d="M-486.081,881.74l-9.048-9.048l20.766-20.762l18.538,18.539c-1.266,6.684-2.937,12.043-5.013,16.077
			c-2.077,4.034-5.209,8.146-9.404,12.34c-5.159,5.16-10.246,8.488-15.259,9.98c-5.014,1.493-10.155,1.396-15.428-0.297
			c-5.268-1.688-10.158-4.789-14.668-9.299c-4.744-4.747-7.894-9.852-9.445-15.322c-1.553-5.468-1.35-10.998,0.607-16.595
			c1.542-4.353,4.804-9.02,9.789-14.001c4.803-4.807,8.834-7.963,12.088-9.477c3.251-1.514,6.579-2.144,9.98-1.885
			c3.402,0.259,6.901,1.395,10.502,3.412l-10.651,15.276c-2.175-1.107-4.335-1.457-6.481-1.056
			c-2.144,0.406-4.206,1.598-6.185,3.576c-2.947,2.947-4.271,6.317-3.975,10.114c0.297,3.8,2.66,7.91,7.09,12.34
			c4.709,4.709,8.952,7.184,12.742,7.433c3.786,0.248,7.261-1.214,10.425-4.377c1.503-1.504,2.72-3.153,3.649-4.954
			c0.93-1.8,1.751-4.104,2.461-6.911l-4.094-4.094L-486.081,881.74z"/>
		<path fill="#006E12" d="M-485.102,825.293l36.011-36.011l9.284,9.285l-22.544,22.541l6.911,6.911l20.915-20.912l8.869,8.869
			l-20.912,20.915l8.572,8.572l23.194-23.198l9.848,9.848l-36.66,36.664L-485.102,825.293z"/>
		<path fill="#006E12" d="M-420.405,760.596l13.466-13.466l43.484,43.484l-13.466,13.47L-420.405,760.596z"/>
		<path fill="#006E12" d="M-397.448,737.639l17.671-17.672l33.277,19.644l-19.692-33.228l17.657-17.658l43.488,43.485
			l-11.005,11.005l-33.165-33.165l24.685,41.646l-9.96,9.96l-41.628-24.698l33.165,33.161l-11.005,11.005L-397.448,737.639z"/>
		<path fill="#006E12" d="M-276.919,689.725l-15.256,15.252l5.062,9.3l-13.721,13.721l-27.142-59.831l14.658-14.658l59.823,27.148
			l-14.07,14.071L-276.919,689.725z M-289.109,683.107l-20.433-10.834l10.882,20.385L-289.109,683.107z"/>
		<path fill="#006E12" d="M-244.209,639.867l-9.047-9.047l20.765-20.762l18.539,18.538c-1.266,6.685-2.937,12.043-5.014,16.077
			c-2.076,4.034-5.208,8.149-9.403,12.341c-5.16,5.159-10.246,8.487-15.26,9.98c-5.013,1.492-10.155,1.395-15.427-0.298
			c-5.269-1.688-10.159-4.789-14.668-9.299c-4.744-4.747-7.895-9.851-9.446-15.322c-1.552-5.467-1.35-10.997,0.608-16.594
			c1.542-4.353,4.804-9.02,9.788-14.001c4.804-4.807,8.834-7.964,12.089-9.478c3.251-1.514,6.579-2.143,9.98-1.884
			s6.9,1.395,10.501,3.411l-10.651,15.277c-2.175-1.108-4.335-1.458-6.481-1.056c-2.143,0.405-4.205,1.598-6.184,3.576
			c-2.947,2.947-4.272,6.316-3.975,10.113c0.297,3.8,2.66,7.911,7.089,12.34c4.709,4.709,8.953,7.185,12.742,7.433
			c3.786,0.248,7.261-1.213,10.425-4.377c1.503-1.503,2.72-3.153,3.649-4.953c0.931-1.801,1.752-4.104,2.461-6.912l-4.093-4.093
			L-244.209,639.867z"/>
		<path fill="#006E12" d="M-243.23,583.42l36.011-36.01l9.285,9.284l-22.545,22.541l6.911,6.911l20.916-20.911l8.869,8.868
			l-20.912,20.916l8.571,8.571l23.195-23.198l9.848,9.848l-36.661,36.664L-243.23,583.42z"/>
		<path fill="#006E12" d="M-178.533,518.723l13.467-13.466l43.484,43.484l-13.466,13.47L-178.533,518.723z"/>
		<path fill="#006E12" d="M-155.576,495.766l17.672-17.671l33.276,19.643l-19.695-33.228l17.661-17.657l43.488,43.484
			l-11.005,11.005l-33.165-33.165l24.684,41.646l-9.959,9.96l-41.629-24.698l33.165,33.162l-11.005,11.004L-155.576,495.766z"/>
		<path fill="#006E12" d="M-35.047,447.853l-15.256,15.252l5.063,9.299l-13.722,13.721l-27.142-59.831l14.658-14.657l59.824,27.148
			l-14.07,14.07L-35.047,447.853z M-47.236,441.234l-20.434-10.833l10.883,20.384L-47.236,441.234z"/>
		<path fill="#006E12" d="M-2.336,397.995l-9.048-9.048l20.766-20.762l18.538,18.539c-1.266,6.684-2.937,12.043-5.013,16.077
			s-5.209,8.148-9.404,12.34c-5.159,5.16-10.246,8.488-15.259,9.98c-5.013,1.493-10.155,1.396-15.427-0.297
			c-5.269-1.688-10.159-4.789-14.669-9.299c-4.744-4.747-7.894-9.852-9.445-15.322c-1.553-5.468-1.35-10.998,0.608-16.595
			c1.541-4.353,4.803-9.02,9.788-14.001c4.803-4.807,8.834-7.963,12.088-9.477c3.252-1.514,6.579-2.144,9.981-1.885
			c3.401,0.259,6.9,1.395,10.501,3.412l-10.651,15.276c-2.175-1.107-4.335-1.457-6.481-1.052c-2.144,0.401-4.206,1.594-6.185,3.572
			c-2.946,2.947-4.271,6.317-3.975,10.113c0.297,3.801,2.66,7.911,7.09,12.341c4.709,4.709,8.952,7.184,12.742,7.432
			c3.786,0.249,7.261-1.213,10.425-4.376c1.503-1.504,2.72-3.153,3.649-4.954c0.93-1.797,1.751-4.104,2.461-6.911l-4.094-4.094
			L-2.336,397.995z"/>
		<path fill="#006E12" d="M-1.357,341.548l36.011-36.011l9.284,9.285l-22.544,22.541l6.911,6.911l20.915-20.912l8.869,8.869
			l-20.912,20.915l8.572,8.572l23.194-23.198l9.848,9.848l-36.66,36.664L-1.357,341.548z"/>
		<path fill="#006E12" d="M63.34,276.851l13.466-13.466l43.484,43.484l-13.466,13.47L63.34,276.851z"/>
		<path fill="#006E12" d="M86.297,253.894l17.672-17.672l33.276,19.644l-19.695-33.229l17.661-17.657l43.488,43.484l-11.005,11.005
			l-33.166-33.164l24.685,41.646l-9.96,9.959l-41.628-24.697l33.165,33.161l-11.005,11.005L86.297,253.894z"/>
		<path fill="#006E12" d="M206.826,205.979l-15.256,15.252l5.059,9.299l-13.718,13.722l-27.142-59.831l14.654-14.658l59.828,27.148
			l-14.074,14.071L206.826,205.979z M194.637,199.362l-20.434-10.834l10.883,20.384L194.637,199.362z"/>
		<path fill="#006E12" d="M239.536,156.122l-9.047-9.047l20.766-20.762l18.534,18.538c-1.265,6.685-2.937,12.043-5.013,16.077
			c-2.073,4.034-5.209,8.148-9.4,12.341c-5.163,5.159-10.246,8.487-15.259,9.98c-5.014,1.492-10.159,1.395-15.428-0.298
			c-5.268-1.688-10.162-4.789-14.668-9.299c-4.744-4.747-7.897-9.851-9.449-15.321c-1.553-5.468-1.35-10.998,0.608-16.595
			c1.545-4.353,4.807-9.02,9.788-14.001c4.807-4.807,8.838-7.964,12.089-9.478s6.579-2.14,9.983-1.884
			c3.398,0.259,6.901,1.395,10.502,3.412l-10.652,15.276c-2.174-1.108-4.334-1.458-6.48-1.053c-2.144,0.402-4.206,1.595-6.185,3.573
			c-2.947,2.947-4.271,6.317-3.975,10.113c0.297,3.8,2.66,7.911,7.09,12.341c4.709,4.708,8.952,7.184,12.742,7.432
			c3.782,0.248,7.257-1.213,10.424-4.377c1.504-1.503,2.72-3.153,3.65-4.953c0.93-1.797,1.748-4.104,2.461-6.911l-4.094-4.094
			L239.536,156.122z"/>
		<path fill="#006E12" d="M240.516,99.675l36.011-36.01l9.284,9.284l-22.544,22.542l6.911,6.911l20.915-20.912l8.865,8.868
			l-20.911,20.916l8.571,8.571l23.198-23.198l9.848,9.848l-36.66,36.665L240.516,99.675z"/>
		<path fill="#006E12" d="M305.209,34.978l13.466-13.466L362.163,65l-13.466,13.466L305.209,34.978z"/>
		<path fill="#006E12" d="M328.17,12.021L345.841-5.65l33.277,19.643l-19.695-33.224l17.66-17.661l43.488,43.484l-11.005,11.005
			l-33.165-33.161l24.685,41.642l-9.963,9.96l-41.629-24.698l33.169,33.162l-11.005,11.005L328.17,12.021z"/>
		<path fill="#006E12" d="M448.699-35.893l-15.256,15.256l5.062,9.295L424.781,2.38l-27.142-59.831l14.658-14.655l59.827,27.146
			l-14.07,14.07L448.699-35.893z M436.506-42.511l-20.43-10.83l10.882,20.381L436.506-42.511z"/>
		<path fill="#006E12" d="M481.409-85.75l-9.047-9.048l20.762-20.762l18.542,18.539c-1.266,6.684-2.937,12.043-5.014,16.077
			c-2.076,4.034-5.212,8.148-9.403,12.34c-5.16,5.16-10.25,8.488-15.263,9.98c-5.014,1.493-10.152,1.396-15.424-0.297
			c-5.271-1.688-10.159-4.789-14.669-9.299c-4.747-4.744-7.894-9.852-9.445-15.322c-1.552-5.468-1.35-10.998,0.608-16.595
			c1.538-4.353,4.803-9.02,9.788-14.001c4.804-4.807,8.831-7.963,12.089-9.477c3.251-1.514,6.579-2.14,9.977-1.885
			c3.405,0.259,6.901,1.396,10.502,3.412l-10.648,15.276c-2.175-1.107-4.335-1.457-6.481-1.052s-4.209,1.594-6.184,3.572
			c-2.947,2.947-4.272,6.317-3.976,10.117c0.294,3.797,2.657,7.907,7.09,12.337c4.705,4.709,8.953,7.184,12.739,7.432
			c3.789,0.249,7.264-1.213,10.428-4.376c1.5-1.504,2.716-3.153,3.646-4.954c0.93-1.797,1.751-4.101,2.464-6.911l-4.093-4.094
			L481.409-85.75z"/>
		<path fill="#006E12" d="M482.388-142.197l36.011-36.011l9.285,9.285l-22.545,22.541l6.911,6.915l20.912-20.916l8.873,8.869
			l-20.916,20.915l8.575,8.572l23.195-23.198l9.848,9.848l-36.664,36.664L482.388-142.197z"/>
		<path fill="#006E12" d="M547.085-206.895l13.466-13.466l43.485,43.488l-13.47,13.466L547.085-206.895z"/>
		<path fill="#006E12" d="M570.042-229.852l17.672-17.672l33.273,19.644l-19.692-33.225l17.661-17.661l43.484,43.485l-11.005,11.005
			l-33.161-33.162l24.681,41.643l-9.956,9.96l-41.629-24.698l33.162,33.161l-11.005,11.005L570.042-229.852z"/>
		<path fill="#006E12" d="M690.572-277.766l-15.256,15.256l5.059,9.296l-13.718,13.721l-27.142-59.831l14.654-14.654l59.828,27.145
			l-14.074,14.071L690.572-277.766z M678.382-284.383l-20.434-10.83l10.883,20.381L678.382-284.383z"/>
		<path fill="#006E12" d="M723.282-327.623l-9.048-9.047L735-357.432l18.535,18.538c-1.266,6.685-2.937,12.043-5.014,16.077
			c-2.073,4.034-5.209,8.149-9.4,12.341c-5.163,5.159-10.246,8.487-15.259,9.98c-5.013,1.492-10.159,1.395-15.427-0.298
			c-5.269-1.688-10.163-4.789-14.669-9.299c-4.744-4.743-7.897-9.851-9.449-15.318c-1.552-5.471-1.35-11.001,0.608-16.598
			c1.545-4.353,4.807-9.02,9.788-14.001c4.807-4.807,8.838-7.964,12.089-9.478s6.579-2.14,9.984-1.884
			c3.397,0.259,6.9,1.395,10.501,3.411l-10.651,15.277c-2.175-1.108-4.335-1.458-6.481-1.053c-2.144,0.406-4.206,1.595-6.185,3.573
			c-2.947,2.947-4.271,6.316-3.975,10.117c0.297,3.796,2.66,7.907,7.09,12.336c4.705,4.709,8.952,7.185,12.742,7.433
			c3.782,0.248,7.257-1.213,10.425-4.377c1.503-1.503,2.72-3.153,3.649-4.953c0.93-1.797,1.748-4.101,2.461-6.912l-4.094-4.093
			L723.282-327.623z"/>
		<path fill="#006E12" d="M724.261-384.07l36.011-36.01l9.284,9.284l-22.544,22.541l6.911,6.915l20.912-20.915l8.869,8.868
			l-20.912,20.916l8.571,8.571l23.198-23.198l9.848,9.848l-36.66,36.664L724.261-384.07z"/>
		<path fill="#006E12" d="M788.954-448.768l13.466-13.466l43.488,43.488l-13.466,13.466L788.954-448.768z"/>
		<path fill="#006E12" d="M811.915-471.725l17.671-17.671l33.277,19.643l-19.695-33.224l17.66-17.661l43.488,43.484l-11.005,11.005
			l-33.165-33.161l24.685,41.642l-9.963,9.96l-41.629-24.698l33.169,33.161l-11.005,11.005L811.915-471.725z"/>
		<path fill="#006E12" d="M932.445-519.638l-15.256,15.255l5.059,9.296l-13.722,13.721l-27.142-59.831l14.658-14.654l59.827,27.146
			l-14.07,14.07L932.445-519.638z M920.251-526.256l-20.43-10.83l10.882,20.381L920.251-526.256z"/>
		<path fill="#006E12" d="M965.152-569.495l-9.048-9.048l20.766-20.762l18.542,18.539c-1.266,6.684-2.937,12.043-5.014,16.077
			c-2.076,4.034-5.212,8.148-9.403,12.34c-5.16,5.16-10.25,8.488-15.263,9.98c-5.013,1.493-10.152,1.396-15.424-0.297
			c-5.271-1.688-10.159-4.789-14.668-9.299c-4.748-4.744-7.894-9.852-9.446-15.319c-1.552-5.471-1.35-11.001,0.608-16.598
			c1.538-4.349,4.804-9.02,9.788-14.001c4.804-4.807,8.831-7.963,12.085-9.477c3.255-1.514,6.583-2.14,9.98-1.885
			c3.405,0.259,6.901,1.395,10.502,3.412l-10.648,15.276c-2.175-1.108-4.335-1.457-6.481-1.052s-4.209,1.594-6.184,3.572
			c-2.947,2.947-4.272,6.317-3.975,10.117c0.293,3.797,2.656,7.907,7.089,12.337c4.706,4.709,8.953,7.184,12.739,7.432
			c3.789,0.248,7.264-1.209,10.428-4.376c1.5-1.504,2.717-3.153,3.646-4.954c0.93-1.797,1.751-4.101,2.465-6.911l-4.094-4.094
			L965.152-569.495z"/>
		<path fill="#006E12" d="M966.133-625.942l36.011-36.011l9.285,9.285l-22.545,22.541l6.911,6.914l20.912-20.915l8.873,8.872
			l-20.916,20.912l8.575,8.572l23.195-23.198l9.848,9.851l-36.664,36.661L966.133-625.942z"/>
	</g>
	<g opacity="0.15">
		<path fill="#006E12" d="M-472.437,964.5l13.47-13.466l43.484,43.484l-13.466,13.47L-472.437,964.5z"/>
		<path fill="#006E12" d="M-449.476,941.543l17.671-17.675l33.273,19.646l-19.691-33.228l17.66-17.661l43.488,43.488l-11.005,11.005
			l-33.165-33.165l24.685,41.646l-9.96,9.96l-41.628-24.702l33.161,33.165l-11.005,11.005L-449.476,941.543z"/>
		<path fill="#006E12" d="M-328.947,893.626l-15.256,15.256l5.059,9.299l-13.718,13.721l-27.142-59.831l14.654-14.658l59.827,27.146
			l-14.07,14.074L-328.947,893.626z M-341.137,887.012l-20.433-10.834l10.882,20.385L-341.137,887.012z"/>
		<path fill="#006E12" d="M-296.237,843.771l-9.047-9.047l20.765-20.766l18.539,18.542c-1.266,6.685-2.937,12.043-5.014,16.077
			c-2.076,4.034-5.212,8.146-9.403,12.341c-5.16,5.159-10.25,8.487-15.263,9.98c-5.014,1.493-10.152,1.395-15.424-0.297
			c-5.269-1.692-10.159-4.79-14.669-9.299c-4.747-4.748-7.894-9.855-9.445-15.322c-1.552-5.468-1.353-10.998,0.608-16.595
			c1.542-4.353,4.803-9.02,9.788-14.001c4.804-4.807,8.834-7.967,12.085-9.478c3.255-1.514,6.583-2.143,9.984-1.884
			c3.401,0.255,6.9,1.395,10.498,3.412l-10.648,15.276c-2.175-1.108-4.335-1.461-6.481-1.056s-4.205,1.598-6.184,3.576
			c-2.947,2.947-4.272,6.317-3.975,10.113c0.297,3.797,2.66,7.911,7.089,12.341c4.706,4.705,8.953,7.184,12.739,7.432
			c3.789,0.245,7.264-1.213,10.428-4.377c1.503-1.503,2.72-3.153,3.649-4.953c0.93-1.801,1.748-4.104,2.461-6.911l-4.093-4.094
			L-296.237,843.771z"/>
		<path fill="#006E12" d="M-295.259,787.324l36.011-36.014l9.285,9.285l-22.545,22.545l6.911,6.911l20.912-20.912l8.873,8.868
			l-20.916,20.912l8.575,8.576l23.195-23.199l9.848,9.848l-36.664,36.665L-295.259,787.324z"/>
		<path fill="#006E12" d="M-230.564,722.627l13.469-13.466l43.485,43.485l-13.466,13.469L-230.564,722.627z"/>
		<path fill="#006E12" d="M-207.604,699.67l17.672-17.675l33.273,19.646l-19.692-33.228l17.661-17.661l43.488,43.488l-11.005,11.005
			l-33.165-33.165l24.684,41.646l-9.959,9.959l-41.629-24.701l33.162,33.165l-11.005,11.005L-207.604,699.67z"/>
		<path fill="#006E12" d="M-87.075,651.753l-15.256,15.256l5.059,9.299l-13.718,13.722l-27.142-59.831l14.654-14.658l59.828,27.145
			l-14.07,14.074L-87.075,651.753z M-99.264,645.139l-20.434-10.833l10.883,20.384L-99.264,645.139z"/>
		<path fill="#006E12" d="M-54.364,601.899l-9.048-9.048l20.766-20.765l18.538,18.542c-1.266,6.684-2.937,12.043-5.013,16.077
			c-2.077,4.034-5.213,8.146-9.404,12.34c-5.159,5.16-10.249,8.488-15.263,9.98c-5.013,1.493-10.151,1.396-15.423-0.297
			c-5.269-1.691-10.159-4.789-14.669-9.299c-4.747-4.747-7.894-9.854-9.445-15.322c-1.556-5.468-1.354-10.998,0.607-16.595
			c1.542-4.353,4.804-9.02,9.789-14.001c4.803-4.807,8.834-7.967,12.085-9.477c3.255-1.514,6.582-2.144,9.984-1.885
			c3.401,0.256,6.9,1.396,10.497,3.412L-61.01,580.84c-2.175-1.107-4.335-1.461-6.481-1.056c-2.146,0.406-4.206,1.598-6.185,3.576
			c-2.946,2.947-4.271,6.317-3.975,10.114c0.297,3.796,2.66,7.911,7.09,12.34c4.705,4.705,8.952,7.184,12.738,7.433
			c3.79,0.244,7.265-1.214,10.429-4.377c1.503-1.504,2.72-3.153,3.649-4.954c0.93-1.8,1.748-4.104,2.461-6.911l-4.094-4.094
			L-54.364,601.899z"/>
		<path fill="#006E12" d="M-53.385,545.452l36.011-36.014l9.284,9.284l-22.544,22.545l6.911,6.911l20.912-20.912l8.869,8.869
			l-20.912,20.912l8.575,8.575l23.194-23.198l9.848,9.848l-36.664,36.664L-53.385,545.452z"/>
		<path fill="#006E12" d="M11.308,480.755l13.47-13.466l43.484,43.484l-13.466,13.47L11.308,480.755z"/>
		<path fill="#006E12" d="M34.269,457.798l17.671-17.672l33.273,19.644l-19.691-33.228l17.66-17.661l43.488,43.488l-11.005,11.005
			L82.5,430.209l24.685,41.646l-9.96,9.96l-41.628-24.702l33.161,33.165l-11.005,11.005L34.269,457.798z"/>
		<path fill="#006E12" d="M154.798,409.881l-15.256,15.256l5.059,9.299l-13.718,13.721l-27.142-59.831l14.654-14.658l59.828,27.146
			l-14.071,14.074L154.798,409.881z M142.608,403.267l-20.433-10.834l10.882,20.385L142.608,403.267z"/>
		<path fill="#006E12" d="M187.508,360.026l-9.047-9.047l20.762-20.766l18.542,18.542c-1.266,6.685-2.937,12.043-5.013,16.077
			c-2.077,4.034-5.213,8.146-9.404,12.341c-5.159,5.159-10.25,8.487-15.263,9.98c-5.013,1.492-10.151,1.395-15.424-0.297
			c-5.268-1.692-10.159-4.79-14.668-9.299c-4.748-4.748-7.894-9.855-9.446-15.322c-1.556-5.468-1.353-10.998,0.604-16.595
			c1.546-4.353,4.808-9.02,9.792-14.001c4.804-4.807,8.834-7.967,12.086-9.478c3.254-1.514,6.582-2.143,9.983-1.884
			c3.401,0.255,6.901,1.395,10.498,3.412l-10.648,15.276c-2.174-1.108-4.334-1.461-6.48-1.056s-4.206,1.598-6.185,3.576
			c-2.947,2.947-4.272,6.316-3.975,10.113c0.297,3.797,2.66,7.911,7.09,12.34c4.705,4.709,8.952,7.185,12.738,7.433
			c3.79,0.245,7.265-1.213,10.425-4.377c1.503-1.503,2.72-3.153,3.649-4.953c0.93-1.801,1.752-4.104,2.461-6.911l-4.09-4.094
			L187.508,360.026z"/>
		<path fill="#006E12" d="M188.488,303.579l36.011-36.014l9.284,9.285l-22.544,22.544l6.911,6.912l20.912-20.912l8.868,8.868
			l-20.912,20.912l8.576,8.575l23.19-23.198l9.852,9.848l-36.664,36.665L188.488,303.579z"/>
		<path fill="#006E12" d="M253.181,238.882l13.47-13.466l43.48,43.484l-13.466,13.47L253.181,238.882z"/>
		<path fill="#006E12" d="M276.138,215.925l17.675-17.671l33.273,19.643l-19.691-33.228l17.66-17.661l43.484,43.488l-11.004,11.005
			l-33.162-33.165l24.681,41.646l-9.956,9.96L297.47,215.24l33.161,33.165l-11.005,11.005L276.138,215.925z"/>
		<path fill="#006E12" d="M396.671,168.008l-15.256,15.256l5.058,9.299l-13.717,13.721l-27.142-59.83l14.654-14.658l59.827,27.146
			l-14.074,14.073L396.671,168.008z M384.481,161.394l-20.437-10.833l10.886,20.384L384.481,161.394z"/>
		<path fill="#006E12" d="M429.381,118.154l-9.047-9.047l20.765-20.766l18.535,18.542c-1.266,6.684-2.937,12.043-5.013,16.077
			c-2.077,4.034-5.209,8.146-9.404,12.34c-5.16,5.16-10.246,8.488-15.259,9.981c-5.014,1.492-10.155,1.395-15.428-0.298
			c-5.265-1.691-10.158-4.789-14.668-9.299c-4.744-4.747-7.894-9.854-9.446-15.322c-1.552-5.467-1.349-10.998,0.608-16.595
			c1.546-4.352,4.804-9.019,9.788-14.001c4.808-4.807,8.838-7.967,12.089-9.477c3.251-1.514,6.579-2.144,9.984-1.885
			c3.397,0.256,6.9,1.396,10.498,3.412l-10.648,15.277c-2.178-1.108-4.339-1.462-6.481-1.056c-2.146,0.405-4.205,1.597-6.184,3.576
			c-2.947,2.946-4.272,6.316-3.979,10.113c0.301,3.796,2.664,7.911,7.09,12.34c4.708,4.709,8.956,7.184,12.742,7.433
			c3.785,0.244,7.261-1.214,10.428-4.377c1.503-1.503,2.72-3.153,3.649-4.954c0.93-1.8,1.748-4.104,2.461-6.911l-4.097-4.094
			L429.381,118.154z"/>
		<path fill="#006E12" d="M430.36,61.707l36.008-36.011l9.284,9.281l-22.541,22.545l6.911,6.911l20.912-20.912l8.869,8.869
			l-20.912,20.912l8.572,8.575l23.198-23.198l9.848,9.848l-36.664,36.664L430.36,61.707z"/>
		<path fill="#006E12" d="M495.054-2.99l13.466-13.466l43.488,43.484l-13.467,13.47L495.054-2.99z"/>
		<path fill="#006E12" d="M518.014-25.947l17.668-17.671l33.277,19.643l-19.692-33.228l17.661-17.661l43.488,43.488l-11.005,11.005
			l-33.169-33.165l24.688,41.646l-9.963,9.96l-41.628-24.698l33.165,33.161l-11.005,11.005L518.014-25.947z"/>
		<path fill="#006E12" d="M638.543-73.864l-15.256,15.256l5.059,9.299l-13.721,13.721L587.484-95.42l14.657-14.658l59.824,27.146
			l-14.067,14.074L638.543-73.864z M626.35-80.479l-20.43-10.834l10.883,20.385L626.35-80.479z"/>
		<path fill="#006E12" d="M671.25-123.719l-9.047-9.047l20.765-20.766l18.542,18.542c-1.266,6.685-2.937,12.043-5.013,16.077
			c-2.077,4.034-5.213,8.146-9.404,12.341c-5.159,5.16-10.249,8.487-15.263,9.98c-5.013,1.492-10.151,1.395-15.424-0.297
			c-5.271-1.692-10.158-4.79-14.668-9.299c-4.747-4.748-7.894-9.855-9.449-15.322c-1.552-5.468-1.35-10.998,0.608-16.595
			c1.542-4.353,4.807-9.02,9.792-14.001c4.803-4.807,8.83-7.967,12.085-9.478c3.254-1.514,6.582-2.143,9.98-1.884
			c3.405,0.255,6.9,1.395,10.501,3.412l-10.648,15.276c-2.174-1.108-4.334-1.461-6.48-1.056s-4.209,1.598-6.188,3.576
			c-2.944,2.947-4.269,6.317-3.972,10.113c0.294,3.797,2.657,7.911,7.09,12.341c4.705,4.708,8.952,7.184,12.738,7.432
			c3.79,0.248,7.265-1.213,10.425-4.377c1.503-1.503,2.72-3.153,3.649-4.953c0.93-1.801,1.752-4.104,2.461-6.911l-4.09-4.094
			L671.25-123.719z"/>
		<path fill="#006E12" d="M672.229-180.166l36.015-36.01l9.284,9.281l-22.544,22.545l6.911,6.911l20.912-20.912l8.869,8.869
			l-20.912,20.911l8.575,8.575l23.191-23.198l9.851,9.849l-36.664,36.664L672.229-180.166z"/>
		<path fill="#006E12" d="M736.926-244.862l13.47-13.467l43.481,43.485l-13.467,13.469L736.926-244.862z"/>
		<path fill="#006E12" d="M759.883-267.82l17.675-17.671l33.273,19.643l-19.691-33.228l17.66-17.661l43.485,43.488l-11.005,11.005
			l-33.162-33.165l24.681,41.646l-9.956,9.959l-41.628-24.698l33.161,33.162l-11.005,11.005L759.883-267.82z"/>
		<path fill="#006E12" d="M880.416-315.737l-15.256,15.256l5.059,9.299l-13.722,13.722l-27.142-59.831l14.658-14.658l59.827,27.145
			l-14.074,14.074L880.416-315.737z M868.226-322.352l-20.437-10.833l10.886,20.384L868.226-322.352z"/>
		<path fill="#006E12" d="M913.126-365.591l-9.047-9.048l20.765-20.765l18.535,18.542c-1.266,6.684-2.937,12.043-5.013,16.077
			c-2.077,4.034-5.209,8.146-9.404,12.34c-5.159,5.16-10.246,8.488-15.259,9.98c-5.014,1.493-10.155,1.396-15.428-0.297
			c-5.268-1.691-10.158-4.789-14.668-9.299c-4.744-4.747-7.894-9.854-9.445-15.322c-1.553-5.468-1.35-10.998,0.607-16.595
			c1.546-4.353,4.804-9.02,9.789-14.001c4.807-4.807,8.837-7.967,12.088-9.477c3.251-1.514,6.579-2.144,9.984-1.885
			c3.398,0.256,6.9,1.396,10.498,3.412l-10.648,15.276c-2.178-1.107-4.338-1.461-6.481-1.056c-2.146,0.406-4.205,1.598-6.184,3.576
			c-2.947,2.947-4.272,6.317-3.979,10.114c0.301,3.796,2.664,7.91,7.09,12.34c4.709,4.709,8.956,7.184,12.742,7.432
			c3.786,0.249,7.261-1.213,10.428-4.376c1.503-1.504,2.72-3.153,3.649-4.954c0.927-1.8,1.748-4.104,2.461-6.911l-4.097-4.094
			L913.126-365.591z"/>
		<path fill="#006E12" d="M914.105-422.038l36.008-36.011l9.284,9.281l-22.541,22.545l6.911,6.911l20.912-20.912l8.869,8.869
			l-20.912,20.912l8.572,8.575l23.198-23.198l9.848,9.848l-36.664,36.664L914.105-422.038z"/>
	</g>
	<g opacity="0.15">
		<path fill="#006E12" d="M-510.405,1154.345l13.47-13.466l43.484,43.484l-13.466,13.466L-510.405,1154.345z"/>
		<path fill="#006E12" d="M-487.445,1131.384l17.672-17.672l33.273,19.647l-19.692-33.229l17.661-17.66l43.488,43.487
			l-11.009,11.005l-33.161-33.165l24.684,41.643l-9.963,9.963l-41.625-24.701l33.162,33.165l-11.005,11.005L-487.445,1131.384z"/>
		<path fill="#006E12" d="M-366.916,1083.47l-15.256,15.256l5.059,9.299l-13.721,13.722l-27.142-59.831l14.658-14.658l59.827,27.145
			l-14.07,14.071L-366.916,1083.47z M-379.105,1076.855l-20.434-10.833l10.883,20.384L-379.105,1076.855z"/>
		<path fill="#006E12" d="M-334.205,1033.616l-9.048-9.048l20.766-20.765l18.538,18.538c-1.266,6.685-2.937,12.047-5.013,16.081
			c-2.076,4.03-5.212,8.146-9.404,12.337c-5.159,5.163-10.249,8.491-15.263,9.984c-5.013,1.492-10.155,1.391-15.423-0.298
			c-5.272-1.691-10.159-4.793-14.669-9.299c-4.747-4.747-7.896-9.854-9.449-15.322c-1.552-5.468-1.35-11.001,0.608-16.595
			c1.545-4.352,4.807-9.019,9.792-14.004c4.803-4.804,8.834-7.964,12.085-9.478c3.255-1.51,6.582-2.14,9.984-1.881
			c3.401,0.256,6.9,1.392,10.497,3.409l-10.647,15.276c-2.175-1.104-4.335-1.458-6.481-1.052c-2.146,0.405-4.206,1.597-6.185,3.576
			c-2.946,2.943-4.271,6.316-3.975,10.113c0.297,3.796,2.66,7.911,7.09,12.34c4.705,4.705,8.953,7.184,12.738,7.433
			c3.79,0.244,7.265-1.214,10.429-4.377c1.503-1.503,2.72-3.153,3.649-4.954c0.927-1.8,1.748-4.104,2.461-6.911l-4.094-4.094
			L-334.205,1033.616z"/>
		<path fill="#006E12" d="M-333.226,977.165l36.011-36.01l9.285,9.284l-22.545,22.545l6.911,6.911l20.912-20.912l8.869,8.869
			l-20.912,20.912l8.571,8.571l23.198-23.194l9.848,9.848l-36.664,36.664L-333.226,977.165z"/>
		<path fill="#006E12" d="M-268.533,912.472l13.47-13.466l43.484,43.484l-13.466,13.466L-268.533,912.472z"/>
		<path fill="#006E12" d="M-245.572,889.511l17.672-17.671l33.272,19.646l-19.691-33.228l17.661-17.661l43.484,43.488
			l-11.005,11.005l-33.162-33.165l24.685,41.643l-9.963,9.963l-41.625-24.702l33.161,33.165l-11.005,11.005L-245.572,889.511z"/>
		<path fill="#006E12" d="M-125.043,841.598l-15.256,15.256l5.059,9.299l-13.722,13.721l-27.142-59.831l14.658-14.658l59.828,27.146
			l-14.071,14.07L-125.043,841.598z M-137.233,834.983l-20.433-10.834l10.882,20.385L-137.233,834.983z"/>
		<path fill="#006E12" d="M-92.333,791.743l-9.047-9.047l20.762-20.766l18.542,18.539c-1.266,6.688-2.937,12.046-5.014,16.08
			c-2.076,4.034-5.212,8.146-9.403,12.337c-5.16,5.164-10.25,8.491-15.263,9.984c-5.013,1.492-10.155,1.395-15.424-0.297
			c-5.271-1.692-10.159-4.793-14.668-9.299c-4.748-4.748-7.897-9.855-9.449-15.322c-1.553-5.468-1.35-11.002,0.608-16.595
			c1.545-4.353,4.807-9.02,9.788-14.005c4.807-4.803,8.837-7.963,12.088-9.477c3.255-1.511,6.583-2.14,9.984-1.881
			c3.401,0.255,6.9,1.391,10.498,3.408l-10.648,15.276c-2.174-1.104-4.335-1.457-6.481-1.052s-4.205,1.598-6.184,3.576
			c-2.947,2.943-4.272,6.317-3.975,10.113c0.297,3.797,2.66,7.911,7.089,12.341c4.706,4.705,8.953,7.184,12.739,7.432
			c3.789,0.245,7.265-1.213,10.428-4.377c1.504-1.503,2.72-3.153,3.649-4.953c0.927-1.801,1.748-4.104,2.462-6.911l-4.094-4.094
			L-92.333,791.743z"/>
		<path fill="#006E12" d="M-91.353,735.293l36.01-36.011l9.285,9.285l-22.545,22.544l6.912,6.912l20.911-20.912l8.869,8.869
			l-20.912,20.911l8.572,8.572l23.198-23.195l9.848,9.849l-36.664,36.664L-91.353,735.293z"/>
		<path fill="#006E12" d="M-26.66,670.599l13.47-13.466l43.484,43.485l-13.466,13.466L-26.66,670.599z"/>
		<path fill="#006E12" d="M-3.699,647.639l17.671-17.672l33.273,19.646l-19.692-33.228l17.661-17.661l43.484,43.488l-11.005,11.005
			l-33.161-33.165l24.684,41.643l-9.963,9.963l-41.625-24.701l33.162,33.165l-11.005,11.005L-3.699,647.639z"/>
		<path fill="#006E12" d="M116.829,599.725l-15.256,15.256l5.059,9.299l-13.721,13.722L65.77,578.17l14.658-14.658l59.827,27.145
			l-14.07,14.071L116.829,599.725z M104.64,593.11l-20.434-10.833l10.883,20.384L104.64,593.11z"/>
		<path fill="#006E12" d="M149.54,549.871l-9.048-9.048l20.762-20.765l18.543,18.542c-1.266,6.684-2.937,12.043-5.014,16.077
			c-2.076,4.034-5.212,8.146-9.403,12.337c-5.164,5.163-10.25,8.491-15.264,9.983c-5.013,1.493-10.155,1.396-15.423-0.297
			c-5.272-1.691-10.159-4.793-14.669-9.299c-4.747-4.747-7.896-9.854-9.449-15.322c-1.552-5.468-1.35-11.001,0.608-16.595
			c1.545-4.353,4.807-9.02,9.788-14.001c4.807-4.807,8.838-7.967,12.089-9.48c3.255-1.51,6.583-2.14,9.984-1.881
			c3.397,0.256,6.9,1.392,10.498,3.408l-10.648,15.277c-2.175-1.104-4.335-1.458-6.481-1.053c-2.146,0.406-4.205,1.598-6.185,3.576
			c-2.946,2.944-4.271,6.317-3.975,10.114c0.298,3.796,2.66,7.91,7.09,12.34c4.705,4.705,8.953,7.184,12.738,7.432
			c3.79,0.245,7.265-1.213,10.429-4.376c1.503-1.504,2.72-3.153,3.649-4.954c0.927-1.8,1.748-4.104,2.461-6.911l-4.094-4.094
			L149.54,549.871z"/>
		<path fill="#006E12" d="M150.519,493.42l36.011-36.01l9.281,9.284l-22.541,22.545l6.911,6.911l20.912-20.912l8.869,8.869
			L189.05,505.02l8.572,8.571l23.198-23.194l9.844,9.848l-36.66,36.664L150.519,493.42z"/>
		<path fill="#006E12" d="M215.213,428.727l13.466-13.466l43.488,43.484l-13.466,13.466L215.213,428.727z"/>
		<path fill="#006E12" d="M238.173,405.766l17.668-17.671l33.277,19.646l-19.692-33.228l17.661-17.661l43.484,43.488l-11.005,11.005
			l-33.165-33.165l24.688,41.642l-9.963,9.964l-41.628-24.702l33.165,33.165l-11.005,11.005L238.173,405.766z"/>
		<path fill="#006E12" d="M358.702,357.853l-15.256,15.255l5.059,9.3l-13.721,13.721l-27.142-59.831l14.657-14.658l59.824,27.146
			l-14.067,14.07L358.702,357.853z M346.509,351.238l-20.43-10.834l10.879,20.385L346.509,351.238z"/>
		<path fill="#006E12" d="M391.409,307.998l-9.047-9.047l20.765-20.766l18.542,18.542c-1.266,6.685-2.937,12.043-5.013,16.077
			c-2.077,4.034-5.213,8.146-9.404,12.337c-5.163,5.163-10.249,8.491-15.263,9.984c-5.013,1.492-10.155,1.395-15.423-0.297
			c-5.272-1.692-10.159-4.79-14.669-9.3c-4.747-4.747-7.897-9.854-9.449-15.321c-1.552-5.468-1.35-11.002,0.608-16.595
			c1.542-4.353,4.807-9.02,9.788-14.001c4.807-4.807,8.834-7.967,12.089-9.48c3.255-1.511,6.582-2.14,9.98-1.881
			c3.401,0.255,6.9,1.391,10.501,3.408l-10.647,15.276c-2.175-1.104-4.335-1.457-6.481-1.052s-4.209,1.598-6.188,3.576
			c-2.943,2.947-4.272,6.316-3.972,10.113c0.294,3.797,2.657,7.911,7.09,12.34c4.705,4.706,8.949,7.185,12.738,7.433
			c3.79,0.244,7.265-1.213,10.425-4.377c1.503-1.503,2.72-3.153,3.649-4.953c0.93-1.801,1.752-4.104,2.461-6.911l-4.09-4.094
			L391.409,307.998z"/>
		<path fill="#006E12" d="M392.388,251.548l36.015-36.011l9.284,9.285l-22.548,22.544l6.915,6.912l20.912-20.912l8.869,8.868
			l-20.912,20.912l8.571,8.572l23.195-23.195l9.851,9.848l-36.664,36.665L392.388,251.548z"/>
		<path fill="#006E12" d="M457.085,186.854l13.466-13.466l43.485,43.484l-13.466,13.467L457.085,186.854z"/>
		<path fill="#006E12" d="M480.042,163.894l17.675-17.672l33.273,19.646l-19.691-33.228l17.657-17.661l43.488,43.488l-11.005,11.005
			l-33.162-33.165l24.681,41.643l-9.959,9.963l-41.625-24.701l33.161,33.165l-11.005,11.005L480.042,163.894z"/>
		<path fill="#006E12" d="M600.572,115.979l-15.256,15.256l5.063,9.299l-13.722,13.722l-27.142-59.831l14.658-14.658L624,106.911
			l-14.074,14.071L600.572,115.979z M588.382,109.365l-20.434-10.833l10.886,20.384L588.382,109.365z"/>
		<path fill="#006E12" d="M633.285,66.126l-9.047-9.048L645,36.313l18.538,18.542c-1.266,6.684-2.937,12.043-5.013,16.077
			c-2.077,4.034-5.209,8.146-9.404,12.337c-5.159,5.163-10.246,8.491-15.259,9.983c-5.013,1.493-10.155,1.396-15.427-0.297
			c-5.269-1.691-10.159-4.789-14.669-9.299c-4.744-4.747-7.894-9.854-9.445-15.322c-1.553-5.467-1.35-10.998,0.607-16.595
			c1.542-4.353,4.804-9.019,9.789-14.001c4.803-4.807,8.837-7.967,12.088-9.477c3.251-1.514,6.579-2.144,9.98-1.885
			c3.402,0.256,6.904,1.396,10.502,3.412l-10.651,15.273c-2.175-1.104-4.335-1.458-6.481-1.053
			c-2.144,0.406-4.206,1.598-6.181,3.577c-2.951,2.946-4.272,6.316-3.979,10.113c0.301,3.796,2.664,7.911,7.09,12.34
			c4.709,4.705,8.956,7.184,12.742,7.433c3.786,0.244,7.261-1.214,10.428-4.377c1.503-1.503,2.72-3.153,3.646-4.954
			c0.93-1.8,1.751-4.104,2.465-6.911l-4.098-4.094L633.285,66.126z"/>
		<path fill="#006E12" d="M634.264,9.675l36.008-36.01l9.284,9.284L657.015,5.494l6.908,6.911l20.915-20.912l8.869,8.869
			l-20.912,20.912l8.572,8.571l23.198-23.194l9.844,9.848l-36.66,36.664L634.264,9.675z"/>
		<path fill="#006E12" d="M698.958-55.019l13.466-13.466L755.912-25l-13.466,13.47L698.958-55.019z"/>
		<path fill="#006E12" d="M721.918-77.979l17.668-17.671l33.277,19.646l-19.692-33.228l17.661-17.661l43.484,43.488l-11.005,11.005
			l-33.165-33.165l24.688,41.642l-9.963,9.964l-41.628-24.702l33.165,33.165l-11.005,11.005L721.918-77.979z"/>
		<path fill="#006E12" d="M842.448-125.893l-15.256,15.256l5.059,9.299L818.53-87.617l-27.142-59.831l14.658-14.658l59.823,27.146
			l-14.066,14.07L842.448-125.893z M830.254-132.507l-20.43-10.834l10.879,20.385L830.254-132.507z"/>
		<path fill="#006E12" d="M875.155-175.747l-9.047-9.047l20.765-20.766l18.542,18.542c-1.266,6.685-2.937,12.043-5.013,16.077
			s-5.212,8.146-9.403,12.337c-5.164,5.163-10.25,8.491-15.264,9.984c-5.013,1.492-10.155,1.395-15.423-0.297
			c-5.272-1.692-10.159-4.79-14.669-9.299c-4.747-4.748-7.896-9.855-9.449-15.322c-1.552-5.468-1.35-10.998,0.608-16.595
			c1.542-4.353,4.807-9.02,9.788-14.001c4.807-4.807,8.834-7.967,12.089-9.478c3.255-1.514,6.579-2.143,9.98-1.884
			c3.401,0.255,6.9,1.395,10.501,3.412l-10.647,15.272c-2.175-1.104-4.335-1.457-6.481-1.052s-4.209,1.598-6.188,3.576
			c-2.943,2.947-4.272,6.317-3.972,10.113c0.294,3.797,2.657,7.911,7.09,12.341c4.705,4.705,8.949,7.184,12.738,7.432
			c3.786,0.245,7.265-1.213,10.425-4.377c1.503-1.503,2.72-3.153,3.649-4.953c0.931-1.801,1.752-4.104,2.462-6.911l-4.091-4.094
			L875.155-175.747z"/>
		<path fill="#006E12" d="M876.133-232.194l36.015-36.014l9.285,9.285l-22.549,22.545l6.915,6.911l20.912-20.912l8.869,8.868
			l-20.912,20.912l8.571,8.575l23.195-23.198l9.851,9.848l-36.664,36.665L876.133-232.194z"/>
		<path fill="#006E12" d="M940.83-296.892l13.467-13.466l43.484,43.485l-13.466,13.469L940.83-296.892z"/>
		<path fill="#006E12" d="M963.787-319.849l17.676-17.675l33.272,19.646l-19.695-33.228l17.661-17.661l43.488,43.488l-11.005,11.005
			l-33.161-33.165l24.68,41.643l-9.959,9.963l-41.625-24.701l33.161,33.165l-11.005,11.005L963.787-319.849z"/>
		<path fill="#006E12" d="M1084.317-367.766l-15.256,15.256l5.063,9.299l-13.722,13.722l-27.142-59.831l14.658-14.658l59.828,27.145
			l-14.074,14.071L1084.317-367.766z M1072.127-374.38l-20.434-10.833l10.887,20.384L1072.127-374.38z"/>
		<path fill="#006E12" d="M1117.031-417.619l-9.047-9.048l20.762-20.765l18.538,18.542c-1.266,6.684-2.937,12.043-5.013,16.077
			s-5.209,8.146-9.404,12.34c-5.159,5.16-10.246,8.488-15.259,9.98c-5.013,1.493-10.155,1.396-15.427-0.297
			c-5.269-1.692-10.159-4.789-14.669-9.299c-4.744-4.747-7.894-9.854-9.445-15.322c-1.553-5.468-1.35-10.998,0.608-16.595
			c1.541-4.353,4.803-9.02,9.788-14.001c4.803-4.807,8.837-7.967,12.088-9.477c3.252-1.514,6.58-2.144,9.981-1.885
			c3.401,0.256,6.904,1.396,10.501,3.412l-10.651,15.273c-2.175-1.104-4.335-1.458-6.481-1.053
			c-2.143,0.406-4.206,1.598-6.181,3.576c-2.95,2.947-4.272,6.317-3.979,10.114c0.301,3.796,2.664,7.91,7.09,12.34
			c4.705,4.705,8.956,7.184,12.742,7.432c3.786,0.245,7.261-1.213,10.428-4.376c1.504-1.504,2.72-3.153,3.646-4.954
			c0.93-1.8,1.751-4.104,2.465-6.911l-4.098-4.094L1117.031-417.619z"/>
		<path fill="#006E12" d="M1118.01-474.066l36.007-36.014l9.285,9.284l-22.542,22.545l6.908,6.911l20.916-20.912l8.868,8.869
			l-20.912,20.912l8.572,8.575l23.198-23.198l9.844,9.848l-36.66,36.664L1118.01-474.066z"/>
	</g>
</g>
</svg>
