<?xml version="1.0" encoding="utf-8"?>
<!-- Generator: Adobe Illustrator 15.0.2, SVG Export Plug-In . SVG Version: 6.00 Build 0)  -->
<!DOCTYPE svg PUBLIC "-//W3C//DTD SVG 1.1//EN" "http://www.w3.org/Graphics/SVG/1.1/DTD/svg11.dtd">
<svg version="1.1" id="Calque_1" xmlns="http://www.w3.org/2000/svg" xmlns:xlink="http://www.w3.org/1999/xlink" x="0px" y="0px"
	 width="628px" height="307px" viewBox="0 0 628 307" enable-background="new 0 0 628 307" xml:space="preserve">
<rect x="0.469" y="0.469" fill="#FFF5F5" width="627.063" height="306.063"/>
<g>
	<g opacity="0.15">
		<path fill="#006E12" d="M-577.185,622.251l13.466-13.466l43.487,43.484l-13.466,13.467L-577.185,622.251z"/>
		<path fill="#006E12" d="M-554.225,599.291l17.672-17.672l33.273,19.646l-19.692-33.228l17.661-17.661l43.484,43.484
			l-11.005,11.009l-33.161-33.165l24.684,41.643l-9.963,9.963l-41.625-24.701l33.161,33.165l-11.005,11.005L-554.225,599.291z"/>
		<path fill="#006E12" d="M-433.696,551.377l-15.256,15.256l5.059,9.299l-13.722,13.721l-27.142-59.831l14.658-14.657l59.828,27.145
			l-14.071,14.071L-433.696,551.377z M-445.889,544.763l-20.43-10.833l10.883,20.38L-445.889,544.763z"/>
		<path fill="#006E12" d="M-400.986,501.523l-9.047-9.048l20.762-20.765l18.542,18.538c-1.266,6.684-2.937,12.043-5.013,16.077
			c-2.077,4.034-5.213,8.148-9.404,12.341c-5.163,5.163-10.25,8.491-15.263,9.983c-5.013,1.493-10.155,1.392-15.424-0.297
			c-5.271-1.692-10.158-4.793-14.668-9.299c-4.747-4.747-7.897-9.854-9.449-15.322c-1.553-5.468-1.35-11.001,0.608-16.599
			c1.541-4.349,4.807-9.016,9.788-14c4.807-4.804,8.837-7.964,12.089-9.478c3.254-1.51,6.579-2.14,9.98-1.881
			c3.401,0.255,6.904,1.392,10.501,3.408l-10.648,15.277c-2.174-1.108-4.334-1.458-6.48-1.053c-2.146,0.406-4.209,1.598-6.185,3.576
			c-2.947,2.943-4.271,6.317-3.975,10.113c0.297,3.797,2.66,7.911,7.09,12.341c4.705,4.705,8.952,7.184,12.738,7.429
			c3.786,0.248,7.265-1.21,10.428-4.373c1.504-1.504,2.72-3.153,3.646-4.954c0.93-1.8,1.751-4.104,2.465-6.911l-4.094-4.094
			L-400.986,501.523z"/>
		<path fill="#006E12" d="M-400.007,445.072l36.01-36.011l9.285,9.285l-22.544,22.545l6.911,6.911l20.912-20.912l8.868,8.869
			l-20.912,20.912l8.572,8.571l23.198-23.194l9.848,9.848l-36.664,36.664L-400.007,445.072z"/>
		<path fill="#006E12" d="M-335.313,380.379l13.466-13.466l43.488,43.484l-13.466,13.466L-335.313,380.379z"/>
		<path fill="#006E12" d="M-312.352,357.418l17.671-17.671l33.273,19.646l-19.692-33.229l17.661-17.66l43.484,43.487l-11.005,11.005
			l-33.161-33.164l24.685,41.642l-9.964,9.963l-41.624-24.701l33.161,33.165l-11.005,11.005L-312.352,357.418z"/>
		<path fill="#006E12" d="M-191.824,309.504l-15.255,15.256l5.058,9.299l-13.721,13.722l-27.142-59.831l14.658-14.658l59.827,27.146
			l-14.07,14.07L-191.824,309.504z M-204.017,302.891l-20.429-10.834l10.882,20.381L-204.017,302.891z"/>
		<path fill="#006E12" d="M-159.113,259.65l-9.047-9.047l20.762-20.766l18.541,18.538c-1.265,6.685-2.936,12.044-5.013,16.078
			c-2.076,4.034-5.212,8.148-9.403,12.34c-5.164,5.163-10.25,8.491-15.263,9.984c-5.014,1.492-10.155,1.391-15.424-0.298
			c-5.271-1.691-10.159-4.792-14.669-9.299c-4.747-4.747-7.896-9.854-9.449-15.322c-1.552-5.467-1.349-11.001,0.608-16.598
			c1.542-4.349,4.807-9.016,9.788-14.001c4.808-4.803,8.838-7.964,12.089-9.478c3.255-1.51,6.579-2.139,9.98-1.88
			c3.401,0.255,6.904,1.391,10.502,3.408l-10.648,15.276c-2.175-1.108-4.335-1.458-6.481-1.052
			c-2.146,0.405-4.209,1.598-6.184,3.576c-2.947,2.943-4.272,6.316-3.976,10.113c0.298,3.796,2.661,7.911,7.09,12.34
			c4.705,4.706,8.953,7.185,12.739,7.429c3.785,0.248,7.264-1.209,10.428-4.373c1.503-1.503,2.72-3.153,3.646-4.953
			c0.93-1.801,1.751-4.104,2.464-6.912l-4.094-4.093L-159.113,259.65z"/>
		<path fill="#006E12" d="M-158.135,203.2l36.011-36.011l9.285,9.285l-22.545,22.544l6.911,6.911l20.912-20.911l8.869,8.868
			l-20.912,20.912l8.571,8.572l23.199-23.195l9.848,9.848l-36.665,36.664L-158.135,203.2z"/>
		<path fill="#006E12" d="M-93.44,138.506l13.466-13.466l43.488,43.484l-13.467,13.466L-93.44,138.506z"/>
		<path fill="#006E12" d="M-70.48,115.546l17.672-17.672l33.273,19.646l-19.692-33.228l17.661-17.661l43.484,43.488l-11.005,11.005
			L-22.248,87.96l24.684,41.643l-9.963,9.963l-41.625-24.701l33.161,33.164l-11.005,11.005L-70.48,115.546z"/>
		<path fill="#006E12" d="M50.049,67.632L34.793,82.888l5.059,9.299l-13.721,13.722L-1.01,46.077l14.657-14.658l59.828,27.145
			L59.404,72.635L50.049,67.632z M37.856,61.018l-20.43-10.833l10.883,20.381L37.856,61.018z"/>
		<path fill="#006E12" d="M82.76,17.778L73.712,8.73l20.762-20.765l18.542,18.538c-1.266,6.685-2.937,12.043-5.013,16.077
			c-2.077,4.034-5.213,8.149-9.404,12.341c-5.163,5.163-10.249,8.491-15.263,9.983c-5.013,1.493-10.155,1.392-15.424-0.297
			c-5.271-1.691-10.158-4.793-14.668-9.299c-4.747-4.747-7.897-9.854-9.449-15.322s-1.35-11.001,0.608-16.595
			c1.541-4.353,4.807-9.02,9.788-14.004c4.807-4.804,8.838-7.964,12.089-9.478c3.254-1.51,6.579-2.14,9.98-1.881
			c3.401,0.256,6.904,1.392,10.501,3.408L76.114-3.284c-2.174-1.104-4.334-1.458-6.48-1.053c-2.146,0.406-4.209,1.598-6.185,3.576
			c-2.947,2.944-4.271,6.317-3.975,10.114c0.297,3.796,2.66,7.911,7.09,12.34c4.705,4.705,8.952,7.184,12.738,7.429
			c3.786,0.248,7.265-1.21,10.428-4.373c1.504-1.504,2.721-3.153,3.646-4.954c0.93-1.8,1.752-4.104,2.465-6.911L91.747,8.79
			L82.76,17.778z"/>
		<path fill="#006E12" d="M83.739-38.673l36.011-36.01l9.284,9.284L106.49-42.854l6.911,6.911l20.912-20.912l8.868,8.869
			L122.27-27.073l8.571,8.571l23.198-23.194l9.848,9.848L127.223,4.815L83.739-38.673z"/>
		<path fill="#006E12" d="M148.432-103.366l13.466-13.466l43.488,43.484L191.92-59.882L148.432-103.366z"/>
		<path fill="#006E12" d="M171.393-126.327l17.671-17.671l33.273,19.646l-19.691-33.228l17.66-17.661l43.485,43.488l-11.005,11.005
			l-33.162-33.165l24.685,41.642l-9.963,9.964l-41.625-24.702l33.161,33.165l-11.005,11.005L171.393-126.327z"/>
		<path fill="#006E12" d="M291.922-174.24l-15.256,15.256l5.059,9.299l-13.722,13.721l-27.142-59.831l14.658-14.658l59.827,27.146
			l-14.07,14.07L291.922-174.24z M279.729-180.854l-20.43-10.834l10.882,20.385L279.729-180.854z"/>
		<path fill="#006E12" d="M324.632-224.095l-9.047-9.047l20.762-20.766l18.542,18.539c-1.266,6.684-2.937,12.046-5.014,16.08
			c-2.076,4.034-5.212,8.146-9.403,12.337c-5.163,5.163-10.25,8.491-15.263,9.984c-5.014,1.492-10.155,1.392-15.424-0.297
			c-5.271-1.692-10.159-4.793-14.669-9.3c-4.747-4.747-7.896-9.854-9.449-15.321c-1.552-5.468-1.349-11.002,0.608-16.595
			c1.542-4.353,4.807-9.02,9.789-14.005c4.807-4.803,8.837-7.963,12.088-9.477c3.255-1.511,6.579-2.14,9.98-1.881
			c3.401,0.255,6.904,1.391,10.502,3.408l-10.648,15.276c-2.175-1.104-4.335-1.457-6.481-1.052s-4.209,1.598-6.184,3.576
			c-2.947,2.943-4.272,6.316-3.975,10.113c0.297,3.797,2.66,7.911,7.089,12.34c4.706,4.706,8.953,7.185,12.739,7.433
			c3.786,0.245,7.264-1.213,10.428-4.377c1.503-1.503,2.72-3.153,3.646-4.953c0.93-1.801,1.751-4.104,2.464-6.911l-4.093-4.094
			L324.632-224.095z"/>
		<path fill="#006E12" d="M325.611-280.545l36.011-36.011l9.285,9.285l-22.545,22.544l6.911,6.912l20.913-20.912l8.868,8.868
			l-20.912,20.912l8.572,8.572l23.194-23.195l9.852,9.848l-36.664,36.665L325.611-280.545z"/>
		<path fill="#006E12" d="M390.305-345.239l13.466-13.466l43.484,43.484l-13.466,13.467L390.305-345.239z"/>
		<path fill="#006E12" d="M413.262-368.199l17.675-17.672l33.273,19.646l-19.695-33.228l17.661-17.661l43.487,43.488l-11.005,11.005
			l-33.161-33.165l24.681,41.643l-9.96,9.963l-41.624-24.701l33.161,33.165l-11.005,11.005L413.262-368.199z"/>
		<path fill="#006E12" d="M533.791-416.113l-15.256,15.256l5.062,9.299l-13.721,13.721l-27.142-59.831l14.658-14.657l59.827,27.145
			l-14.074,14.071L533.791-416.113z M521.601-422.728l-20.433-10.833l10.886,20.384L521.601-422.728z"/>
		<path fill="#006E12" d="M566.505-465.967l-9.047-9.048l20.762-20.765l18.538,18.538c-1.266,6.688-2.937,12.047-5.014,16.081
			c-2.076,4.034-5.208,8.145-9.403,12.337c-5.16,5.163-10.25,8.491-15.263,9.983c-5.013,1.493-10.152,1.396-15.424-0.297
			c-5.268-1.692-10.158-4.793-14.668-9.299c-4.744-4.747-7.894-9.854-9.446-15.322c-1.552-5.468-1.349-11.001,0.608-16.595
			c1.542-4.353,4.804-9.02,9.788-14.004c4.804-4.804,8.838-7.964,12.089-9.478c3.251-1.51,6.579-2.14,9.98-1.881
			c3.401,0.255,6.904,1.392,10.502,3.408l-10.652,15.277c-2.174-1.104-4.335-1.458-6.481-1.053
			c-2.143,0.405-4.205,1.598-6.181,3.576c-2.95,2.943-4.271,6.317-3.978,10.113c0.301,3.797,2.663,7.911,7.089,12.341
			c4.706,4.705,8.957,7.184,12.739,7.432c3.789,0.245,7.265-1.213,10.432-4.376c1.503-1.504,2.716-3.153,3.646-4.954
			c0.931-1.8,1.752-4.104,2.465-6.911l-4.097-4.094L566.505-465.967z"/>
		<path fill="#006E12" d="M567.484-522.418l36.007-36.011l9.285,9.285l-22.541,22.545l6.908,6.911l20.912-20.912l8.872,8.869
			l-20.912,20.912l8.571,8.571l23.198-23.194l9.845,9.848l-36.664,36.664L567.484-522.418z"/>
		<path fill="#006E12" d="M632.178-587.111l13.466-13.466l43.487,43.484l-13.469,13.466L632.178-587.111z"/>
		<path fill="#006E12" d="M655.138-610.072l17.668-17.671l33.277,19.646l-19.692-33.229l17.661-17.66l43.484,43.487l-11.005,11.005
			l-33.165-33.164l24.688,41.642l-9.963,9.963l-41.628-24.701l33.164,33.165l-11.008,11.005L655.138-610.072z"/>
		<path fill="#006E12" d="M775.667-657.986l-15.256,15.256l5.055,9.299l-13.718,13.722l-27.141-59.831l14.654-14.658l59.827,27.146
			l-14.07,14.07L775.667-657.986z M763.474-664.6l-20.43-10.834l10.879,20.384L763.474-664.6z"/>
		<path fill="#006E12" d="M808.374-707.84l-9.047-9.047l20.765-20.766l18.542,18.542c-1.266,6.684-2.937,12.043-5.013,16.077
			c-2.077,4.034-5.216,8.146-9.404,12.337c-5.163,5.163-10.25,8.491-15.263,9.984c-5.013,1.492-10.155,1.395-15.424-0.298
			c-5.271-1.691-10.162-4.792-14.668-9.299c-4.747-4.747-7.897-9.854-9.449-15.322c-1.553-5.467-1.35-11.001,0.608-16.595
			c1.541-4.352,4.807-9.019,9.788-14c4.807-4.807,8.834-7.968,12.085-9.481c3.258-1.51,6.583-2.139,9.984-1.88
			c3.401,0.255,6.9,1.391,10.501,3.408l-10.648,15.276c-2.174-1.104-4.334-1.458-6.48-1.052c-2.146,0.405-4.209,1.598-6.188,3.576
			c-2.943,2.943-4.271,6.316-3.971,10.113c0.294,3.796,2.656,7.911,7.09,12.34c4.705,4.706,8.949,7.185,12.738,7.433
			c3.786,0.244,7.265-1.213,10.425-4.377c1.503-1.503,2.72-3.153,3.649-4.953c0.93-1.801,1.748-4.104,2.461-6.912l-4.09-4.093
			L808.374-707.84z"/>
		<path fill="#006E12" d="M809.353-764.29l36.015-36.011l9.284,9.285l-22.548,22.544l6.915,6.911l20.912-20.912l8.868,8.869
			l-20.915,20.912l8.575,8.572l23.194-23.195l9.852,9.848l-36.664,36.664L809.353-764.29z"/>
	</g>
	<g opacity="0.15">
		<path fill="#006E12" d="M-615.154,812.096l13.466-13.47l43.488,43.488l-13.47,13.466L-615.154,812.096z"/>
		<path fill="#006E12" d="M-592.193,789.135l17.671-17.671l33.273,19.643l-19.691-33.224l17.66-17.661l43.485,43.484l-11.005,11.005
			l-33.162-33.161l24.681,41.642l-9.96,9.96l-41.624-24.698l33.161,33.162l-11.005,11.008L-592.193,789.135z"/>
		<path fill="#006E12" d="M-471.664,741.222l-15.256,15.255l5.058,9.3l-13.721,13.717l-27.142-59.827l14.658-14.658l59.827,27.146
			l-14.074,14.07L-471.664,741.222z M-483.858,734.607l-20.429-10.834l10.882,20.381L-483.858,734.607z"/>
		<path fill="#006E12" d="M-438.954,691.367l-9.047-9.047l20.762-20.766l18.542,18.539c-1.27,6.684-2.94,12.043-5.014,16.077
			c-2.076,4.034-5.212,8.148-9.403,12.34c-5.163,5.163-10.25,8.488-15.263,9.98c-5.014,1.493-10.155,1.396-15.424-0.294
			c-5.271-1.691-10.162-4.792-14.669-9.302c-4.747-4.744-7.896-9.852-9.449-15.319c-1.552-5.467-1.349-11.001,0.608-16.598
			c1.542-4.349,4.807-9.016,9.789-14.001c4.807-4.803,8.833-7.963,12.088-9.477s6.579-2.14,9.98-1.885
			c3.401,0.259,6.904,1.395,10.502,3.412l-10.648,15.276c-2.175-1.107-4.335-1.457-6.481-1.052s-4.209,1.598-6.184,3.572
			c-2.947,2.947-4.272,6.32-3.976,10.117c0.294,3.797,2.657,7.911,7.09,12.34c4.705,4.706,8.953,7.185,12.739,7.429
			c3.786,0.248,7.261-1.209,10.428-4.373c1.503-1.503,2.716-3.156,3.646-4.953c0.93-1.801,1.751-4.104,2.464-6.912l-4.094-4.093
			L-438.954,691.367z"/>
		<path fill="#006E12" d="M-437.975,634.917l36.011-36.011l9.285,9.285l-22.545,22.544l6.911,6.911l20.912-20.911l8.869,8.868
			l-20.912,20.912l8.572,8.572l23.198-23.195l9.848,9.848l-36.664,36.664L-437.975,634.917z"/>
		<path fill="#006E12" d="M-373.281,570.223l13.466-13.469l43.488,43.487l-13.47,13.467L-373.281,570.223z"/>
		<path fill="#006E12" d="M-350.321,547.263l17.672-17.672l33.273,19.644l-19.692-33.225l17.661-17.661l43.484,43.484
			l-11.005,11.005l-33.161-33.161l24.681,41.643l-9.96,9.959l-41.628-24.697l33.165,33.161l-11.005,11.008L-350.321,547.263z"/>
		<path fill="#006E12" d="M-229.792,499.349l-15.256,15.256l5.059,9.299l-13.721,13.718l-27.142-59.828l14.657-14.657l59.828,27.145
			l-14.074,14.071L-229.792,499.349z M-241.985,492.734l-20.43-10.833l10.883,20.38L-241.985,492.734z"/>
		<path fill="#006E12" d="M-197.081,449.495l-9.048-9.048l20.762-20.765l18.542,18.538c-1.269,6.684-2.939,12.043-5.013,16.077
			c-2.077,4.034-5.213,8.148-9.404,12.341c-5.163,5.163-10.249,8.487-15.263,9.98c-5.013,1.496-10.155,1.395-15.424-0.294
			c-5.271-1.692-10.162-4.793-14.668-9.303c-4.747-4.743-7.897-9.851-9.449-15.318s-1.35-11.001,0.608-16.599
			c1.542-4.349,4.807-9.016,9.788-14c4.807-4.804,8.834-7.964,12.089-9.478c3.254-1.514,6.579-2.14,9.98-1.884
			c3.401,0.258,6.9,1.395,10.501,3.411l-10.647,15.277c-2.175-1.108-4.335-1.458-6.481-1.053s-4.209,1.598-6.185,3.573
			c-2.947,2.946-4.271,6.32-3.975,10.116c0.294,3.797,2.657,7.911,7.09,12.341c4.705,4.705,8.952,7.184,12.738,7.429
			c3.786,0.248,7.261-1.21,10.429-4.373c1.499-1.504,2.716-3.157,3.646-4.954c0.93-1.801,1.752-4.104,2.465-6.911l-4.094-4.094
			L-197.081,449.495z"/>
		<path fill="#006E12" d="M-196.102,393.044l36.011-36.011l9.284,9.285l-22.544,22.545l6.911,6.911l20.912-20.912l8.869,8.869
			l-20.912,20.912l8.571,8.571l23.198-23.194l9.848,9.848l-36.664,36.664L-196.102,393.044z"/>
		<path fill="#006E12" d="M-131.409,328.351l13.466-13.47l43.488,43.488l-13.47,13.466L-131.409,328.351z"/>
		<path fill="#006E12" d="M-108.448,305.39l17.671-17.671l33.273,19.643l-19.691-33.225l17.66-17.66l43.485,43.484l-11.005,11.005
			l-33.162-33.161l24.681,41.642l-9.959,9.96l-41.629-24.698l33.165,33.165l-11.005,11.005L-108.448,305.39z"/>
		<path fill="#006E12" d="M12.081,257.476l-15.256,15.256l5.059,9.299l-13.722,13.718l-27.142-59.827l14.658-14.658l59.827,27.146
			l-14.074,14.07L12.081,257.476z M-0.112,250.862l-20.43-10.834l10.882,20.381L-0.112,250.862z"/>
		<path fill="#006E12" d="M44.791,207.622l-9.047-9.047l20.762-20.766l18.538,18.538c-1.266,6.685-2.937,12.044-5.013,16.078
			c-2.073,4.034-5.209,8.148-9.4,12.34c-5.163,5.163-10.25,8.488-15.263,9.98c-5.014,1.496-10.155,1.395-15.424-0.294
			c-5.271-1.691-10.162-4.792-14.668-9.302c-4.748-4.744-7.897-9.852-9.449-15.319c-1.553-5.467-1.35-11.001,0.607-16.598
			c1.542-4.349,4.808-9.016,9.789-14.001c4.807-4.803,8.834-7.964,12.088-9.478c3.251-1.514,6.579-2.139,9.98-1.884
			c3.401,0.259,6.901,1.395,10.502,3.412L38.146,186.56c-2.175-1.108-4.335-1.458-6.481-1.052c-2.146,0.405-4.209,1.598-6.184,3.572
			c-2.947,2.947-4.272,6.32-3.975,10.117c0.293,3.796,2.656,7.911,7.089,12.34c4.706,4.706,8.953,7.185,12.739,7.429
			c3.786,0.248,7.261-1.209,10.428-4.373c1.5-1.503,2.717-3.157,3.646-4.953c0.93-1.801,1.751-4.104,2.464-6.912l-4.093-4.093
			L44.791,207.622z"/>
		<path fill="#006E12" d="M45.77,151.172l36.011-36.011l9.285,9.285L68.521,146.99l6.911,6.911l20.912-20.912l8.869,8.869
			l-20.912,20.912l8.572,8.572l23.198-23.195l9.848,9.848l-36.664,36.664L45.77,151.172z"/>
		<path fill="#006E12" d="M110.464,86.478l13.466-13.469l43.488,43.488l-13.47,13.465L110.464,86.478z"/>
		<path fill="#006E12" d="M133.424,63.518l17.672-17.672l33.273,19.644l-19.692-33.225l17.661-17.661l43.484,43.485l-11.005,11.005
			l-33.161-33.162l24.681,41.643l-9.96,9.96l-41.628-24.698l33.165,33.165l-11.005,11.005L133.424,63.518z"/>
		<path fill="#006E12" d="M253.953,15.604l-15.256,15.256l5.059,9.299l-13.721,13.718L202.894-5.951l14.658-14.658l59.827,27.145
			l-14.074,14.071L253.953,15.604z M241.76,8.989L221.33-1.844l10.883,20.381L241.76,8.989z"/>
		<path fill="#006E12" d="M286.66-34.25l-9.047-9.048l20.765-20.765l18.539,18.538c-1.266,6.685-2.937,12.043-5.014,16.077
			c-2.072,4.034-5.208,8.149-9.4,12.341c-5.163,5.163-10.249,8.487-15.263,9.98c-5.013,1.496-10.155,1.395-15.423-0.294
			c-5.272-1.692-10.163-4.793-14.669-9.303c-4.747-4.743-7.897-9.851-9.449-15.318s-1.35-11.001,0.608-16.598
			c1.542-4.35,4.807-9.017,9.788-14.001c4.807-4.804,8.834-7.964,12.089-9.478c3.251-1.514,6.579-2.14,9.98-1.884
			c3.401,0.259,6.9,1.395,10.501,3.411l-10.647,15.277c-2.175-1.108-4.335-1.458-6.481-1.053c-2.146,0.406-4.209,1.598-6.185,3.573
			c-2.946,2.947-4.271,6.32-3.975,10.117c0.294,3.796,2.657,7.91,7.09,12.34c4.705,4.705,8.952,7.184,12.738,7.429
			c3.786,0.248,7.261-1.21,10.429-4.373c1.499-1.504,2.716-3.157,3.646-4.954c0.931-1.8,1.752-4.104,2.465-6.911l-4.094-4.094
			L286.66-34.25z"/>
		<path fill="#006E12" d="M287.643-90.701l36.011-36.01l9.284,9.284l-22.544,22.545l6.911,6.911l20.912-20.912l8.869,8.869
			l-20.912,20.912l8.571,8.571l23.198-23.194l9.849,9.848l-36.665,36.664L287.643-90.701z"/>
		<path fill="#006E12" d="M352.336-155.395l13.467-13.47l43.488,43.488l-13.47,13.466L352.336-155.395z"/>
		<path fill="#006E12" d="M375.297-178.355l17.668-17.671l33.273,19.643l-19.688-33.224l17.661-17.661l43.484,43.484l-11.005,11.005
			l-33.165-33.161l24.685,41.642l-9.96,9.96l-41.628-24.698l33.161,33.165l-11.005,11.005L375.297-178.355z"/>
		<path fill="#006E12" d="M495.826-226.269l-15.256,15.255l5.055,9.3l-13.717,13.717l-27.142-59.827l14.654-14.658l59.827,27.146
			l-14.07,14.07L495.826-226.269z M483.633-232.883l-20.43-10.834l10.879,20.381L483.633-232.883z"/>
		<path fill="#006E12" d="M528.533-276.123l-9.047-9.047l20.765-20.766l18.538,18.539c-1.265,6.684-2.937,12.043-5.013,16.077
			s-5.212,8.148-9.4,12.34c-5.163,5.163-10.25,8.488-15.263,9.98c-5.013,1.496-10.155,1.396-15.424-0.293
			c-5.271-1.692-10.162-4.793-14.668-9.3c-4.747-4.747-7.897-9.854-9.453-15.321c-1.552-5.468-1.349-11.002,0.608-16.599
			c1.545-4.349,4.811-9.016,9.792-14.001c4.807-4.803,8.834-7.963,12.085-9.477c3.255-1.514,6.583-2.14,9.984-1.885
			c3.401,0.259,6.9,1.395,10.501,3.412l-10.648,15.276c-2.174-1.107-4.334-1.457-6.48-1.052s-4.209,1.598-6.188,3.572
			c-2.944,2.947-4.272,6.32-3.972,10.117c0.294,3.797,2.657,7.911,7.09,12.34c4.705,4.706,8.949,7.185,12.738,7.429
			c3.786,0.248,7.261-1.209,10.425-4.373c1.503-1.503,2.72-3.156,3.649-4.953c0.93-1.801,1.748-4.104,2.461-6.911l-4.09-4.094
			L528.533-276.123z"/>
		<path fill="#006E12" d="M529.512-332.573l36.015-36.011l9.284,9.285l-22.548,22.544l6.915,6.911l20.912-20.911l8.865,8.868
			l-20.912,20.912l8.571,8.572l23.198-23.195l9.852,9.848L573-289.085L529.512-332.573z"/>
		<path fill="#006E12" d="M594.206-397.268l13.469-13.469l43.485,43.487l-13.467,13.467L594.206-397.268z"/>
		<path fill="#006E12" d="M617.166-420.228l17.675-17.672l33.273,19.644l-19.695-33.225l17.661-17.661l43.488,43.484l-11.005,11.005
			l-33.162-33.161l24.681,41.643l-9.959,9.959l-41.629-24.697l33.165,33.164l-11.005,11.005L617.166-420.228z"/>
		<path fill="#006E12" d="M737.696-468.142l-15.256,15.256l5.063,9.299l-13.725,13.718l-27.142-59.828l14.661-14.657l59.827,27.145
			l-14.074,14.071L737.696-468.142z M725.506-474.756l-20.434-10.833l10.886,20.38L725.506-474.756z"/>
		<path fill="#006E12" d="M770.406-517.995l-9.047-9.048l20.766-20.765l18.538,18.538c-1.266,6.684-2.937,12.043-5.013,16.077
			c-2.077,4.034-5.209,8.148-9.404,12.341c-5.159,5.163-10.25,8.487-15.263,9.983c-5.013,1.493-10.151,1.392-15.424-0.297
			c-5.271-1.692-10.158-4.793-14.668-9.299c-4.747-4.747-7.894-9.854-9.446-15.322c-1.552-5.468-1.349-11.001,0.608-16.599
			c1.542-4.349,4.804-9.016,9.789-14c4.803-4.804,8.834-7.964,12.088-9.478c3.251-1.51,6.579-2.14,9.98-1.885
			c3.401,0.259,6.901,1.396,10.498,3.412l-10.648,15.277c-2.174-1.108-4.334-1.458-6.48-1.053s-4.206,1.598-6.181,3.573
			c-2.951,2.946-4.272,6.32-3.979,10.116c0.297,3.797,2.66,7.911,7.09,12.341c4.705,4.705,8.956,7.184,12.738,7.429
			c3.79,0.248,7.265-1.21,10.428-4.373c1.504-1.504,2.72-3.157,3.65-4.954c0.926-1.801,1.751-4.104,2.461-6.911l-4.094-4.094
			L770.406-517.995z"/>
		<path fill="#006E12" d="M771.385-574.446l36.011-36.011l9.284,9.285l-22.541,22.545l6.908,6.911l20.912-20.912l8.872,8.869
			l-20.912,20.912l8.572,8.571l23.198-23.194l9.844,9.848l-36.664,36.664L771.385-574.446z"/>
		<path fill="#006E12" d="M836.082-639.14l13.466-13.466l43.488,43.484l-13.47,13.466L836.082-639.14z"/>
		<path fill="#006E12" d="M859.039-662.101l17.671-17.671l33.273,19.643l-19.688-33.225l17.661-17.66l43.484,43.484l-11.005,11.005
			l-33.165-33.161l24.685,41.642l-9.96,9.96l-41.628-24.698l33.161,33.165l-11.005,11.005L859.039-662.101z"/>
		<path fill="#006E12" d="M979.572-710.015l-15.256,15.256l5.056,9.299l-13.718,13.722l-27.142-59.831l14.654-14.658l59.827,27.146
			l-14.07,14.07L979.572-710.015z M967.378-716.628l-20.43-10.834l10.879,20.381L967.378-716.628z"/>
		<path fill="#006E12" d="M1012.279-759.868l-9.047-9.047l20.765-20.766l18.539,18.538c-1.266,6.685-2.937,12.044-5.014,16.078
			c-2.076,4.034-5.212,8.148-9.4,12.34c-5.163,5.163-10.249,8.488-15.263,9.984c-5.013,1.492-10.155,1.391-15.423-0.298
			c-5.272-1.691-10.163-4.792-14.669-9.299c-4.747-4.747-7.9-9.854-9.453-15.322c-1.552-5.467-1.349-11.001,0.608-16.598
			c1.546-4.349,4.811-9.016,9.792-14.001c4.807-4.804,8.834-7.964,12.085-9.478c3.255-1.51,6.583-2.139,9.984-1.884
			c3.401,0.259,6.9,1.395,10.501,3.412l-10.647,15.276c-2.179-1.108-4.339-1.458-6.481-1.052c-2.146,0.405-4.209,1.598-6.188,3.572
			c-2.944,2.947-4.272,6.32-3.976,10.117c0.298,3.796,2.661,7.911,7.09,12.34c4.709,4.706,8.953,7.185,12.742,7.429
			c3.786,0.248,7.261-1.209,10.425-4.373c1.503-1.503,2.72-3.153,3.649-4.954c0.93-1.8,1.748-4.104,2.461-6.911l-4.094-4.093
			L1012.279-759.868z"/>
		<path fill="#006E12" d="M1013.257-816.318l36.015-36.011l9.281,9.285l-22.545,22.544l6.915,6.911l20.912-20.912l8.865,8.869
			l-20.912,20.912l8.572,8.572l23.198-23.195l9.851,9.848l-36.664,36.664L1013.257-816.318z"/>
	</g>
	<g opacity="0.15">
		<path fill="#006E12" d="M-425.309,774.128l13.466-13.47l43.488,43.488l-13.47,13.466L-425.309,774.128z"/>
		<path fill="#006E12" d="M-402.352,751.167l17.671-17.672l33.277,19.644l-19.692-33.225l17.661-17.661l43.484,43.485
			l-11.005,11.005l-33.165-33.162l24.685,41.643l-9.96,9.96l-41.628-24.698l33.164,33.161l-11.004,11.005L-402.352,751.167z"/>
		<path fill="#006E12" d="M-281.82,703.253l-15.256,15.256l5.059,9.296l-13.721,13.721l-27.142-59.831l14.657-14.654l59.824,27.145
			l-14.07,14.071L-281.82,703.253z M-294.013,696.639l-20.43-10.833l10.883,20.381L-294.013,696.639z"/>
		<path fill="#006E12" d="M-249.113,653.396l-9.047-9.047l20.765-20.762l18.538,18.538c-1.265,6.685-2.936,12.043-5.013,16.077
			c-2.076,4.034-5.209,8.149-9.403,12.341c-5.16,5.159-10.246,8.487-15.26,9.98c-5.013,1.492-10.155,1.395-15.427-0.297
			c-5.269-1.688-10.159-4.79-14.669-9.299c-4.743-4.744-7.894-9.852-9.445-15.319c-1.552-5.471-1.35-11.001,0.608-16.598
			c1.541-4.35,4.803-9.017,9.788-14.001c4.807-4.807,8.834-7.964,12.089-9.478c3.251-1.514,6.579-2.14,9.98-1.884
			c3.401,0.259,6.9,1.395,10.501,3.412l-10.648,15.276c-2.178-1.108-4.338-1.458-6.48-1.053c-2.146,0.406-4.209,1.595-6.188,3.573
			c-2.944,2.947-4.269,6.32-3.976,10.117c0.298,3.796,2.661,7.907,7.09,12.34c4.709,4.705,8.956,7.181,12.742,7.429
			s7.261-1.21,10.425-4.377c1.503-1.5,2.72-3.153,3.649-4.953c0.93-1.797,1.752-4.101,2.461-6.911l-4.094-4.094L-249.113,653.396z"
			/>
		<path fill="#006E12" d="M-248.135,596.948l36.011-36.01l9.285,9.284l-22.541,22.545l6.911,6.911l20.912-20.915l8.869,8.872
			l-20.912,20.912l8.571,8.571l23.195-23.198l9.851,9.852l-36.664,36.661L-248.135,596.948z"/>
		<path fill="#006E12" d="M-183.437,532.255l13.466-13.47l43.485,43.488l-13.467,13.466L-183.437,532.255z"/>
		<path fill="#006E12" d="M-160.48,509.294l17.672-17.671l33.276,19.643l-19.691-33.224l17.66-17.661l43.485,43.484l-11.005,11.005
			l-33.165-33.161l24.684,41.642l-9.959,9.96l-41.629-24.698l33.165,33.162l-11.005,11.005L-160.48,509.294z"/>
		<path fill="#006E12" d="M-39.947,461.381l-15.256,15.256l5.059,9.295l-13.722,13.721l-27.142-59.831l14.658-14.654l59.824,27.146
			l-14.071,14.07L-39.947,461.381z M-52.14,454.767l-20.434-10.834l10.886,20.381L-52.14,454.767z"/>
		<path fill="#006E12" d="M-7.24,411.523l-9.048-9.048l20.766-20.762l18.538,18.539c-1.266,6.684-2.937,12.043-5.013,16.077
			c-2.077,4.034-5.209,8.148-9.404,12.34c-5.159,5.16-10.246,8.488-15.259,9.98c-5.014,1.493-10.155,1.396-15.428-0.297
			c-5.268-1.688-10.158-4.789-14.668-9.299c-4.744-4.744-7.894-9.852-9.446-15.318c-1.552-5.472-1.349-11.002,0.608-16.599
			c1.542-4.349,4.804-9.016,9.789-14.001c4.807-4.807,8.834-7.963,12.088-9.477c3.251-1.514,6.579-2.14,9.98-1.885
			c3.401,0.259,6.901,1.395,10.502,3.412l-10.648,15.276c-2.178-1.107-4.338-1.457-6.481-1.052
			c-2.146,0.405-4.209,1.594-6.188,3.572c-2.943,2.947-4.269,6.32-3.975,10.117c0.297,3.797,2.66,7.907,7.09,12.34
			c4.709,4.706,8.956,7.181,12.742,7.429c3.786,0.249,7.261-1.209,10.424-4.373c1.504-1.503,2.721-3.156,3.65-4.957
			c0.93-1.797,1.751-4.101,2.461-6.911l-4.094-4.094L-7.24,411.523z"/>
		<path fill="#006E12" d="M-6.261,355.076l36.011-36.011l9.284,9.285l-22.541,22.544l6.911,6.912l20.912-20.916l8.869,8.872
			l-20.912,20.912l8.572,8.572l23.194-23.198l9.852,9.851l-36.664,36.661L-6.261,355.076z"/>
		<path fill="#006E12" d="M58.436,290.382l13.466-13.469l43.484,43.487l-13.466,13.467L58.436,290.382z"/>
		<path fill="#006E12" d="M81.393,267.422l17.671-17.672l33.277,19.644l-19.692-33.225l17.661-17.661l43.484,43.484l-11.005,11.005
			l-33.165-33.161l24.685,41.643l-9.96,9.959l-41.628-24.697l33.165,33.161l-11.005,11.005L81.393,267.422z"/>
		<path fill="#006E12" d="M201.925,219.508l-15.256,15.256l5.059,9.295l-13.721,13.722l-27.142-59.831l14.657-14.654l59.824,27.145
			l-14.07,14.071L201.925,219.508z M189.732,212.894l-20.433-10.833l10.886,20.38L189.732,212.894z"/>
		<path fill="#006E12" d="M234.632,169.65l-9.047-9.047l20.765-20.762l18.539,18.538c-1.266,6.684-2.937,12.043-5.014,16.077
			c-2.076,4.034-5.209,8.148-9.403,12.341c-5.16,5.159-10.246,8.487-15.26,9.98c-5.013,1.492-10.155,1.395-15.427-0.298
			c-5.269-1.688-10.159-4.789-14.669-9.299c-4.743-4.743-7.894-9.851-9.445-15.318s-1.35-11.001,0.608-16.599
			c1.542-4.349,4.803-9.016,9.788-14c4.807-4.807,8.834-7.964,12.089-9.478c3.251-1.514,6.579-2.14,9.98-1.884
			c3.401,0.258,6.9,1.395,10.501,3.411l-10.647,15.277c-2.179-1.108-4.339-1.458-6.481-1.053c-2.146,0.406-4.209,1.595-6.188,3.573
			c-2.943,2.946-4.269,6.32-3.975,10.116c0.297,3.797,2.66,7.908,7.089,12.341c4.709,4.705,8.953,7.181,12.742,7.429
			c3.786,0.248,7.261-1.21,10.425-4.373c1.503-1.504,2.72-3.157,3.649-4.957c0.93-1.797,1.752-4.101,2.461-6.912l-4.093-4.093
			L234.632,169.65z"/>
		<path fill="#006E12" d="M235.611,113.203l36.011-36.01l9.285,9.284l-22.541,22.545l6.911,6.911l20.912-20.912l8.869,8.869
			l-20.912,20.912l8.571,8.571l23.195-23.198l9.851,9.852l-36.664,36.66L235.611,113.203z"/>
		<path fill="#006E12" d="M300.308,48.51l13.466-13.47l43.485,43.488l-13.466,13.466L300.308,48.51z"/>
		<path fill="#006E12" d="M323.265,25.549l17.672-17.671l33.277,19.643L354.522-5.703l17.661-17.661l43.484,43.484l-11.005,11.005
			L371.497-2.036l24.685,41.643l-9.96,9.959l-41.629-24.698l33.165,33.162l-11.005,11.005L323.265,25.549z"/>
		<path fill="#006E12" d="M443.794-22.364L428.538-7.108l5.063,9.299l-13.725,13.718l-27.138-59.831l14.657-14.655l59.824,27.146
			l-14.07,14.07L443.794-22.364z M431.601-28.979l-20.43-10.834l10.887,20.381L431.601-28.979z"/>
		<path fill="#006E12" d="M476.505-72.219l-9.047-9.047l20.762-20.766l18.541,18.539c-1.265,6.684-2.937,12.043-5.013,16.077
			s-5.209,8.148-9.403,12.34c-5.16,5.16-10.25,8.488-15.263,9.98c-5.014,1.493-10.152,1.396-15.424-0.297
			c-5.271-1.688-10.159-4.789-14.669-9.299c-4.747-4.744-7.894-9.852-9.445-15.318c-1.553-5.468-1.35-11.002,0.608-16.599
			c1.538-4.349,4.803-9.016,9.788-14.001c4.803-4.807,8.834-7.963,12.089-9.477c3.251-1.514,6.579-2.14,9.977-1.885
			c3.405,0.259,6.904,1.396,10.502,3.412L469.86-93.281c-2.175-1.107-4.335-1.457-6.481-1.052s-4.209,1.598-6.185,3.572
			c-2.946,2.947-4.271,6.321-3.975,10.117c0.298,3.797,2.66,7.908,7.09,12.341c4.705,4.705,8.953,7.18,12.739,7.429
			c3.789,0.248,7.264-1.21,10.428-4.374c1.503-1.503,2.72-3.156,3.646-4.953c0.931-1.801,1.756-4.104,2.465-6.915l-4.094-4.094
			L476.505-72.219z"/>
		<path fill="#006E12" d="M477.484-128.669l36.011-36.011l9.285,9.285l-22.541,22.545l6.907,6.911l20.912-20.912l8.872,8.869
			l-20.912,20.911l8.572,8.572l23.194-23.195l9.849,9.849l-36.665,36.66L477.484-128.669z"/>
		<path fill="#006E12" d="M542.181-193.362l13.466-13.47l43.484,43.488l-13.466,13.466L542.181-193.362z"/>
		<path fill="#006E12" d="M565.138-216.323l17.672-17.672l33.273,19.644l-19.688-33.225l17.66-17.661l43.481,43.485l-11.005,11.005
			l-33.161-33.162l24.684,41.643l-9.96,9.96l-41.628-24.698l33.161,33.161l-11.005,11.005L565.138-216.323z"/>
		<path fill="#006E12" d="M685.667-264.237l-15.252,15.256l5.055,9.299l-13.718,13.718l-27.142-59.827l14.654-14.658l59.828,27.145
			l-14.071,14.071L685.667-264.237z M673.477-270.852l-20.433-10.833l10.883,20.381L673.477-270.852z"/>
		<path fill="#006E12" d="M718.377-314.091l-9.047-9.048l20.766-20.765l18.538,18.538c-1.266,6.685-2.937,12.043-5.013,16.077
			c-2.077,4.034-5.213,8.149-9.404,12.341c-5.163,5.159-10.246,8.487-15.259,9.98c-5.014,1.492-10.159,1.395-15.428-0.297
			c-5.268-1.688-10.158-4.79-14.668-9.3c-4.744-4.743-7.897-9.851-9.449-15.318c-1.553-5.468-1.35-11.001,0.608-16.598
			c1.545-4.35,4.807-9.017,9.788-14.001c4.811-4.804,8.837-7.964,12.089-9.478c3.254-1.514,6.579-2.14,9.983-1.884
			c3.398,0.259,6.901,1.395,10.502,3.411l-10.648,15.277c-2.178-1.108-4.338-1.458-6.481-1.053
			c-2.146,0.406-4.209,1.598-6.188,3.573c-2.947,2.947-4.271,6.32-3.975,10.117c0.297,3.796,2.66,7.907,7.09,12.34
			c4.708,4.705,8.952,7.181,12.742,7.429c3.782,0.248,7.261-1.21,10.424-4.373c1.504-1.504,2.72-3.157,3.65-4.954
			c0.93-1.8,1.748-4.104,2.461-6.914l-4.094-4.091L718.377-314.091z"/>
		<path fill="#006E12" d="M719.357-370.542l36.011-36.01l9.284,9.284l-22.544,22.545l6.914,6.911l20.912-20.912l8.865,8.869
			l-20.912,20.912l8.572,8.571l23.198-23.194l9.848,9.848l-36.66,36.661L719.357-370.542z"/>
		<path fill="#006E12" d="M784.05-435.235l13.466-13.47l43.488,43.488l-13.466,13.466L784.05-435.235z"/>
		<path fill="#006E12" d="M807.011-458.196l17.671-17.671l33.277,19.643l-19.695-33.224l17.66-17.661l43.488,43.484l-11.005,11.005
			l-33.165-33.161l24.685,41.642l-9.964,9.96l-41.624-24.698l33.165,33.162l-11.005,11.005L807.011-458.196z"/>
		<path fill="#006E12" d="M927.539-506.109l-15.255,15.256l5.062,9.299l-13.725,13.717l-27.142-59.827l14.661-14.658l59.824,27.146
			l-14.07,14.07L927.539-506.109z M915.346-512.724l-20.43-10.834l10.883,20.381L915.346-512.724z"/>
		<path fill="#006E12" d="M960.25-555.964l-9.047-9.047l20.762-20.766l18.541,18.539c-1.265,6.684-2.936,12.043-5.013,16.077
			c-2.076,4.034-5.209,8.148-9.403,12.34c-5.16,5.16-10.25,8.488-15.263,9.98c-5.014,1.493-10.152,1.396-15.424-0.297
			c-5.271-1.688-10.159-4.789-14.669-9.299c-4.747-4.744-7.894-9.852-9.445-15.318c-1.552-5.468-1.35-11.002,0.608-16.599
			c1.538-4.349,4.803-9.016,9.788-14.001c4.804-4.803,8.834-7.963,12.089-9.477c3.251-1.514,6.579-2.14,9.977-1.885
			c3.405,0.259,6.904,1.395,10.502,3.412l-10.648,15.276c-2.175-1.107-4.335-1.457-6.481-1.052s-4.209,1.598-6.184,3.572
			c-2.947,2.947-4.272,6.32-3.976,10.117c0.298,3.797,2.661,7.907,7.09,12.34c4.705,4.706,8.953,7.181,12.739,7.429
			c3.789,0.249,7.264-1.209,10.428-4.373c1.503-1.503,2.72-3.156,3.646-4.953c0.93-1.801,1.755-4.104,2.464-6.915l-4.094-4.09
			L960.25-555.964z"/>
		<path fill="#006E12" d="M961.229-612.414l36.011-36.011l9.285,9.285l-22.545,22.544l6.911,6.912l20.912-20.912l8.873,8.868
			l-20.912,20.912l8.571,8.572l23.195-23.195l9.848,9.848l-36.665,36.661L961.229-612.414z"/>
	</g>
	<g opacity="0.15">
		<path fill="#006E12" d="M-463.278,963.969l13.466-13.467l43.485,43.485l-13.467,13.469L-463.278,963.969z"/>
		<path fill="#006E12" d="M-440.321,941.011l17.672-17.671l33.276,19.643l-19.691-33.228l17.657-17.657l43.488,43.484
			l-11.005,11.005l-33.165-33.165l24.684,41.646l-9.959,9.959l-41.629-24.698l33.165,33.162l-11.005,11.005L-440.321,941.011z"/>
		<path fill="#006E12" d="M-319.792,893.098l-15.256,15.252l5.063,9.299l-13.722,13.722l-27.142-59.831l14.658-14.658l59.824,27.148
			l-14.071,14.07L-319.792,893.098z M-331.981,886.479l-20.434-10.833l10.883,20.384L-331.981,886.479z"/>
		<path fill="#006E12" d="M-287.081,843.24l-9.048-9.048l20.766-20.762l18.538,18.539c-1.266,6.684-2.937,12.043-5.013,16.077
			c-2.077,4.034-5.209,8.146-9.404,12.34c-5.159,5.16-10.246,8.488-15.259,9.98c-5.014,1.493-10.155,1.396-15.428-0.297
			c-5.268-1.688-10.158-4.789-14.668-9.299c-4.744-4.747-7.894-9.852-9.445-15.322c-1.553-5.468-1.35-10.998,0.607-16.595
			c1.542-4.353,4.804-9.02,9.789-14.001c4.803-4.807,8.834-7.963,12.088-9.477c3.251-1.514,6.579-2.144,9.98-1.885
			c3.402,0.259,6.901,1.395,10.502,3.412l-10.651,15.276c-2.175-1.107-4.335-1.457-6.481-1.056
			c-2.144,0.406-4.206,1.598-6.185,3.576c-2.947,2.947-4.271,6.317-3.975,10.114c0.297,3.8,2.66,7.91,7.09,12.34
			c4.709,4.709,8.952,7.184,12.742,7.433c3.786,0.248,7.261-1.214,10.425-4.377c1.503-1.504,2.72-3.153,3.649-4.954
			c0.93-1.8,1.751-4.104,2.461-6.911l-4.094-4.094L-287.081,843.24z"/>
		<path fill="#006E12" d="M-286.102,786.793l36.011-36.011l9.284,9.285l-22.544,22.541l6.911,6.911l20.915-20.912l8.869,8.869
			l-20.912,20.915l8.572,8.572l23.194-23.198l9.848,9.848l-36.66,36.664L-286.102,786.793z"/>
		<path fill="#006E12" d="M-221.405,722.096l13.466-13.466l43.484,43.484l-13.466,13.47L-221.405,722.096z"/>
		<path fill="#006E12" d="M-198.448,699.139l17.671-17.672l33.277,19.644l-19.692-33.228l17.657-17.658l43.488,43.485
			l-11.005,11.005l-33.165-33.165l24.685,41.646l-9.96,9.96l-41.628-24.698l33.165,33.161l-11.005,11.005L-198.448,699.139z"/>
		<path fill="#006E12" d="M-77.919,651.225l-15.256,15.252l5.062,9.3l-13.721,13.721l-27.142-59.831l14.658-14.658l59.823,27.148
			l-14.07,14.071L-77.919,651.225z M-90.109,644.607l-20.433-10.834l10.882,20.385L-90.109,644.607z"/>
		<path fill="#006E12" d="M-45.209,601.367l-9.047-9.047l20.765-20.762l18.539,18.538c-1.266,6.685-2.937,12.043-5.014,16.077
			c-2.076,4.034-5.208,8.149-9.403,12.341c-5.16,5.159-10.246,8.487-15.26,9.98c-5.013,1.492-10.155,1.395-15.427-0.298
			c-5.269-1.688-10.159-4.789-14.668-9.299c-4.744-4.747-7.895-9.851-9.446-15.322c-1.552-5.467-1.35-10.997,0.608-16.594
			c1.542-4.353,4.804-9.02,9.788-14.001c4.804-4.807,8.834-7.964,12.089-9.478c3.251-1.514,6.579-2.143,9.98-1.884
			s6.9,1.395,10.501,3.411l-10.651,15.277c-2.175-1.108-4.335-1.458-6.481-1.056c-2.143,0.405-4.205,1.598-6.184,3.576
			c-2.947,2.947-4.272,6.316-3.975,10.113c0.297,3.8,2.66,7.911,7.089,12.34c4.709,4.709,8.953,7.185,12.742,7.433
			c3.786,0.248,7.261-1.213,10.425-4.377c1.503-1.503,2.72-3.153,3.649-4.953c0.931-1.801,1.752-4.104,2.461-6.912l-4.093-4.093
			L-45.209,601.367z"/>
		<path fill="#006E12" d="M-44.23,544.92l36.011-36.01l9.285,9.284l-22.545,22.541l6.911,6.911l20.916-20.911l8.869,8.868
			L-5.695,556.52l8.571,8.571l23.195-23.198l9.848,9.848l-36.661,36.664L-44.23,544.92z"/>
		<path fill="#006E12" d="M20.467,480.223l13.467-13.466l43.484,43.484l-13.466,13.47L20.467,480.223z"/>
		<path fill="#006E12" d="M43.424,457.266l17.672-17.671l33.276,19.643L74.677,426.01l17.661-17.657l43.488,43.484l-11.005,11.005
			l-33.165-33.165l24.684,41.646l-9.959,9.96l-41.629-24.698l33.165,33.162L86.912,500.75L43.424,457.266z"/>
		<path fill="#006E12" d="M163.953,409.353l-15.256,15.252l5.063,9.299l-13.722,13.721l-27.142-59.831l14.658-14.657l59.824,27.148
			l-14.07,14.07L163.953,409.353z M151.764,402.734l-20.434-10.833l10.883,20.384L151.764,402.734z"/>
		<path fill="#006E12" d="M196.664,359.495l-9.048-9.048l20.766-20.762l18.538,18.539c-1.266,6.684-2.937,12.043-5.013,16.077
			s-5.209,8.148-9.404,12.34c-5.159,5.16-10.246,8.488-15.259,9.98c-5.013,1.493-10.155,1.396-15.427-0.297
			c-5.269-1.688-10.159-4.789-14.669-9.299c-4.744-4.747-7.894-9.852-9.445-15.322c-1.553-5.468-1.35-10.998,0.608-16.595
			c1.541-4.353,4.803-9.02,9.788-14.001c4.803-4.807,8.834-7.963,12.088-9.477c3.252-1.514,6.579-2.144,9.981-1.885
			c3.401,0.259,6.9,1.395,10.501,3.412l-10.651,15.276c-2.175-1.107-4.335-1.457-6.481-1.052c-2.144,0.401-4.206,1.594-6.185,3.572
			c-2.946,2.947-4.271,6.317-3.975,10.113c0.297,3.801,2.66,7.911,7.09,12.341c4.709,4.709,8.952,7.184,12.742,7.432
			c3.786,0.249,7.261-1.213,10.425-4.376c1.503-1.504,2.72-3.153,3.649-4.954c0.93-1.797,1.751-4.104,2.461-6.911l-4.094-4.094
			L196.664,359.495z"/>
		<path fill="#006E12" d="M197.643,303.048l36.011-36.011l9.284,9.285l-22.544,22.541l6.911,6.911l20.915-20.912l8.869,8.869
			l-20.912,20.915l8.572,8.572l23.194-23.198l9.848,9.848l-36.66,36.664L197.643,303.048z"/>
		<path fill="#006E12" d="M262.34,238.351l13.466-13.466l43.484,43.484l-13.466,13.47L262.34,238.351z"/>
		<path fill="#006E12" d="M285.297,215.394l17.672-17.672l33.276,19.644l-19.695-33.229l17.661-17.657l43.488,43.484l-11.005,11.005
			l-33.166-33.164l24.685,41.646l-9.96,9.959l-41.628-24.697l33.165,33.161l-11.005,11.005L285.297,215.394z"/>
		<path fill="#006E12" d="M405.826,167.479l-15.256,15.252l5.059,9.299l-13.718,13.722l-27.142-59.831l14.654-14.658l59.828,27.148
			l-14.074,14.071L405.826,167.479z M393.637,160.862l-20.434-10.834l10.883,20.384L393.637,160.862z"/>
		<path fill="#006E12" d="M438.536,117.622l-9.047-9.047l20.766-20.762l18.534,18.538c-1.265,6.685-2.937,12.043-5.013,16.077
			c-2.073,4.034-5.209,8.148-9.4,12.341c-5.163,5.159-10.246,8.487-15.259,9.98c-5.014,1.492-10.159,1.395-15.428-0.298
			c-5.268-1.688-10.162-4.789-14.668-9.299c-4.744-4.747-7.897-9.851-9.449-15.321c-1.553-5.468-1.35-10.998,0.608-16.595
			c1.545-4.353,4.807-9.02,9.788-14.001c4.807-4.807,8.838-7.964,12.089-9.478s6.579-2.14,9.983-1.884
			c3.398,0.259,6.901,1.395,10.502,3.412l-10.652,15.276c-2.174-1.108-4.334-1.458-6.48-1.053c-2.144,0.402-4.206,1.595-6.185,3.573
			c-2.947,2.947-4.271,6.317-3.975,10.113c0.297,3.8,2.66,7.911,7.09,12.341c4.709,4.708,8.952,7.184,12.742,7.432
			c3.782,0.248,7.257-1.213,10.424-4.377c1.504-1.503,2.72-3.153,3.65-4.953c0.93-1.797,1.748-4.104,2.461-6.911l-4.094-4.094
			L438.536,117.622z"/>
		<path fill="#006E12" d="M439.516,61.175l36.011-36.01l9.284,9.284l-22.544,22.542l6.911,6.911l20.915-20.912l8.865,8.868
			l-20.911,20.916l8.571,8.571l23.198-23.198l9.848,9.848l-36.66,36.665L439.516,61.175z"/>
		<path fill="#006E12" d="M504.209-3.522l13.466-13.466L561.163,26.5l-13.466,13.466L504.209-3.522z"/>
		<path fill="#006E12" d="M527.17-26.479l17.671-17.671l33.277,19.643l-19.695-33.224l17.66-17.661l43.488,43.484l-11.005,11.005
			l-33.165-33.161l24.685,41.642l-9.963,9.96l-41.629-24.698l33.169,33.162l-11.005,11.005L527.17-26.479z"/>
		<path fill="#006E12" d="M647.699-74.393l-15.256,15.256l5.062,9.295L623.781-36.12l-27.142-59.831l14.658-14.655l59.827,27.146
			l-14.07,14.07L647.699-74.393z M635.506-81.011l-20.43-10.83l10.882,20.381L635.506-81.011z"/>
		<path fill="#006E12" d="M680.409-124.25l-9.047-9.048l20.762-20.762l18.542,18.539c-1.266,6.684-2.937,12.043-5.014,16.077
			c-2.076,4.034-5.212,8.148-9.403,12.34c-5.16,5.16-10.25,8.488-15.263,9.98c-5.014,1.493-10.152,1.396-15.424-0.297
			c-5.271-1.688-10.159-4.789-14.669-9.299c-4.747-4.744-7.894-9.852-9.445-15.322c-1.552-5.468-1.35-10.998,0.608-16.595
			c1.538-4.353,4.803-9.02,9.788-14.001c4.804-4.807,8.831-7.963,12.089-9.477c3.251-1.514,6.579-2.14,9.977-1.885
			c3.405,0.259,6.901,1.396,10.502,3.412l-10.648,15.276c-2.175-1.107-4.335-1.457-6.481-1.052s-4.209,1.594-6.184,3.572
			c-2.947,2.947-4.272,6.317-3.976,10.117c0.294,3.797,2.657,7.907,7.09,12.337c4.705,4.709,8.953,7.184,12.739,7.432
			c3.789,0.249,7.264-1.213,10.428-4.376c1.5-1.504,2.716-3.153,3.646-4.954c0.93-1.797,1.751-4.101,2.464-6.911l-4.093-4.094
			L680.409-124.25z"/>
		<path fill="#006E12" d="M681.388-180.697l36.011-36.011l9.285,9.285l-22.545,22.541l6.911,6.915l20.912-20.916l8.873,8.869
			l-20.916,20.915l8.575,8.572l23.195-23.198l9.848,9.848l-36.664,36.664L681.388-180.697z"/>
		<path fill="#006E12" d="M746.085-245.395l13.466-13.466l43.485,43.488l-13.47,13.466L746.085-245.395z"/>
		<path fill="#006E12" d="M769.042-268.352l17.672-17.672l33.273,19.644l-19.692-33.225l17.661-17.661l43.484,43.485l-11.005,11.005
			l-33.161-33.162l24.681,41.643l-9.956,9.96l-41.629-24.698l33.162,33.161l-11.005,11.005L769.042-268.352z"/>
		<path fill="#006E12" d="M889.572-316.266l-15.256,15.256l5.059,9.296l-13.718,13.721l-27.142-59.831l14.654-14.654l59.828,27.145
			l-14.074,14.071L889.572-316.266z M877.382-322.883l-20.434-10.83l10.883,20.381L877.382-322.883z"/>
		<path fill="#006E12" d="M922.282-366.123l-9.048-9.047L934-395.932l18.535,18.538c-1.266,6.685-2.937,12.043-5.014,16.077
			c-2.073,4.034-5.209,8.149-9.4,12.341c-5.163,5.159-10.246,8.487-15.259,9.98c-5.013,1.492-10.159,1.395-15.427-0.298
			c-5.269-1.688-10.163-4.789-14.669-9.299c-4.744-4.743-7.897-9.851-9.449-15.318c-1.552-5.471-1.35-11.001,0.608-16.598
			c1.545-4.353,4.807-9.02,9.788-14.001c4.807-4.807,8.838-7.964,12.089-9.478s6.579-2.14,9.984-1.884
			c3.397,0.259,6.9,1.395,10.501,3.411l-10.651,15.277c-2.175-1.108-4.335-1.458-6.481-1.053c-2.144,0.406-4.206,1.595-6.185,3.573
			c-2.947,2.947-4.271,6.316-3.975,10.117c0.297,3.796,2.66,7.907,7.09,12.336c4.705,4.709,8.952,7.185,12.742,7.433
			c3.782,0.248,7.257-1.213,10.425-4.377c1.503-1.503,2.72-3.153,3.649-4.953c0.93-1.797,1.748-4.101,2.461-6.912l-4.094-4.093
			L922.282-366.123z"/>
		<path fill="#006E12" d="M923.261-422.57l36.011-36.01l9.284,9.284l-22.544,22.541l6.911,6.915l20.912-20.915l8.869,8.868
			l-20.912,20.916l8.571,8.571l23.198-23.198l9.848,9.848l-36.66,36.664L923.261-422.57z"/>
		<path fill="#006E12" d="M987.954-487.268l13.466-13.466l43.488,43.488l-13.466,13.466L987.954-487.268z"/>
		<path fill="#006E12" d="M1010.915-510.225l17.671-17.671l33.277,19.643l-19.695-33.224l17.66-17.661l43.488,43.484l-11.005,11.005
			l-33.165-33.161l24.685,41.642l-9.963,9.96l-41.629-24.698l33.169,33.161l-11.005,11.005L1010.915-510.225z"/>
		<path fill="#006E12" d="M1131.445-558.138l-15.256,15.255l5.059,9.296l-13.722,13.721l-27.142-59.831l14.658-14.654l59.827,27.146
			l-14.07,14.07L1131.445-558.138z M1119.251-564.756l-20.43-10.83l10.882,20.381L1119.251-564.756z"/>
		<path fill="#006E12" d="M1164.152-607.995l-9.048-9.048l20.766-20.762l18.542,18.539c-1.266,6.684-2.937,12.043-5.014,16.077
			c-2.076,4.034-5.212,8.148-9.403,12.34c-5.16,5.16-10.25,8.488-15.263,9.98c-5.013,1.493-10.152,1.396-15.424-0.297
			c-5.271-1.688-10.159-4.789-14.668-9.299c-4.748-4.744-7.894-9.852-9.446-15.319c-1.552-5.471-1.35-11.001,0.608-16.598
			c1.538-4.349,4.804-9.02,9.788-14.001c4.804-4.807,8.831-7.963,12.085-9.477c3.255-1.514,6.583-2.14,9.98-1.885
			c3.405,0.259,6.901,1.395,10.502,3.412l-10.648,15.276c-2.175-1.108-4.335-1.457-6.481-1.052s-4.209,1.594-6.184,3.572
			c-2.947,2.947-4.272,6.317-3.975,10.117c0.293,3.797,2.656,7.907,7.089,12.337c4.706,4.709,8.953,7.184,12.739,7.432
			c3.789,0.248,7.264-1.209,10.428-4.376c1.5-1.504,2.717-3.153,3.646-4.954c0.93-1.797,1.751-4.101,2.465-6.911l-4.094-4.094
			L1164.152-607.995z"/>
		<path fill="#006E12" d="M1165.133-664.442l36.011-36.011l9.285,9.285l-22.545,22.541l6.911,6.914l20.912-20.915l8.873,8.872
			l-20.916,20.912l8.575,8.572l23.195-23.198l9.848,9.851l-36.664,36.661L1165.133-664.442z"/>
	</g>
	<g opacity="0.15">
		<path fill="#006E12" d="M-273.437,926l13.47-13.466l43.484,43.484l-13.466,13.47L-273.437,926z"/>
		<path fill="#006E12" d="M-250.476,903.043l17.671-17.675l33.273,19.646l-19.691-33.228l17.66-17.661l43.488,43.488l-11.005,11.005
			l-33.165-33.165l24.685,41.646l-9.96,9.96l-41.628-24.702l33.161,33.165l-11.005,11.005L-250.476,903.043z"/>
		<path fill="#006E12" d="M-129.947,855.126l-15.256,15.256l5.059,9.299l-13.718,13.721l-27.142-59.831l14.654-14.658l59.827,27.146
			l-14.07,14.074L-129.947,855.126z M-142.137,848.512l-20.433-10.834l10.882,20.385L-142.137,848.512z"/>
		<path fill="#006E12" d="M-97.237,805.271l-9.047-9.047l20.765-20.766l18.539,18.542c-1.266,6.685-2.937,12.043-5.014,16.077
			c-2.076,4.034-5.212,8.146-9.403,12.341c-5.16,5.159-10.25,8.487-15.263,9.98c-5.014,1.493-10.152,1.395-15.424-0.297
			c-5.269-1.692-10.159-4.79-14.669-9.299c-4.747-4.748-7.894-9.855-9.445-15.322c-1.552-5.468-1.353-10.998,0.608-16.595
			c1.542-4.353,4.803-9.02,9.788-14.001c4.804-4.807,8.834-7.967,12.085-9.478c3.255-1.514,6.583-2.143,9.984-1.884
			c3.401,0.255,6.9,1.395,10.498,3.412l-10.648,15.276c-2.175-1.108-4.335-1.461-6.481-1.056s-4.205,1.598-6.184,3.576
			c-2.947,2.947-4.272,6.317-3.975,10.113c0.297,3.797,2.66,7.911,7.089,12.341c4.706,4.705,8.953,7.184,12.739,7.432
			c3.789,0.245,7.264-1.213,10.428-4.377c1.503-1.503,2.72-3.153,3.649-4.953c0.93-1.801,1.748-4.104,2.461-6.911l-4.093-4.094
			L-97.237,805.271z"/>
		<path fill="#006E12" d="M-96.259,748.824l36.011-36.014l9.285,9.285l-22.545,22.545l6.911,6.911l20.912-20.912l8.873,8.868
			l-20.916,20.912l8.575,8.576l23.195-23.199l9.848,9.848l-36.664,36.665L-96.259,748.824z"/>
		<path fill="#006E12" d="M-31.564,684.127l13.469-13.466l43.485,43.485l-13.466,13.469L-31.564,684.127z"/>
		<path fill="#006E12" d="M-8.604,661.17l17.672-17.675l33.273,19.646l-19.692-33.228l17.661-17.661l43.488,43.488l-11.005,11.005
			l-33.165-33.165l24.684,41.646l-9.959,9.959l-41.629-24.701l33.162,33.165l-11.005,11.005L-8.604,661.17z"/>
		<path fill="#006E12" d="M111.925,613.253l-15.256,15.256l5.059,9.299L88.01,651.529l-27.142-59.831l14.654-14.658l59.828,27.145
			l-14.07,14.074L111.925,613.253z M99.736,606.639l-20.434-10.833l10.883,20.384L99.736,606.639z"/>
		<path fill="#006E12" d="M144.636,563.399l-9.048-9.048l20.766-20.765l18.538,18.542c-1.266,6.684-2.937,12.043-5.013,16.077
			c-2.077,4.034-5.213,8.146-9.404,12.34c-5.159,5.16-10.249,8.488-15.263,9.98c-5.013,1.493-10.151,1.396-15.423-0.297
			c-5.269-1.691-10.159-4.789-14.669-9.299c-4.747-4.747-7.894-9.854-9.445-15.322c-1.556-5.468-1.354-10.998,0.607-16.595
			c1.542-4.353,4.804-9.02,9.789-14.001c4.803-4.807,8.834-7.967,12.085-9.477c3.255-1.514,6.582-2.144,9.984-1.885
			c3.401,0.256,6.9,1.396,10.497,3.412L137.99,542.34c-2.175-1.107-4.335-1.461-6.481-1.056c-2.146,0.406-4.206,1.598-6.185,3.576
			c-2.946,2.947-4.271,6.317-3.975,10.114c0.297,3.796,2.66,7.911,7.09,12.34c4.705,4.705,8.952,7.184,12.738,7.433
			c3.79,0.244,7.265-1.214,10.429-4.377c1.503-1.504,2.72-3.153,3.649-4.954c0.93-1.8,1.748-4.104,2.461-6.911l-4.094-4.094
			L144.636,563.399z"/>
		<path fill="#006E12" d="M145.615,506.952l36.011-36.014l9.284,9.284l-22.544,22.545l6.911,6.911l20.912-20.912l8.869,8.869
			l-20.912,20.912l8.575,8.575l23.194-23.198l9.848,9.848l-36.664,36.664L145.615,506.952z"/>
		<path fill="#006E12" d="M210.308,442.255l13.47-13.466l43.484,43.484l-13.466,13.47L210.308,442.255z"/>
		<path fill="#006E12" d="M233.269,419.298l17.671-17.672l33.273,19.644l-19.691-33.228l17.66-17.661l43.488,43.488l-11.005,11.005
			L281.5,391.709l24.685,41.646l-9.96,9.96l-41.628-24.702l33.161,33.165l-11.005,11.005L233.269,419.298z"/>
		<path fill="#006E12" d="M353.798,371.381l-15.256,15.256l5.059,9.299l-13.718,13.721l-27.142-59.831l14.654-14.658l59.828,27.146
			l-14.071,14.074L353.798,371.381z M341.608,364.767l-20.433-10.834l10.882,20.385L341.608,364.767z"/>
		<path fill="#006E12" d="M386.508,321.526l-9.047-9.047l20.762-20.766l18.542,18.542c-1.266,6.685-2.937,12.043-5.013,16.077
			c-2.077,4.034-5.213,8.146-9.404,12.341c-5.159,5.159-10.25,8.487-15.263,9.98c-5.013,1.492-10.151,1.395-15.424-0.297
			c-5.268-1.692-10.159-4.79-14.668-9.299c-4.748-4.748-7.894-9.855-9.446-15.322c-1.556-5.468-1.353-10.998,0.604-16.595
			c1.546-4.353,4.808-9.02,9.792-14.001c4.804-4.807,8.834-7.967,12.086-9.478c3.254-1.514,6.582-2.143,9.983-1.884
			c3.401,0.255,6.901,1.395,10.498,3.412l-10.648,15.276c-2.174-1.108-4.334-1.461-6.48-1.056s-4.206,1.598-6.185,3.576
			c-2.947,2.947-4.272,6.316-3.975,10.113c0.297,3.797,2.66,7.911,7.09,12.34c4.705,4.709,8.952,7.185,12.738,7.433
			c3.79,0.245,7.265-1.213,10.425-4.377c1.503-1.503,2.72-3.153,3.649-4.953c0.93-1.801,1.752-4.104,2.461-6.911l-4.09-4.094
			L386.508,321.526z"/>
		<path fill="#006E12" d="M387.488,265.079l36.011-36.014l9.284,9.285l-22.544,22.544l6.911,6.912l20.912-20.912l8.868,8.868
			l-20.912,20.912l8.576,8.575l23.19-23.198l9.852,9.848l-36.664,36.665L387.488,265.079z"/>
		<path fill="#006E12" d="M452.181,200.382l13.47-13.466l43.48,43.484l-13.466,13.47L452.181,200.382z"/>
		<path fill="#006E12" d="M475.138,177.425l17.675-17.671l33.273,19.643l-19.691-33.228l17.66-17.661l43.484,43.488l-11.004,11.005
			l-33.162-33.165l24.681,41.646l-9.956,9.96L496.47,176.74l33.161,33.165l-11.005,11.005L475.138,177.425z"/>
		<path fill="#006E12" d="M595.671,129.508l-15.256,15.256l5.058,9.299l-13.717,13.721l-27.142-59.83l14.654-14.658l59.827,27.146
			l-14.074,14.073L595.671,129.508z M583.481,122.894l-20.437-10.833l10.886,20.384L583.481,122.894z"/>
		<path fill="#006E12" d="M628.381,79.654l-9.047-9.047l20.765-20.766l18.535,18.542c-1.266,6.684-2.937,12.043-5.013,16.077
			c-2.077,4.034-5.209,8.146-9.404,12.34c-5.16,5.16-10.246,8.488-15.259,9.981c-5.014,1.492-10.155,1.395-15.428-0.298
			c-5.265-1.691-10.158-4.789-14.668-9.299c-4.744-4.747-7.894-9.854-9.446-15.322c-1.552-5.467-1.349-10.998,0.608-16.595
			c1.546-4.352,4.804-9.019,9.788-14.001c4.808-4.807,8.838-7.967,12.089-9.477c3.251-1.514,6.579-2.144,9.984-1.885
			c3.397,0.256,6.9,1.396,10.498,3.412l-10.648,15.277c-2.178-1.108-4.339-1.462-6.481-1.056c-2.146,0.405-4.205,1.597-6.184,3.576
			c-2.947,2.946-4.272,6.316-3.979,10.113c0.301,3.796,2.664,7.911,7.09,12.34c4.708,4.709,8.956,7.184,12.742,7.433
			c3.785,0.244,7.261-1.214,10.428-4.377c1.503-1.503,2.72-3.153,3.649-4.954c0.93-1.8,1.748-4.104,2.461-6.911l-4.097-4.094
			L628.381,79.654z"/>
		<path fill="#006E12" d="M629.36,23.207l36.008-36.011l9.284,9.281l-22.541,22.545l6.911,6.911l20.912-20.912l8.869,8.869
			l-20.912,20.912l8.572,8.575l23.198-23.198l9.848,9.848l-36.664,36.664L629.36,23.207z"/>
		<path fill="#006E12" d="M694.054-41.49l13.466-13.466l43.488,43.484l-13.467,13.47L694.054-41.49z"/>
		<path fill="#006E12" d="M717.014-64.447l17.668-17.671l33.277,19.643l-19.692-33.228l17.661-17.661l43.488,43.488l-11.005,11.005
			l-33.169-33.165l24.688,41.646l-9.963,9.96l-41.628-24.698l33.165,33.161l-11.005,11.005L717.014-64.447z"/>
		<path fill="#006E12" d="M837.543-112.364l-15.256,15.256l5.059,9.299l-13.721,13.721l-27.142-59.831l14.657-14.658l59.824,27.146
			l-14.067,14.074L837.543-112.364z M825.35-118.979l-20.43-10.834l10.883,20.385L825.35-118.979z"/>
		<path fill="#006E12" d="M870.25-162.219l-9.047-9.047l20.765-20.766l18.542,18.542c-1.266,6.685-2.937,12.043-5.013,16.077
			c-2.077,4.034-5.213,8.146-9.404,12.341c-5.159,5.16-10.249,8.487-15.263,9.98c-5.013,1.492-10.151,1.395-15.424-0.297
			c-5.271-1.692-10.158-4.79-14.668-9.299c-4.747-4.748-7.894-9.855-9.449-15.322c-1.552-5.468-1.35-10.998,0.608-16.595
			c1.542-4.353,4.807-9.02,9.792-14.001c4.803-4.807,8.83-7.967,12.085-9.478c3.254-1.514,6.582-2.143,9.98-1.884
			c3.405,0.255,6.9,1.395,10.501,3.412l-10.648,15.276c-2.174-1.108-4.334-1.461-6.48-1.056s-4.209,1.598-6.188,3.576
			c-2.944,2.947-4.269,6.317-3.972,10.113c0.294,3.797,2.657,7.911,7.09,12.341c4.705,4.708,8.952,7.184,12.738,7.432
			c3.79,0.248,7.265-1.213,10.425-4.377c1.503-1.503,2.72-3.153,3.649-4.953c0.93-1.801,1.752-4.104,2.461-6.911l-4.09-4.094
			L870.25-162.219z"/>
		<path fill="#006E12" d="M871.229-218.666l36.015-36.01l9.284,9.281l-22.544,22.545l6.911,6.911l20.912-20.912l8.869,8.869
			l-20.912,20.911l8.575,8.575l23.191-23.198l9.851,9.849l-36.664,36.664L871.229-218.666z"/>
		<path fill="#006E12" d="M935.926-283.362l13.47-13.467l43.481,43.485l-13.467,13.469L935.926-283.362z"/>
		<path fill="#006E12" d="M958.883-306.32l17.675-17.671l33.273,19.643l-19.691-33.228l17.66-17.661l43.485,43.488l-11.005,11.005
			l-33.162-33.165l24.681,41.646l-9.956,9.959l-41.628-24.698l33.161,33.162l-11.005,11.005L958.883-306.32z"/>
		<path fill="#006E12" d="M1079.416-354.237l-15.256,15.256l5.059,9.299l-13.722,13.722l-27.142-59.831l14.658-14.658l59.827,27.145
			l-14.074,14.074L1079.416-354.237z M1067.226-360.852l-20.437-10.833l10.886,20.384L1067.226-360.852z"/>
		<path fill="#006E12" d="M1112.126-404.091l-9.047-9.048l20.765-20.765l18.535,18.542c-1.266,6.684-2.937,12.043-5.013,16.077
			c-2.077,4.034-5.209,8.146-9.404,12.34c-5.159,5.16-10.246,8.488-15.259,9.98c-5.014,1.493-10.155,1.396-15.428-0.297
			c-5.268-1.691-10.158-4.789-14.668-9.299c-4.744-4.747-7.894-9.854-9.445-15.322c-1.553-5.468-1.35-10.998,0.607-16.595
			c1.546-4.353,4.804-9.02,9.789-14.001c4.807-4.807,8.837-7.967,12.088-9.477c3.251-1.514,6.579-2.144,9.984-1.885
			c3.398,0.256,6.9,1.396,10.498,3.412l-10.648,15.276c-2.178-1.107-4.338-1.461-6.481-1.056c-2.146,0.406-4.205,1.598-6.184,3.576
			c-2.947,2.947-4.272,6.317-3.979,10.114c0.301,3.796,2.664,7.91,7.09,12.34c4.709,4.709,8.956,7.184,12.742,7.432
			c3.786,0.249,7.261-1.213,10.428-4.376c1.503-1.504,2.72-3.153,3.649-4.954c0.927-1.8,1.748-4.104,2.461-6.911l-4.097-4.094
			L1112.126-404.091z"/>
		<path fill="#006E12" d="M1113.105-460.538l36.008-36.011l9.284,9.281l-22.541,22.545l6.911,6.911l20.912-20.912l8.869,8.869
			l-20.912,20.912l8.572,8.575l23.198-23.198l9.848,9.848l-36.664,36.664L1113.105-460.538z"/>
	</g>
	<g opacity="0.15">
		<path fill="#006E12" d="M-311.405,1115.845l13.47-13.466l43.484,43.484l-13.466,13.466L-311.405,1115.845z"/>
		<path fill="#006E12" d="M-288.445,1092.884l17.672-17.672l33.273,19.647l-19.692-33.229l17.661-17.66l43.488,43.487
			l-11.009,11.005l-33.161-33.165l24.684,41.643l-9.963,9.963l-41.625-24.701l33.162,33.165l-11.005,11.005L-288.445,1092.884z"/>
		<path fill="#006E12" d="M-167.916,1044.97l-15.256,15.256l5.059,9.299l-13.721,13.722l-27.142-59.831l14.658-14.658l59.827,27.145
			l-14.07,14.071L-167.916,1044.97z M-180.105,1038.355l-20.434-10.833l10.883,20.384L-180.105,1038.355z"/>
		<path fill="#006E12" d="M-135.205,995.116l-9.048-9.048l20.766-20.765l18.538,18.538c-1.266,6.685-2.937,12.047-5.013,16.081
			c-2.076,4.03-5.212,8.146-9.404,12.337c-5.159,5.163-10.249,8.491-15.263,9.984c-5.013,1.492-10.155,1.391-15.423-0.298
			c-5.272-1.691-10.159-4.793-14.669-9.299c-4.747-4.747-7.896-9.854-9.449-15.322c-1.552-5.468-1.35-11.001,0.608-16.595
			c1.545-4.352,4.807-9.019,9.792-14.004c4.803-4.804,8.834-7.964,12.085-9.478c3.255-1.51,6.582-2.14,9.984-1.881
			c3.401,0.256,6.9,1.392,10.497,3.409l-10.647,15.276c-2.175-1.104-4.335-1.458-6.481-1.052c-2.146,0.405-4.206,1.597-6.185,3.576
			c-2.946,2.943-4.271,6.316-3.975,10.113c0.297,3.796,2.66,7.911,7.09,12.34c4.705,4.705,8.953,7.184,12.738,7.433
			c3.79,0.244,7.265-1.214,10.429-4.377c1.503-1.503,2.72-3.153,3.649-4.954c0.927-1.8,1.748-4.104,2.461-6.911l-4.094-4.094
			L-135.205,995.116z"/>
		<path fill="#006E12" d="M-134.226,938.665l36.011-36.01l9.285,9.284l-22.545,22.545l6.911,6.911l20.912-20.912l8.869,8.869
			l-20.912,20.912l8.571,8.571l23.198-23.194l9.848,9.848l-36.664,36.664L-134.226,938.665z"/>
		<path fill="#006E12" d="M-69.533,873.972l13.47-13.466l43.484,43.484l-13.466,13.466L-69.533,873.972z"/>
		<path fill="#006E12" d="M-46.572,851.011L-28.9,833.34l33.272,19.646l-19.691-33.228l17.661-17.661l43.484,43.488l-11.005,11.005
			L1.659,823.426l24.685,41.643l-9.963,9.963l-41.625-24.702l33.161,33.165l-11.005,11.005L-46.572,851.011z"/>
		<path fill="#006E12" d="M73.957,803.098l-15.256,15.256l5.059,9.299l-13.722,13.721l-27.142-59.831l14.658-14.658l59.828,27.146
			L83.312,808.1L73.957,803.098z M61.767,796.483l-20.433-10.834l10.882,20.385L61.767,796.483z"/>
		<path fill="#006E12" d="M106.667,753.243l-9.047-9.047l20.762-20.766l18.542,18.539c-1.266,6.688-2.937,12.046-5.014,16.08
			c-2.076,4.034-5.212,8.146-9.403,12.337c-5.16,5.164-10.25,8.491-15.263,9.984c-5.013,1.492-10.155,1.395-15.424-0.297
			c-5.271-1.692-10.159-4.793-14.668-9.299c-4.748-4.748-7.897-9.855-9.449-15.322c-1.553-5.468-1.35-11.002,0.608-16.595
			c1.545-4.353,4.807-9.02,9.788-14.005c4.807-4.803,8.837-7.963,12.088-9.477c3.255-1.511,6.583-2.14,9.984-1.881
			c3.401,0.255,6.9,1.391,10.498,3.408l-10.648,15.276c-2.174-1.104-4.335-1.457-6.481-1.052s-4.205,1.598-6.184,3.576
			c-2.947,2.943-4.272,6.317-3.975,10.113c0.297,3.797,2.66,7.911,7.089,12.341c4.706,4.705,8.953,7.184,12.739,7.432
			c3.789,0.245,7.265-1.213,10.428-4.377c1.504-1.503,2.72-3.153,3.649-4.953c0.927-1.801,1.748-4.104,2.462-6.911l-4.094-4.094
			L106.667,753.243z"/>
		<path fill="#006E12" d="M107.647,696.793l36.01-36.011l9.285,9.285l-22.545,22.544l6.912,6.912l20.911-20.912l8.869,8.869
			l-20.912,20.911l8.572,8.572l23.198-23.195l9.848,9.849l-36.664,36.664L107.647,696.793z"/>
		<path fill="#006E12" d="M172.34,632.099l13.47-13.466l43.484,43.485l-13.466,13.466L172.34,632.099z"/>
		<path fill="#006E12" d="M195.301,609.139l17.671-17.672l33.273,19.646l-19.692-33.228l17.661-17.661l43.484,43.488l-11.005,11.005
			l-33.161-33.165l24.684,41.643l-9.963,9.963l-41.625-24.701l33.162,33.165l-11.005,11.005L195.301,609.139z"/>
		<path fill="#006E12" d="M315.829,561.225l-15.256,15.256l5.059,9.299l-13.721,13.722L264.77,539.67l14.658-14.658l59.827,27.145
			l-14.07,14.071L315.829,561.225z M303.64,554.61l-20.434-10.833l10.883,20.384L303.64,554.61z"/>
		<path fill="#006E12" d="M348.54,511.371l-9.048-9.048l20.762-20.765l18.543,18.542c-1.266,6.684-2.937,12.043-5.014,16.077
			c-2.076,4.034-5.212,8.146-9.403,12.337c-5.164,5.163-10.25,8.491-15.264,9.983c-5.013,1.493-10.155,1.396-15.423-0.297
			c-5.272-1.691-10.159-4.793-14.669-9.299c-4.747-4.747-7.896-9.854-9.449-15.322c-1.552-5.468-1.35-11.001,0.608-16.595
			c1.545-4.353,4.807-9.02,9.788-14.001c4.807-4.807,8.838-7.967,12.089-9.48c3.255-1.51,6.583-2.14,9.984-1.881
			c3.397,0.256,6.9,1.392,10.498,3.408l-10.648,15.277c-2.175-1.104-4.335-1.458-6.481-1.053c-2.146,0.406-4.205,1.598-6.185,3.576
			c-2.946,2.944-4.271,6.317-3.975,10.114c0.298,3.796,2.66,7.91,7.09,12.34c4.705,4.705,8.953,7.184,12.738,7.432
			c3.79,0.245,7.265-1.213,10.429-4.376c1.503-1.504,2.72-3.153,3.649-4.954c0.927-1.8,1.748-4.104,2.461-6.911l-4.094-4.094
			L348.54,511.371z"/>
		<path fill="#006E12" d="M349.519,454.92l36.011-36.01l9.281,9.284l-22.541,22.545l6.911,6.911l20.912-20.912l8.869,8.869
			L388.05,466.52l8.572,8.571l23.198-23.194l9.844,9.848l-36.66,36.664L349.519,454.92z"/>
		<path fill="#006E12" d="M414.213,390.227l13.466-13.466l43.488,43.484l-13.466,13.466L414.213,390.227z"/>
		<path fill="#006E12" d="M437.173,367.266l17.668-17.671l33.277,19.646l-19.692-33.228l17.661-17.661l43.484,43.488l-11.005,11.005
			l-33.165-33.165l24.688,41.642l-9.963,9.964l-41.628-24.702l33.165,33.165l-11.005,11.005L437.173,367.266z"/>
		<path fill="#006E12" d="M557.702,319.353l-15.256,15.255l5.059,9.3l-13.721,13.721l-27.142-59.831l14.657-14.658l59.824,27.146
			l-14.067,14.07L557.702,319.353z M545.509,312.738l-20.43-10.834l10.879,20.385L545.509,312.738z"/>
		<path fill="#006E12" d="M590.409,269.498l-9.047-9.047l20.765-20.766l18.542,18.542c-1.266,6.685-2.937,12.043-5.013,16.077
			c-2.077,4.034-5.213,8.146-9.404,12.337c-5.163,5.163-10.249,8.491-15.263,9.984c-5.013,1.492-10.155,1.395-15.423-0.297
			c-5.272-1.692-10.159-4.79-14.669-9.3c-4.747-4.747-7.897-9.854-9.449-15.321c-1.552-5.468-1.35-11.002,0.608-16.595
			c1.542-4.353,4.807-9.02,9.788-14.001c4.807-4.807,8.834-7.967,12.089-9.48c3.255-1.511,6.582-2.14,9.98-1.881
			c3.401,0.255,6.9,1.391,10.501,3.408l-10.647,15.276c-2.175-1.104-4.335-1.457-6.481-1.052s-4.209,1.598-6.188,3.576
			c-2.943,2.947-4.272,6.316-3.972,10.113c0.294,3.797,2.657,7.911,7.09,12.34c4.705,4.706,8.949,7.185,12.738,7.433
			c3.79,0.244,7.265-1.213,10.425-4.377c1.503-1.503,2.72-3.153,3.649-4.953c0.93-1.801,1.752-4.104,2.461-6.911l-4.09-4.094
			L590.409,269.498z"/>
		<path fill="#006E12" d="M591.388,213.048l36.015-36.011l9.284,9.285l-22.548,22.544l6.915,6.912l20.912-20.912l8.869,8.868
			l-20.912,20.912l8.571,8.572l23.195-23.195l9.851,9.848l-36.664,36.665L591.388,213.048z"/>
		<path fill="#006E12" d="M656.085,148.354l13.466-13.466l43.485,43.484l-13.466,13.467L656.085,148.354z"/>
		<path fill="#006E12" d="M679.042,125.394l17.675-17.672l33.273,19.646l-19.691-33.228l17.657-17.661l43.488,43.488l-11.005,11.005
			l-33.162-33.165l24.681,41.643l-9.959,9.963l-41.625-24.701l33.161,33.165l-11.005,11.005L679.042,125.394z"/>
		<path fill="#006E12" d="M799.572,77.479l-15.256,15.256l5.063,9.299l-13.722,13.722l-27.142-59.831l14.658-14.658L823,68.411
			l-14.074,14.071L799.572,77.479z M787.382,70.865l-20.434-10.833l10.886,20.384L787.382,70.865z"/>
		<path fill="#006E12" d="M832.285,27.626l-9.047-9.048L844-2.187l18.538,18.542c-1.266,6.684-2.937,12.043-5.013,16.077
			c-2.077,4.034-5.209,8.146-9.404,12.337c-5.159,5.163-10.246,8.491-15.259,9.983c-5.013,1.493-10.155,1.396-15.427-0.297
			c-5.269-1.691-10.159-4.789-14.669-9.299c-4.744-4.747-7.894-9.854-9.445-15.322c-1.553-5.467-1.35-10.998,0.607-16.595
			c1.542-4.353,4.804-9.019,9.789-14.001c4.803-4.807,8.837-7.967,12.088-9.477c3.251-1.514,6.579-2.144,9.98-1.885
			c3.402,0.256,6.904,1.396,10.502,3.412L825.637,6.563c-2.175-1.104-4.335-1.458-6.481-1.053c-2.144,0.406-4.206,1.598-6.181,3.577
			c-2.951,2.946-4.272,6.316-3.979,10.113c0.301,3.796,2.664,7.911,7.09,12.34c4.709,4.705,8.956,7.184,12.742,7.433
			c3.786,0.244,7.261-1.214,10.428-4.377c1.503-1.503,2.72-3.153,3.646-4.954c0.93-1.8,1.751-4.104,2.465-6.911l-4.098-4.094
			L832.285,27.626z"/>
		<path fill="#006E12" d="M833.264-28.825l36.008-36.01l9.284,9.284l-22.541,22.545l6.908,6.911l20.915-20.912l8.869,8.869
			l-20.912,20.912l8.572,8.571l23.198-23.194l9.844,9.848l-36.66,36.664L833.264-28.825z"/>
		<path fill="#006E12" d="M897.958-93.519l13.466-13.466L954.912-63.5l-13.466,13.47L897.958-93.519z"/>
		<path fill="#006E12" d="M920.918-116.479l17.668-17.671l33.277,19.646l-19.692-33.228l17.661-17.661l43.484,43.488l-11.005,11.005
			l-33.165-33.165l24.688,41.642l-9.963,9.964l-41.628-24.702l33.165,33.165l-11.005,11.005L920.918-116.479z"/>
		<path fill="#006E12" d="M1041.448-164.393l-15.256,15.256l5.059,9.299l-13.721,13.721l-27.142-59.831l14.658-14.658l59.823,27.146
			l-14.066,14.07L1041.448-164.393z M1029.254-171.007l-20.43-10.834l10.879,20.385L1029.254-171.007z"/>
		<path fill="#006E12" d="M1074.155-214.247l-9.047-9.047l20.765-20.766l18.542,18.542c-1.266,6.685-2.937,12.043-5.013,16.077
			s-5.212,8.146-9.403,12.337c-5.164,5.163-10.25,8.491-15.264,9.984c-5.013,1.492-10.155,1.395-15.423-0.297
			c-5.272-1.692-10.159-4.79-14.669-9.299c-4.747-4.748-7.896-9.855-9.449-15.322c-1.552-5.468-1.35-10.998,0.608-16.595
			c1.542-4.353,4.807-9.02,9.788-14.001c4.807-4.807,8.834-7.967,12.089-9.478c3.255-1.514,6.579-2.143,9.98-1.884
			c3.401,0.255,6.9,1.395,10.501,3.412l-10.647,15.272c-2.175-1.104-4.335-1.457-6.481-1.052s-4.209,1.598-6.188,3.576
			c-2.943,2.947-4.272,6.317-3.972,10.113c0.294,3.797,2.657,7.911,7.09,12.341c4.705,4.705,8.949,7.184,12.738,7.432
			c3.786,0.245,7.265-1.213,10.425-4.377c1.503-1.503,2.72-3.153,3.649-4.953c0.931-1.801,1.752-4.104,2.462-6.911l-4.091-4.094
			L1074.155-214.247z"/>
		<path fill="#006E12" d="M1075.133-270.694l36.015-36.014l9.285,9.285l-22.549,22.545l6.915,6.911l20.912-20.912l8.869,8.868
			l-20.912,20.912l8.571,8.575l23.195-23.198l9.851,9.848l-36.664,36.665L1075.133-270.694z"/>
		<path fill="#006E12" d="M1139.83-335.392l13.467-13.466l43.484,43.485l-13.466,13.469L1139.83-335.392z"/>
		<path fill="#006E12" d="M1162.787-358.349l17.676-17.675l33.272,19.646l-19.695-33.228l17.661-17.661l43.488,43.488
			l-11.005,11.005l-33.161-33.165l24.68,41.643l-9.959,9.963l-41.625-24.701l33.161,33.165l-11.005,11.005L1162.787-358.349z"/>
		<path fill="#006E12" d="M1283.317-406.266l-15.256,15.256l5.063,9.299l-13.722,13.722l-27.142-59.831l14.658-14.658l59.828,27.145
			l-14.074,14.071L1283.317-406.266z M1271.127-412.88l-20.434-10.833l10.887,20.384L1271.127-412.88z"/>
		<path fill="#006E12" d="M1316.031-456.119l-9.047-9.048l20.762-20.765l18.538,18.542c-1.266,6.684-2.937,12.043-5.013,16.077
			s-5.209,8.146-9.404,12.34c-5.159,5.16-10.246,8.488-15.259,9.98c-5.013,1.493-10.155,1.396-15.427-0.297
			c-5.269-1.692-10.159-4.789-14.669-9.299c-4.744-4.747-7.894-9.854-9.445-15.322c-1.553-5.468-1.35-10.998,0.608-16.595
			c1.541-4.353,4.803-9.02,9.788-14.001c4.803-4.807,8.837-7.967,12.088-9.477c3.252-1.514,6.58-2.144,9.981-1.885
			c3.401,0.256,6.904,1.396,10.501,3.412l-10.651,15.273c-2.175-1.104-4.335-1.458-6.481-1.053
			c-2.143,0.406-4.206,1.598-6.181,3.576c-2.95,2.947-4.272,6.317-3.979,10.114c0.301,3.796,2.664,7.91,7.09,12.34
			c4.705,4.705,8.956,7.184,12.742,7.432c3.786,0.245,7.261-1.213,10.428-4.376c1.504-1.504,2.72-3.153,3.646-4.954
			c0.93-1.8,1.751-4.104,2.465-6.911l-4.098-4.094L1316.031-456.119z"/>
		<path fill="#006E12" d="M1317.01-512.566l36.007-36.014l9.285,9.284l-22.542,22.545l6.908,6.911l20.916-20.912l8.868,8.869
			l-20.912,20.912l8.572,8.575l23.198-23.198l9.844,9.848l-36.66,36.664L1317.01-512.566z"/>
	</g>
</g>
</svg>
