<?xml version="1.0" encoding="utf-8"?>
<!-- Generator: Adobe Illustrator 15.0.2, SVG Export Plug-In . SVG Version: 6.00 Build 0)  -->
<!DOCTYPE svg PUBLIC "-//W3C//DTD SVG 1.1//EN" "http://www.w3.org/Graphics/SVG/1.1/DTD/svg11.dtd">
<svg version="1.1" id="WB_x5F_NoPatch" xmlns="http://www.w3.org/2000/svg" xmlns:xlink="http://www.w3.org/1999/xlink" x="0px"
	 y="0px" width="14px" height="10px" viewBox="0 0 14 10" enable-background="new 0 0 14 10" xml:space="preserve">
<g>
	<g>
		<path fill="#FFFFFE" d="M13.157,1.184c-0.455,0.202-0.941,0.337-1.451,0.399c0.522-0.313,0.922-0.809,1.11-1.397
			c-0.489,0.289-1.028,0.499-1.604,0.614C10.751,0.308,10.096,0,9.367,0C7.973,0,6.841,1.131,6.841,2.525
			c0,0.197,0.022,0.393,0.066,0.576c-2.1-0.105-3.96-1.111-5.206-2.64C1.483,0.833,1.36,1.267,1.36,1.73
			c0,0.877,0.446,1.65,1.124,2.103C2.069,3.817,1.68,3.705,1.34,3.515v0.033c0,1.224,0.871,2.243,2.026,2.476
			C3.153,6.08,2.932,6.111,2.699,6.111c-0.162,0-0.321-0.016-0.475-0.047c0.321,1.004,1.254,1.732,2.36,1.754
			c-0.865,0.678-1.956,1.08-3.137,1.08c-0.205,0-0.405-0.015-0.604-0.035C1.962,9.582,3.29,10,4.716,10
			C9.361,10,11.9,6.15,11.9,2.813l-0.008-0.327C12.389,2.135,12.816,1.69,13.157,1.184z"/>
	</g>
</g>
</svg>
