<?xml version="1.0" encoding="utf-8"?>
<!-- Generator: Adobe Illustrator 15.0.2, SVG Export Plug-In . SVG Version: 6.00 Build 0)  -->
<!DOCTYPE svg PUBLIC "-//W3C//DTD SVG 1.1//EN" "http://www.w3.org/Graphics/SVG/1.1/DTD/svg11.dtd">
<svg version="1.1" id="Calque_1" xmlns="http://www.w3.org/2000/svg" xmlns:xlink="http://www.w3.org/1999/xlink" x="0px" y="0px"
	 width="266px" height="520px" viewBox="0 0 266 520" enable-background="new 0 0 266 520" xml:space="preserve">
<path d="M266,19.16c0,0,0-0.015-0.002-0.038c-0.027-0.43-0.372-4.692-3.196-8.661c-0.094-0.132-0.194-0.261-0.3-0.388
	c-1.425-1.688-3.911-2.817-6.82-3.59c-3.738-0.993-8.175-1.398-11.957-1.638c-6.574-0.417-54.203-4.38-102.465-4.807
	C138.506,0.014,135.751,0,133,0s-5.506,0.014-8.26,0.038C76.479,0.465,28.85,4.428,22.276,4.845
	c-3.783,0.24-8.22,0.645-11.958,1.638c-2.909,0.773-5.396,1.902-6.819,3.59c-0.106,0.126-0.207,0.255-0.301,0.388
	c-2.824,3.969-3.169,8.231-3.196,8.661C0,19.145,0,19.16,0,19.16h0.002C0,19.282,0,19.405,0,19.528v477.008
	C0,509.574-0.684,520,104.437,520H133h28.563C266.684,520,266,509.574,266,496.536V19.528c0-0.124,0-0.246-0.002-0.369L266,19.16z"
	/>
<circle fill="#191C21" cx="202.467" cy="21.273" r="4.405"/>
<path fill="#191C21" d="M153.979,18.685h-41.957c-1.429,0-2.588,1.158-2.588,2.588c0,1.429,1.159,2.588,2.588,2.588h41.957
	c1.431,0,2.588-1.159,2.588-2.588C156.566,19.843,155.408,18.685,153.979,18.685z"/>
</svg>
