<?xml version="1.0" encoding="utf-8"?>
<!-- Generator: Adobe Illustrator 15.0.2, SVG Export Plug-In . SVG Version: 6.00 Build 0)  -->
<!DOCTYPE svg PUBLIC "-//W3C//DTD SVG 1.1//EN" "http://www.w3.org/Graphics/SVG/1.1/DTD/svg11.dtd">
<svg version="1.1" id="Calque_1" xmlns="http://www.w3.org/2000/svg" xmlns:xlink="http://www.w3.org/1999/xlink" x="0px" y="0px"
	 width="240px" height="427px" viewBox="264 440 240 427" enable-background="new 264 440 240 427" xml:space="preserve">
<rect x="264" y="440" width="240" height="15.729"/>
<rect x="264" y="455.729" fill="#542954" width="240" height="34.375"/>
<rect x="264" y="836.688" width="240" height="30.313"/>
<rect x="264" y="490.104" fill="#FFF5F5" width="240" height="30.833"/>
<rect x="264" y="520.938" fill="#FFFFFF" width="240" height="277.312"/>
<circle fill="#2D2D2D" cx="311.577" cy="564.973" r="37.264"/>
<rect x="359.833" y="548.41" fill="#006E12" width="80.834" height="10"/>
<rect x="359.833" y="572.003" fill="#2D2D2D" width="53.541" height="10"/>
<rect x="274.313" y="471.146" fill="#FFFBFF" width="103.437" height="5"/>
<rect x="286.501" y="503.958" fill="#006E12" width="73.333" height="5"/>
<rect x="264" y="798.25" fill="#FFF5F5" width="240" height="38.438"/>
<rect x="280.563" y="814.969" fill="#006E12" width="103.438" height="5"/>
<path fill="#FFFFF0" d="M384,848.094c2.24,0,4.063,1.822,4.063,4.063s-1.822,4.063-4.063,4.063c-2.241,0-4.063-1.822-4.063-4.063
	S381.76,848.094,384,848.094 M384,846.844c-2.935,0-5.313,2.379-5.313,5.313s2.378,5.313,5.313,5.313
	c2.934,0,5.313-2.379,5.313-5.313S386.934,846.844,384,846.844L384,846.844z"/>
<path fill="#FFFFF0" d="M458.063,848.094v8.125h-8.125v-8.125H458.063 M459.313,846.844h-10.625v10.625h10.625V846.844
	L459.313,846.844z"/>
<path fill="#FFFFF0" d="M317.751,847.896v8.52l-6.486-4.26L317.751,847.896 M319.001,845.581l-10.013,6.575l10.013,6.575V845.581
	L319.001,845.581z"/>
<circle fill="#EEEBE8" cx="469.938" cy="764.396" r="18.438"/>
<g id="clear">
	<polygon fill="#808090" points="477.906,765.287 477.905,763.516 470.823,763.516 470.823,756.432 469.053,756.432 
		469.053,763.516 461.97,763.516 461.969,765.287 469.054,765.285 469.051,772.369 470.824,772.369 470.822,765.285 	"/>
</g>
<rect x="274.313" y="651.091" fill="#2D2D2D" width="214.062" height="5"/>
<rect x="274.313" y="669.842" fill="#2D2D2D" width="214.062" height="5"/>
<rect x="274.313" y="688.592" fill="#2D2D2D" width="214.062" height="5"/>
<rect x="274.313" y="613.591" fill="#2D2D2D" width="214.062" height="5"/>
<rect x="274.313" y="632.342" fill="#2D2D2D" width="214.062" height="5"/>
<rect x="274.313" y="707.342" fill="#2D2D2D" width="214.062" height="5"/>
<rect x="274.313" y="726.092" fill="#2D2D2D" width="166.354" height="5"/>
<rect x="274.313" y="764.396" fill="#2D2D2D" width="53.541" height="10"/>
<rect x="346.604" y="764.396" fill="#2D2D2D" width="53.542" height="10"/>
</svg>
