<?xml version="1.0" encoding="utf-8"?>
<!-- Generator: Adobe Illustrator 15.0.2, SVG Export Plug-In . SVG Version: 6.00 Build 0)  -->
<!DOCTYPE svg PUBLIC "-//W3C//DTD SVG 1.1//EN" "http://www.w3.org/Graphics/SVG/1.1/DTD/svg11.dtd">
<svg version="1.1" id="WB_x5F_NoPatch" xmlns="http://www.w3.org/2000/svg" xmlns:xlink="http://www.w3.org/1999/xlink" x="0px"
	 y="0px" width="12px" height="12px" viewBox="0 0 12 12" enable-background="new 0 0 12 12" xml:space="preserve">
<g id="XMLID_13_">
	<path id="XMLID_17_" fill="#FFFFFE" d="M8.424,0h-4.85C1.603,0,0,1.604,0,3.574v4.85C0,10.396,1.604,12,3.574,12h4.85
		C10.396,12,12,10.396,12,8.424v-4.85C12,1.603,10.396,0,8.424,0z M10.793,8.424c0,1.309-1.061,2.367-2.369,2.367h-4.85
		c-1.308,0-2.367-1.06-2.367-2.367V3.573c0-1.308,1.06-2.368,2.367-2.368h4.85c1.31,0,2.369,1.061,2.369,2.368V8.424L10.793,8.424z"
		/>
	<path id="XMLID_81_" fill="#FFFFFE" d="M6,2.896C4.289,2.896,2.896,4.287,2.896,6c0,1.711,1.394,3.104,3.104,3.104
		S9.104,7.711,9.104,6C9.104,4.287,7.711,2.896,6,2.896z M6,7.896C4.953,7.896,4.104,7.045,4.104,6c0-1.047,0.85-1.896,1.896-1.896
		c1.045,0,1.896,0.85,1.896,1.896C7.896,7.045,7.047,7.896,6,7.896z"/>
	<circle id="XMLID_83_" fill="#FFFFFE" cx="9.108" cy="2.918" r="0.744"/>
</g>
</svg>
