<?xml version="1.0" encoding="utf-8"?>
<!-- Generator: Adobe Illustrator 15.0.2, SVG Export Plug-In . SVG Version: 6.00 Build 0)  -->
<!DOCTYPE svg PUBLIC "-//W3C//DTD SVG 1.1//EN" "http://www.w3.org/Graphics/SVG/1.1/DTD/svg11.dtd">
<svg version="1.1" id="App_Store" xmlns="http://www.w3.org/2000/svg" xmlns:xlink="http://www.w3.org/1999/xlink" x="0px" y="0px"
	 width="22px" height="22px" viewBox="0 0 22 22" enable-background="new 0 0 22 22" xml:space="preserve">
<g>
	<path fill="#808090" d="M14.215,3.344C15.043,2.457,15.603,1.227,15.449,0c-1.192,0.043-2.638,0.7-3.494,1.586
		c-0.768,0.785-1.439,2.039-1.26,3.241C12.026,4.918,13.386,4.229,14.215,3.344z"/>
	<path fill="#808090" d="M16.755,11.816c-0.025-2.75,2.178-4.071,2.275-4.135c-1.239-1.868-3.168-2.124-3.854-2.152
		c-1.643-0.173-3.203,0.994-4.037,0.994c-0.83,0-2.115-0.972-3.478-0.945C5.87,5.607,4.221,6.65,3.301,8.303
		c-1.861,3.325-0.477,8.251,1.336,10.947c0.886,1.32,1.941,2.803,3.326,2.748c1.338-0.053,1.842-0.889,3.456-0.889
		s2.066,0.889,3.479,0.862c1.437-0.026,2.346-1.346,3.225-2.671c1.018-1.531,1.436-3.014,1.46-3.088
		C19.553,16.195,16.784,15.105,16.755,11.816z"/>
</g>
</svg>
