<?xml version="1.0" encoding="utf-8"?>
<!-- Generator: Adobe Illustrator 15.0.2, SVG Export Plug-In . SVG Version: 6.00 Build 0)  -->
<!DOCTYPE svg PUBLIC "-//W3C//DTD SVG 1.1//EN" "http://www.w3.org/Graphics/SVG/1.1/DTD/svg11.dtd">
<svg version="1.1" id="WB_x5F_NoPatch" xmlns="http://www.w3.org/2000/svg" xmlns:xlink="http://www.w3.org/1999/xlink" x="0px"
	 y="0px" width="7px" height="12px" viewBox="0 0 7 12" enable-background="new 0 0 7 12" xml:space="preserve">
<g>
	<path fill="#FFFFFE" d="M6.504,0.001L4.945,0C3.193,0,2.062,1.158,2.062,2.953v1.361H0.494c-0.136,0-0.244,0.11-0.244,0.246v1.974
		c0,0.135,0.108,0.244,0.244,0.244h1.567v4.979c0,0.137,0.11,0.244,0.245,0.244h2.045c0.135,0,0.244-0.107,0.244-0.244V6.777h1.832
		c0.137,0,0.245-0.109,0.245-0.244L6.676,4.56c0-0.065-0.025-0.127-0.072-0.173C6.559,4.339,6.496,4.313,6.43,4.313H4.598V3.16
		c0-0.555,0.133-0.836,0.857-0.836h1.049c0.137,0,0.246-0.109,0.246-0.244V0.248C6.75,0.11,6.641,0.001,6.504,0.001z"/>
</g>
</svg>
