<?xml version="1.0" encoding="utf-8"?>
<!-- Generator: Adobe Illustrator 15.0.2, SVG Export Plug-In . SVG Version: 6.00 Build 0)  -->
<!DOCTYPE svg PUBLIC "-//W3C//DTD SVG 1.1//EN" "http://www.w3.org/Graphics/SVG/1.1/DTD/svg11.dtd">
<svg version="1.1" id="WB_x5F_NoPatch" xmlns="http://www.w3.org/2000/svg" xmlns:xlink="http://www.w3.org/1999/xlink" x="0px"
	 y="0px" width="13px" height="10px" viewBox="0 0 13 10" enable-background="new 0 0 13 10" xml:space="preserve">
<g>
	<path fill="#FFFFFE" d="M13,8.334c0,0.293-0.08,0.563-0.21,0.802l-4.104-4.71l4.063-3.644C12.902,1.04,13,1.341,13,1.668V8.334
		L13,8.334z M6.5,5.279l5.65-5.069C11.918,0.081,11.656,0,11.375,0h-9.75C1.342,0,1.082,0.081,0.851,0.21L6.5,5.279z M8.075,4.975
		L6.768,6.146C6.689,6.216,6.596,6.25,6.5,6.25c-0.098,0-0.191-0.034-0.27-0.104L4.924,4.975l-4.157,4.77
		C1.018,9.904,1.308,10,1.625,10h9.75c0.316,0,0.607-0.096,0.857-0.257L8.075,4.975z M0.253,0.782C0.095,1.04,0,1.341,0,1.668v6.667
		c0,0.293,0.08,0.563,0.208,0.801l4.104-4.71L0.253,0.782z"/>
</g>
</svg>
