<?xml version="1.0" encoding="utf-8"?>
<!-- Generator: Adobe Illustrator 15.0.2, SVG Export Plug-In . SVG Version: 6.00 Build 0)  -->
<!DOCTYPE svg PUBLIC "-//W3C//DTD SVG 1.1//EN" "http://www.w3.org/Graphics/SVG/1.1/DTD/svg11.dtd">
<svg version="1.1" id="WB_x5F_NoPatch" xmlns="http://www.w3.org/2000/svg" xmlns:xlink="http://www.w3.org/1999/xlink" x="0px"
	 y="0px" width="12px" height="12px" viewBox="0 0 12 12" enable-background="new 0 0 12 12" xml:space="preserve">
<g>
	<g>
		<path fill="#FFFFFE" d="M1.635,8.728c-0.453,0-0.84,0.159-1.158,0.478C0.158,9.522,0,9.91,0,10.363
			c0,0.455,0.158,0.842,0.477,1.159S1.182,12,1.635,12c0.455,0,0.842-0.158,1.16-0.478c0.317-0.319,0.478-0.704,0.478-1.159
			c0-0.453-0.159-0.841-0.478-1.158C2.477,8.887,2.09,8.728,1.635,8.728z"/>
		<path fill="#FFFFFE" d="M5.402,6.597C4.76,5.949,4.024,5.434,3.194,5.049C2.365,4.666,1.496,4.438,0.588,4.362H0.545
			c-0.147,0-0.271,0.05-0.366,0.146C0.06,4.61,0,4.744,0,4.908v1.15C0,6.2,0.047,6.323,0.14,6.424
			c0.094,0.104,0.212,0.16,0.354,0.172c1.301,0.125,2.412,0.648,3.334,1.572C4.752,9.09,5.275,10.203,5.4,11.504
			c0.012,0.143,0.068,0.261,0.171,0.354C5.674,11.953,5.797,12,5.938,12h1.15c0.166,0,0.3-0.061,0.4-0.18
			c0.108-0.113,0.157-0.251,0.146-0.408c-0.074-0.91-0.303-1.779-0.688-2.608C6.565,7.975,6.049,7.238,5.402,6.597z"/>
		<path fill="#FFFFFE" d="M10.977,7.154c-0.607-1.359-1.443-2.568-2.506-3.626C7.414,2.465,6.205,1.631,4.845,1.022
			C3.483,0.416,2.06,0.074,0.57,0H0.545C0.398,0,0.273,0.051,0.17,0.153C0.058,0.256,0,0.387,0,0.547v1.218
			c0,0.143,0.051,0.266,0.148,0.37c0.1,0.105,0.221,0.16,0.361,0.166c1.223,0.074,2.383,0.365,3.482,0.871
			c1.1,0.504,2.053,1.162,2.863,1.973S8.324,6.908,8.83,8.008c0.504,1.1,0.791,2.26,0.859,3.48c0.006,0.143,0.063,0.264,0.166,0.362
			c0.105,0.1,0.23,0.149,0.38,0.149h1.218c0.158,0,0.289-0.058,0.393-0.172c0.113-0.113,0.164-0.246,0.152-0.4
			C11.924,9.94,11.582,8.516,10.977,7.154z"/>
	</g>
</g>
</svg>
