<?xml version="1.0" encoding="utf-8"?>
<!-- Generator: Adobe Illustrator 15.0.2, SVG Export Plug-In . SVG Version: 6.00 Build 0)  -->
<!DOCTYPE svg PUBLIC "-//W3C//DTD SVG 1.1//EN" "http://www.w3.org/Graphics/SVG/1.1/DTD/svg11.dtd">
<svg version="1.1" id="Calque_1" xmlns="http://www.w3.org/2000/svg" xmlns:xlink="http://www.w3.org/1999/xlink" x="0px" y="0px"
	 width="768px" height="1280px" viewBox="0 0 768 1280" enable-background="new 0 0 768 1280" xml:space="preserve">
<rect width="768" height="50.333"/>
<rect y="50.333" fill="#542954" width="768" height="110.001"/>
<rect y="1183" width="768" height="97"/>
<rect y="160.335" fill="#FFF5F5" width="768" height="159.333"/>
<rect y="319.668" fill="#FFFFFF" width="768" height="863.332"/>
<rect x="33.001" y="99.667" fill="#FFFBFF" width="330.999" height="16"/>
<rect x="138" y="195.667" fill="#006E12" width="492" height="16"/>
<rect x="254" y="255.667" fill="#006E12" width="260" height="16"/>
<rect x="138" y="443.668" fill="#2D2D2D" width="492" height="16"/>
<rect x="298.333" y="1033.668" fill="#2D2D2D" width="171.333" height="16"/>
<rect x="34" y="848.667" fill="#EEEBE8" width="700" height="122.999"/>
<rect x="254" y="902.167" fill="#808090" width="260" height="16"/>
<rect x="36" y="530.667" fill="#DFDFDF" width="696" height="118.999"/>
<path fill="#C8F87C" d="M730,532.667v114.999H38V532.667H730 M734,528.667H34v122.999h700V528.667L734,528.667z"/>
<rect x="68" y="582.167" fill="#808080" width="446" height="16"/>
<rect x="36" y="690.667" fill="#DFDFDF" width="696" height="118.999"/>
<path fill="#C8F87C" d="M730,692.667v114.999H38V692.667H730 M734,688.667H34v122.999h700V688.667L734,688.667z"/>
<rect x="68.5" y="742.167" fill="#808080" width="260" height="16"/>
<path fill="#FFFFF0" d="M384,1219.5c7.168,0,13,5.832,13,13s-5.832,13-13,13s-13-5.832-13-13S376.832,1219.5,384,1219.5 M384,1215.5
	c-9.389,0-17,7.611-17,17s7.611,17,17,17s17-7.611,17-17S393.389,1215.5,384,1215.5L384,1215.5z"/>
<path fill="#FFFFF0" d="M621.001,1219.5v26h-26v-26H621.001 M625.001,1215.5h-34v34h34V1215.5L625.001,1215.5z"/>
<path fill="#FFFFF0" d="M172.001,1218.87v27.26l-20.754-13.63L172.001,1218.87 M176.001,1211.458l-32.042,21.042l32.042,21.042
	V1211.458L176.001,1211.458z"/>
</svg>
