<?xml version="1.0" encoding="utf-8"?>
<!-- Generator: Adobe Illustrator 15.0.2, SVG Export Plug-In . SVG Version: 6.00 Build 0)  -->
<!DOCTYPE svg PUBLIC "-//W3C//DTD SVG 1.1//EN" "http://www.w3.org/Graphics/SVG/1.1/DTD/svg11.dtd">
<svg version="1.1" id="Man_Profil" xmlns="http://www.w3.org/2000/svg" xmlns:xlink="http://www.w3.org/1999/xlink" x="0px" y="0px"
	 width="230px" height="230px" viewBox="0 0 230 230" enable-background="new 0 0 230 230" xml:space="preserve">
<g>
	<path fill="#2D2D2D" d="M100.494,57.115c-15.713-0.333-23.022,7.214-26.399,13.751c-0.138,3.232-0.185,6.514-0.188,9.786
		c0,20.229,8.934,32.762,16.428,39.715c9.442,8.76,19.924,11.944,24.665,11.944c4.744,0,15.219-3.185,24.664-11.944
		c7.494-6.953,16.424-19.486,16.424-39.715c0-3.685-0.057-7.389-0.246-11.02C109.863,79.836,100.494,57.115,100.494,57.115z"/>
	<path fill="#2D2D2D" d="M230,0H0v230h26.733c2.115-20.432,7.254-66.146,16.661-72.479c6.899-4.65,31.347-17.817,41.539-23.265
		c1.179-0.631,2.619-0.508,3.671,0.318c5.401,4.244,11.32,7.109,17.592,8.503c1.106,0.247,2.017,1.03,2.419,2.089l6.384,16.831
		l6.383-16.831c0.406-1.059,1.314-1.842,2.424-2.089c6.268-1.394,12.188-4.259,17.584-8.503c1.061-0.826,2.496-0.942,3.672-0.318
		l0.182,0.094c10.314,5.514,34.465,18.419,41.387,23.192c8.63,5.946,13.577,50.044,16.376,72.458H230V0z M114.999,139.305
		c-14.349,0-48.09-17.27-48.09-58.652C66.909,48.261,71.28,22,114.999,22c43.715,0,48.09,26.261,48.09,58.652
		C163.089,122.035,129.349,139.305,114.999,139.305z"/>
</g>
</svg>
