<?xml version="1.0" encoding="utf-8"?>
<!-- Generator: Adobe Illustrator 15.0.2, SVG Export Plug-In . SVG Version: 6.00 Build 0)  -->
<!DOCTYPE svg PUBLIC "-//W3C//DTD SVG 1.1//EN" "http://www.w3.org/Graphics/SVG/1.1/DTD/svg11.dtd">
<svg version="1.1" id="Calque_1" xmlns="http://www.w3.org/2000/svg" xmlns:xlink="http://www.w3.org/1999/xlink" x="0px" y="0px"
	 width="208px" height="208px" viewBox="0 0 208 208" enable-background="new 0 0 208 208" xml:space="preserve">
<path opacity="0.25" fill="#006E12" enable-background="new    " d="M103.953,65.64c-1.419,0.304-3.769,1.13-6.354,2.278
	C96.244,68.52,95,69.133,93.95,69.701c-14.262,7.411-18.655,30.75-9.665,53.633c9.153,23.287,28.777,37.484,44.412,32.464
	c1.392-0.414,3.23-1.108,5.207-1.981c1.688-0.752,3.203-1.52,4.386-2.199c13.917-7.744,18.159-30.786,9.294-53.35
	C138.621,75.457,119.516,61.409,103.953,65.64z"/>
<path opacity="0.25" fill="#006E12" enable-background="new    " d="M164.908,71.559c-19.936-39.25-63.015-57.859-96.22-41.562
	c-1.168,0.573-2.305,1.186-3.418,1.829C43.312,43.188,30.958,66.472,30.647,92.138c-0.015,1.222-0.002,2.45,0.038,3.682
	c0.04,1.231,0.108,2.468,0.203,3.708c0.191,2.48,0.493,4.972,0.909,7.471c0.417,2.497,0.945,5.001,1.59,7.5
	c0.645,2.5,1.405,4.996,2.283,7.481c1.317,3.729,2.899,7.432,4.753,11.08c19.996,39.369,64.061,57.612,98.42,40.75
	c5.489-2.697,10.396-6.127,14.685-10.142C176.509,143.307,182.049,105.295,164.908,71.559z M140.07,163.773
	c-0.764,0.347-1.531,0.674-2.319,0.979c-26.737,10.328-58.575-6.71-71.108-38.06c-0.392-0.979-0.76-1.961-1.105-2.944
	c-0.689-1.967-1.287-3.94-1.793-5.914c-1.012-3.946-1.662-7.894-1.965-11.79c-1.898-24.354,9.704-46.741,30.594-54.81
	c0.784-0.304,1.575-0.578,2.367-0.833c0,0,0.001,0,0.002-0.001c26.224-8.476,56.571,8.468,68.733,38.892
	C175.635,119.718,165.145,152.434,140.07,163.773z"/>
<g display="none">
	<g display="inline">
		<path fill="#FFFBFF" d="M102.5,27.748c-40.733,0-73.753,33.02-73.753,73.753c0,40.731,33.02,73.751,73.753,73.751
			c40.73,0,73.751-33.021,73.751-73.751C176.252,60.768,143.23,27.748,102.5,27.748z M102.5,171.676
			c-38.759,0-70.176-31.418-70.176-70.175c0-38.759,31.417-70.176,70.176-70.176c38.757,0,70.175,31.417,70.175,70.176
			C172.676,140.258,141.258,171.676,102.5,171.676z"/>
		<g>
			<path fill="#FFFBFF" d="M102.5,167.873c-36.599,0-66.374-29.775-66.374-66.373c0-36.599,29.774-66.374,66.374-66.374
				c36.598,0,66.373,29.774,66.373,66.374C168.873,138.098,139.098,167.873,102.5,167.873z M102.5,44.514
				c-31.424,0-56.987,25.563-56.987,56.987c0,31.422,25.563,56.987,56.987,56.987c31.422,0,56.984-25.564,56.984-56.987
				C159.484,70.077,133.923,44.514,102.5,44.514z"/>
		</g>
		<g>
			<path fill="#FFFBFF" d="M78.11,135.154l-28.815,17.41c11.235,11.799,35.626,20.896,53.206,20.896
				c17.628,0,42.069-9.138,53.31-20.997l-28.791-17.4c-6.873,5.027-15.347,8.008-24.519,8.008
				C93.385,143.07,84.962,140.129,78.11,135.154z"/>
			<path fill="#FFFBFF" d="M102.5,59.931c22.959,0,41.57,18.611,41.57,41.57c0,2.897-0.299,5.724-0.862,8.453l18.69,8.175
				c1.477-5.292,2.285-10.863,2.285-16.627c0-34.068-27.617-61.684-61.688-61.684c-34.068,0-61.684,27.616-61.684,61.684
				c0,5.813,0.821,11.428,2.323,16.758l18.685-8.171c-0.583-2.771-0.894-5.646-0.894-8.587
				C60.931,78.542,79.542,59.931,102.5,59.931z"/>
		</g>
	</g>
	<g display="inline">
		<path fill="#FFFBFF" d="M82.809,133.684c0,0-2.693-4.311-2.693-10.229s2.425-13.87,9.83-23.162
			c7.406-9.291,9.562-17.236,9.562-22.084S96.545,67.03,96.545,67.03s18.719,7.137,18.719,23.027
			c0,15.888-15.218,19.388-15.218,35.821c0,0,0,5.115,1.078,5.115C101.124,130.988,87.118,131.797,82.809,133.684z"/>
		<path fill="#FFFBFF" d="M104.354,130.854c0,0-3.896-14.938,10.91-24.908c0,0,13.063,9.434,7.271,27.199
			C122.535,133.145,115.264,130.988,104.354,130.854z"/>
		<path fill="#FFFBFF" d="M120.111,93.554c0,0,8.886,3.097,5.52,14.812C125.631,108.366,115.396,102.576,120.111,93.554z"/>
	</g>
</g>
<g display="none">
	<path display="inline" fill="#E8C6B0" d="M192.25,101.5c0-20.064-6.699-38.51-17.825-53.45c-1.259-1.96-2.694-3.793-4.315-5.449
		c-16.443-18.877-40.604-30.848-67.604-30.848c-35.61,0-66.308,20.773-80.805,50.835c-1.356,2.37-2.424,4.913-3.181,7.595
		c-3.654,9.766-5.766,20.279-5.766,31.316c0,49.567,40.183,89.746,89.751,89.746c4.31,0,8.513-0.431,12.649-1.039
		c0.066-0.009,0.139-0.021,0.203-0.029c0.75-0.108,1.52-0.173,2.268-0.3c0.025-0.018,0.063-0.042,0.104-0.059
		c0.043-0.01,0.08-0.01,0.115-0.021c-0.064,0.021-0.144,0.055-0.211,0.072c0.211-0.038,0.413-0.102,0.631-0.139
		c0.26-0.051,0.504-0.106,0.758-0.164C160.663,181.807,192.25,145.408,192.25,101.5z M111.725,122.607
		c-17.854,0-32.458,13.832-33.75,31.357c-0.044-0.009-0.083-0.021-0.127-0.025c-56.808-13.104-62.019-52.479-60.557-73.27
		c0.688,18.108,15.546,32.594,33.819,32.594c18.712,0,33.885-15.178,33.885-33.891c0-11.573-5.812-21.779-14.666-27.891
		c0.004-0.004,0.008-0.004,0.013-0.008c41.646-35.743,73.521-26.125,90.104-15.785c-4.418-2.108-9.346-3.32-14.562-3.32
		c-18.712,0-33.884,15.168-33.884,33.88s15.172,33.889,33.884,33.889c4.443,0,8.688-0.878,12.571-2.437l-0.014,0.029
		c18.045,46.016-3.971,72.805-25.943,85.499c7.971-6.201,13.111-15.861,13.111-26.737
		C145.609,137.779,130.438,122.607,111.725,122.607z"/>
</g>
</svg>
