<?xml version="1.0" encoding="utf-8"?>
<!-- Generator: Adobe Illustrator 15.0.2, SVG Export Plug-In . SVG Version: 6.00 Build 0)  -->
<!DOCTYPE svg PUBLIC "-//W3C//DTD SVG 1.1//EN" "http://www.w3.org/Graphics/SVG/1.1/DTD/svg11.dtd">
<svg version="1.1" id="Calque_1" xmlns="http://www.w3.org/2000/svg" xmlns:xlink="http://www.w3.org/1999/xlink" x="0px" y="0px"
	 width="208px" height="208px" viewBox="0 0 208 208" enable-background="new 0 0 208 208" xml:space="preserve">
<g display="none">
	<g display="inline">
		<path fill="#FFFBFF" d="M102.5,27.748c-40.733,0-73.753,33.02-73.753,73.753c0,40.731,33.02,73.751,73.753,73.751
			c40.73,0,73.751-33.021,73.751-73.751C176.252,60.768,143.23,27.748,102.5,27.748z M102.5,171.676
			c-38.759,0-70.176-31.418-70.176-70.175c0-38.759,31.417-70.176,70.176-70.176c38.757,0,70.175,31.417,70.175,70.176
			C172.676,140.258,141.258,171.676,102.5,171.676z"/>
		<g>
			<path fill="#FFFBFF" d="M102.5,167.873c-36.599,0-66.374-29.775-66.374-66.373c0-36.599,29.774-66.374,66.374-66.374
				c36.598,0,66.373,29.774,66.373,66.374C168.873,138.098,139.098,167.873,102.5,167.873z M102.5,44.514
				c-31.424,0-56.987,25.563-56.987,56.987c0,31.422,25.563,56.987,56.987,56.987c31.422,0,56.984-25.564,56.984-56.987
				C159.484,70.077,133.923,44.514,102.5,44.514z"/>
		</g>
		<g>
			<path fill="#FFFBFF" d="M78.11,135.154l-28.815,17.41c11.235,11.799,35.626,20.896,53.206,20.896
				c17.628,0,42.069-9.138,53.31-20.997l-28.791-17.4c-6.873,5.027-15.347,8.012-24.519,8.012
				C93.385,143.07,84.962,140.129,78.11,135.154z"/>
			<path fill="#FFFBFF" d="M102.5,59.931c22.959,0,41.57,18.611,41.57,41.57c0,2.897-0.299,5.724-0.862,8.453l18.69,8.175
				c1.477-5.292,2.285-10.863,2.285-16.627c0-34.068-27.617-61.684-61.688-61.684c-34.068,0-61.684,27.616-61.684,61.684
				c0,5.813,0.821,11.428,2.323,16.758l18.685-8.171c-0.583-2.771-0.894-5.646-0.894-8.587
				C60.931,78.542,79.542,59.931,102.5,59.931z"/>
		</g>
	</g>
	<g display="inline">
		<path fill="#FFFBFF" d="M82.809,133.684c0,0-2.693-4.311-2.693-10.229s2.425-13.87,9.83-23.162
			c7.406-9.291,9.562-17.236,9.562-22.084S96.545,67.03,96.545,67.03s18.719,7.137,18.719,23.027
			c0,15.888-15.218,19.388-15.218,35.821c0,0,0,5.115,1.078,5.115C101.124,130.988,87.118,131.797,82.809,133.684z"/>
		<path fill="#FFFBFF" d="M104.354,130.854c0,0-3.896-14.938,10.91-24.908c0,0,13.063,9.438,7.271,27.199
			C122.535,133.145,115.264,130.988,104.354,130.854z"/>
		<path fill="#FFFBFF" d="M120.111,93.554c0,0,8.886,3.097,5.52,14.811C125.631,108.365,115.396,102.576,120.111,93.554z"/>
	</g>
</g>
<g display="none">
	<path display="inline" fill="#E8C6B0" d="M192.25,101.5c0-20.064-6.699-38.51-17.825-53.45c-1.259-1.96-2.694-3.793-4.315-5.449
		c-16.439-18.877-40.604-30.848-67.604-30.848c-35.61,0-66.308,20.773-80.805,50.835c-1.356,2.37-2.424,4.913-3.181,7.595
		c-3.654,9.766-5.766,20.279-5.766,31.316c0,49.567,40.183,89.746,89.751,89.746c4.31,0,8.513-0.431,12.649-1.039
		c0.066-0.009,0.139-0.021,0.203-0.028c0.75-0.109,1.52-0.174,2.268-0.301c0.025-0.018,0.063-0.042,0.104-0.059
		c0.043-0.01,0.08-0.01,0.115-0.021c-0.064,0.021-0.144,0.055-0.211,0.072c0.211-0.038,0.413-0.102,0.629-0.139
		c0.262-0.051,0.506-0.106,0.76-0.164C160.663,181.807,192.25,145.408,192.25,101.5z M111.725,122.607
		c-17.854,0-32.458,13.832-33.75,31.354c-0.044-0.009-0.083-0.021-0.127-0.021C21.04,140.835,15.829,101.46,17.291,80.669
		c0.688,18.108,15.546,32.595,33.819,32.595c18.712,0,33.885-15.179,33.885-33.892c0-11.573-5.812-21.779-14.666-27.891
		c0.004-0.004,0.008-0.004,0.013-0.008c41.646-35.743,73.521-26.125,90.104-15.785c-4.418-2.108-9.346-3.32-14.562-3.32
		c-18.712,0-33.884,15.168-33.884,33.88s15.172,33.889,33.884,33.889c4.443,0,8.688-0.878,12.571-2.437l-0.014,0.029
		c18.045,46.016-3.971,72.805-25.943,85.5c7.971-6.201,13.111-15.858,13.111-26.734
		C145.609,137.779,130.438,122.607,111.725,122.607z"/>
</g>
<path opacity="0.25" fill="#006E12" enable-background="new    " d="M102.5,23.5c-43.077,0-78,34.923-78,78
	c0,43.079,34.923,78,78,78c43.079,0,78-34.921,78-78C180.5,58.423,145.579,23.5,102.5,23.5z M134.027,153.584
	c-18.906,0-25.627-11.618-30.64-17.654c-5.012-6.039-11.846-24.377-22.895-24.377l-4.329,20.049c0,0-1.139,3.531-7.745,3.531
	s-2.847-7.974-2.847-7.974l13.554-56.84c0,0,0.569-2.392,2.961-3.417c2.391-1.025,8.733-4.203,8.314-1.025
	c-0.419,3.178-8.086,35.623-8.086,35.623s33.489-7.716,39.297-30.839c5.811-23.122-54.117-8.009-68.691,13.081
	c0,0-1.815,2.374-4.663,0c-2.848-2.373-0.569-7.5,1.937-9.663c2.506-2.164,23.008-24.66,63.958-24.66c0,0,25.92-0.484,25.92,14.964
	c0,15.448-30.583,40.736-43.799,40.736c0,0,3.698,3.415,5.406,6.662c1.709,3.246,11.106,21.867,30.584,21.867
	c19.478,0,14.522-18.451,3.073-10.935c0,0-0.021-8.028,10.069-8.028c10.093,0,12.654,10.25,12.654,16.916
	C158.064,138.266,152.938,153.584,134.027,153.584z"/>
</svg>
