<?xml version="1.0" encoding="utf-8"?>
<!-- Generator: Adobe Illustrator 15.0.2, SVG Export Plug-In . SVG Version: 6.00 Build 0)  -->
<!DOCTYPE svg PUBLIC "-//W3C//DTD SVG 1.1//EN" "http://www.w3.org/Graphics/SVG/1.1/DTD/svg11.dtd">
<svg version="1.1" id="Calque_1" xmlns="http://www.w3.org/2000/svg" xmlns:xlink="http://www.w3.org/1999/xlink" x="0px" y="0px"
	 width="208px" height="208px" viewBox="0 0 208 208" enable-background="new 0 0 208 208" xml:space="preserve">
<g opacity="0.25">
	<path fill="#006E12" d="M169.061,157.729c-14.252,14.045-33.602,22.771-55.076,22.771c-43.168,0-78.043-34.9-78.043-77.891
		c0-43.205,34.875-78.109,78.043-78.109c21.476,0,41.041,8.725,55.076,22.986l-18.932,18.941
		c-9.352-9.363-22.111-15.112-36.148-15.112c-28.282,0-51.25,22.986-51.25,51.29c0,28.097,22.967,51.083,51.25,51.083
		c14.037,0,26.797-5.748,36.148-14.901L169.061,157.729z"/>
</g>
<path opacity="0.25" fill="#006E12" enable-background="new    " d="M133.053,111.717c-3.438,7.297-10.893,12.376-19.57,12.376
	c-11.872,0-21.536-9.67-21.536-21.552c0-11.964,9.664-21.634,21.536-21.634c8.679,0,16.129,5.081,19.57,12.375l-7.207,2.211
	c-2.455-4.259-7.041-7.127-12.277-7.127c-7.864,0-14.17,6.391-14.17,14.175c0,7.863,6.306,14.177,14.17,14.177
	c5.24,0,9.822-2.868,12.277-7.213L133.053,111.717z"/>
</svg>
