<?xml version="1.0" encoding="utf-8"?>
<!-- Generator: Adobe Illustrator 15.0.2, SVG Export Plug-In . SVG Version: 6.00 Build 0)  -->
<!DOCTYPE svg PUBLIC "-//W3C//DTD SVG 1.1//EN" "http://www.w3.org/Graphics/SVG/1.1/DTD/svg11.dtd">
<svg version="1.1" id="Man_Profil" xmlns="http://www.w3.org/2000/svg" xmlns:xlink="http://www.w3.org/1999/xlink" x="0px" y="0px"
	 width="230px" height="230px" viewBox="0 0 230 230" enable-background="new 0 0 230 230" xml:space="preserve">
<g>
	<path fill="#2D2D2D" d="M230,0H0v230h33v-54.668c0-22.646,18.365-40.999,41-40.999h6.834c0,18.873,15.294,34.167,34.166,34.167
		c18.87,0,34.167-15.294,34.167-34.167h6.834c22.66,0,40.999,18.354,40.999,40.999V230h33V0z M123.273,119.833
		C141.957,116.01,156,99.486,156,79.667c0-2.041-0.295-3.99-0.589-5.952c-9.717,3.89-24.69,1.882-38.811-6.265
		c-10.769-6.227-18.591-14.661-22.421-22.916C82.154,51.681,74,64.659,74,79.667c0,19.819,14.068,36.343,32.739,40.166
		c-26.226-4.011-46.404-26.472-46.404-53.832c0-30.189,24.489-54.667,54.666-54.667c30.191,0,54.667,24.478,54.666,54.667
		C169.665,93.361,149.513,115.822,123.273,119.833z"/>
</g>
</svg>
