<?xml version="1.0" encoding="utf-8"?>
<!-- Generator: Adobe Illustrator 15.0.2, SVG Export Plug-In . SVG Version: 6.00 Build 0)  -->
<!DOCTYPE svg PUBLIC "-//W3C//DTD SVG 1.1//EN" "http://www.w3.org/Graphics/SVG/1.1/DTD/svg11.dtd">
<svg version="1.1" id="Calque_1" xmlns="http://www.w3.org/2000/svg" xmlns:xlink="http://www.w3.org/1999/xlink" x="0px" y="0px"
	 width="208px" height="208px" viewBox="0 0 208 208" enable-background="new 0 0 208 208" xml:space="preserve">
<g opacity="0.25">
	<path fill="#006E12" d="M108.988,93.018c1.453-1.036,1.794-3.053,0.758-4.506c-1.035-1.454-3.051-1.794-4.504-0.76
		c-0.895,0.636-17.237,12.47-28.499,33.471c0.851,0.965,1.745,1.92,2.678,2.855c0.694,0.693,1.392,1.371,2.104,2.033
		C92.162,105.277,108.677,93.24,108.988,93.018z"/>
	<path fill="#006E12" d="M146.346,24.499H58.652c-18.782,0-34.153,15.371-34.153,34.153v87.691
		c0,18.785,15.371,34.155,34.153,34.155h87.691c18.785,0,34.155-15.37,34.155-34.155V58.652
		C180.501,39.87,165.13,24.499,146.346,24.499z M134.922,113.923c-4.5,12-13.96,21.229-28.613,21.229
		c-12.965,0-19.328-3.967-24.784-9.041c-2.816,5.515-5.224,11.634-6.805,18.324c-0.353,1.485-1.678,2.486-3.142,2.486
		c-0.246,0-0.496-0.027-0.745-0.087c-1.737-0.409-2.812-2.147-2.401-3.886c1.906-8.064,4.875-15.317,8.311-21.729
		c-12.423-14.109-15.539-31.313-1.014-45.838C91.25,59.865,133.191,57.845,137.346,62C141.5,66.154,139.421,101.923,134.922,113.923
		z"/>
</g>
</svg>
