<?xml version="1.0" encoding="utf-8"?>
<!-- Generator: Adobe Illustrator 15.0.2, SVG Export Plug-In . SVG Version: 6.00 Build 0)  -->
<!DOCTYPE svg PUBLIC "-//W3C//DTD SVG 1.1//EN" "http://www.w3.org/Graphics/SVG/1.1/DTD/svg11.dtd">
<svg version="1.1" id="Calque_1" xmlns="http://www.w3.org/2000/svg" xmlns:xlink="http://www.w3.org/1999/xlink" x="0px" y="0px"
	 width="208px" height="208px" viewBox="0 0 208 208" enable-background="new 0 0 208 208" xml:space="preserve">
<g display="none">
	<g display="inline">
		<path fill="#FFFBFF" d="M102.5,27.748c-40.733,0-73.753,33.02-73.753,73.753c0,40.731,33.02,73.751,73.753,73.751
			c40.73,0,73.751-33.021,73.751-73.751C176.252,60.768,143.23,27.748,102.5,27.748z M102.5,171.676
			c-38.759,0-70.176-31.418-70.176-70.175c0-38.759,31.417-70.176,70.176-70.176c38.757,0,70.175,31.417,70.175,70.176
			C172.676,140.258,141.258,171.676,102.5,171.676z"/>
		<g>
			<path fill="#FFFBFF" d="M102.5,167.873c-36.599,0-66.374-29.775-66.374-66.373c0-36.599,29.774-66.374,66.374-66.374
				c36.598,0,66.373,29.774,66.373,66.374C168.873,138.098,139.098,167.873,102.5,167.873z M102.5,44.514
				c-31.424,0-56.987,25.563-56.987,56.987c0,31.422,25.563,56.987,56.987,56.987c31.422,0,56.984-25.564,56.984-56.987
				C159.484,70.077,133.923,44.514,102.5,44.514z"/>
		</g>
		<g>
			<path fill="#FFFBFF" d="M78.11,135.154l-28.815,17.41c11.235,11.799,35.626,20.896,53.206,20.896
				c17.628,0,42.069-9.138,53.31-20.997l-28.791-17.4c-6.873,5.027-15.347,8.008-24.519,8.008
				C93.385,143.07,84.962,140.129,78.11,135.154z"/>
			<path fill="#FFFBFF" d="M102.5,59.931c22.959,0,41.57,18.611,41.57,41.57c0,2.897-0.299,5.724-0.862,8.453l18.69,8.175
				c1.477-5.292,2.285-10.863,2.285-16.627c0-34.068-27.617-61.684-61.688-61.684c-34.068,0-61.684,27.616-61.684,61.684
				c0,5.813,0.821,11.428,2.323,16.758l18.685-8.171c-0.583-2.771-0.894-5.646-0.894-8.587
				C60.931,78.542,79.542,59.931,102.5,59.931z"/>
		</g>
	</g>
	<g display="inline">
		<path fill="#FFFBFF" d="M82.809,133.684c0,0-2.693-4.311-2.693-10.229s2.425-13.87,9.83-23.162
			c7.406-9.291,9.562-17.236,9.562-22.084S96.545,67.03,96.545,67.03s18.719,7.137,18.719,23.027
			c0,15.888-15.218,19.388-15.218,35.821c0,0,0,5.115,1.078,5.115C101.124,130.988,87.118,131.797,82.809,133.684z"/>
		<path fill="#FFFBFF" d="M104.354,130.854c0,0-3.896-14.938,10.91-24.908c0,0,13.063,9.436,7.271,27.199
			C122.535,133.145,115.264,130.988,104.354,130.854z"/>
		<path fill="#FFFBFF" d="M120.111,93.554c0,0,8.886,3.097,5.52,14.811C125.631,108.365,115.396,102.576,120.111,93.554z"/>
	</g>
</g>
<g display="none">
	<path display="inline" fill="#E8C6B0" d="M192.25,101.5c0-20.064-6.699-38.51-17.825-53.45c-1.259-1.96-2.694-3.793-4.315-5.449
		c-16.441-18.877-40.604-30.848-67.604-30.848c-35.61,0-66.308,20.773-80.805,50.835c-1.356,2.37-2.424,4.913-3.181,7.595
		c-3.654,9.766-5.766,20.279-5.766,31.316c0,49.567,40.183,89.746,89.751,89.746c4.31,0,8.513-0.431,12.649-1.039
		c0.066-0.009,0.139-0.021,0.203-0.028c0.75-0.109,1.52-0.174,2.268-0.301c0.025-0.018,0.063-0.042,0.104-0.059
		c0.043-0.01,0.08-0.01,0.115-0.021c-0.064,0.021-0.144,0.055-0.211,0.072c0.211-0.038,0.413-0.102,0.629-0.139
		c0.262-0.051,0.506-0.106,0.76-0.164C160.663,181.807,192.25,145.408,192.25,101.5z M111.725,122.607
		c-17.854,0-32.458,13.832-33.75,31.355c-0.044-0.009-0.083-0.021-0.127-0.023C21.04,140.835,15.829,101.46,17.291,80.669
		c0.688,18.108,15.546,32.595,33.819,32.595c18.712,0,33.885-15.179,33.885-33.892c0-11.573-5.812-21.779-14.666-27.891
		c0.004-0.004,0.008-0.004,0.013-0.008c41.646-35.743,73.521-26.125,90.104-15.785c-4.418-2.108-9.346-3.32-14.562-3.32
		c-18.712,0-33.884,15.168-33.884,33.88s15.172,33.889,33.884,33.889c4.443,0,8.688-0.878,12.571-2.437l-0.014,0.029
		c18.045,46.016-3.971,72.805-25.943,85.5c7.971-6.201,13.111-15.86,13.111-26.736C145.609,137.779,130.438,122.607,111.725,122.607
		z"/>
</g>
<path opacity="0.25" fill="#006E12" enable-background="new    " d="M180.501,101.498c0-0.179-0.015-0.355-0.019-0.537
	c-0.021-3.297-0.266-6.536-0.705-9.716c-1.33-8.455-4.479-16.313-9.021-23.187c-11.313-25.687-36.684-43.777-66.379-44.511
	c-0.626-0.018-1.25-0.049-1.878-0.049c-11.503,0-22.249,3.24-31.376,8.857C43.788,43.412,24.5,70.196,24.5,101.497
	c0,0.275,0.018,0.541,0.02,0.813c0.051,4.827,0.547,9.545,1.474,14.11c1.769,7.818,5.065,15.057,9.555,21.385
	c12.154,24.695,37.565,41.692,66.95,41.692c0.629,0,1.25-0.031,1.879-0.052c10.808-0.332,20.892-3.526,29.529-8.844
	C161.225,159.543,180.501,132.786,180.501,101.498z M146.584,160.168c2.646-2.868,5.021-5.99,7.072-9.334
	c5.596-9.124,8.828-19.854,8.828-31.34c-0.002-5.028-0.627-9.91-1.795-14.578c-3.789-15.177-13.355-28.058-26.228-36.186
	c-9.257-5.842-20.206-9.239-31.963-9.239c20.935,0,38.55,14.165,43.812,33.429c1.045,3.822,1.614,7.843,1.614,11.994
	c0,0.548-0.021,1.085-0.041,1.626c0,0,0,0,0,0.005c0,11.497-3.237,22.234-8.845,31.366c-6.88,11.196-17.331,19.95-29.762,24.702
	c-6.643,2.533-13.844,3.936-21.375,3.936c-11.754,0-22.713-3.396-31.967-9.24c-4.453-2.813-8.497-6.203-12.055-10.053
	c2.669,2.458,5.553,4.688,8.636,6.637c9.254,5.846,20.212,9.24,31.966,9.24c7.531,0,14.733-1.402,21.375-3.936
	c12.433-4.75,22.883-13.508,29.762-24.702c5.607-9.13,8.846-19.87,8.846-31.365c0-0.007,0-0.007,0-0.007
	c-0.855,24.334-20.844,43.805-45.384,43.805c-0.783,0-1.564-0.02-2.339-0.06c-10.938-0.418-21.119-3.774-29.794-9.29
	c-12.788-8.135-22.286-20.967-26.059-36.08c-1.165-4.667-1.792-9.549-1.792-14.577c0-11.499,3.239-22.237,8.848-31.367
	c2.898-4.721,6.435-9.006,10.484-12.743c-2.644,2.865-5.016,5.985-7.067,9.325c-5.607,9.129-8.847,19.867-8.847,31.366
	c0,5.029,0.627,9.91,1.792,14.578c3.772,15.111,13.271,27.947,26.059,36.08c8.676,5.516,18.855,8.869,29.794,9.289
	c-20.72-1.049-37.771-15.996-42.042-35.699c-0.677-3.12-1.042-6.349-1.042-9.669c0-0.882,0.031-1.751,0.082-2.622
	c0.299-11.543,3.925-22.266,9.987-31.262c7.395-10.975,18.398-19.369,31.33-23.543c5.868-1.892,12.125-2.929,18.628-2.929
	c12.514,0,24.133,3.794,33.75,10.275c3.828,2.58,7.323,5.599,10.445,8.964c-2.197-2.015-4.546-3.872-7.029-5.546
	c-9.617-6.481-21.234-10.274-33.748-10.274c-6.508,0-12.762,1.036-18.63,2.929c-12.934,4.174-23.937,12.568-31.33,23.543
	c-6.061,8.996-9.688,19.718-9.986,31.261c1.313-23.094,19.874-41.572,43.004-42.744c0.774-0.037,1.556-0.059,2.339-0.059
	c11.758,0,22.708,3.396,31.964,9.239c12.871,8.128,22.438,21.009,26.226,36.186c1.168,4.668,1.795,9.552,1.795,14.581
	c0,11.484-3.232,22.215-8.828,31.339C154.174,152.143,150.634,156.43,146.584,160.168z"/>
</svg>
